
<svg width="24px" height="24px" viewBox="0 0 24 24" version="1.1" xmlns="http://www.w3.org/2000/svg" xmlns:xlink="http://www.w3.org/1999/xlink">
    <g id="right-menu" stroke="none" stroke-width="1" fill="none" fill-rule="evenodd">
        <g id="OK" transform="translate(-1223.000000, -137.000000)" fill="#333346" fill-rule="nonzero">
            <g id="Group-23" transform="translate(1196.000000, 73.000000)">
                <g id="Group-39" transform="translate(27.000000, 64.000000)">
                    <g id="noun_edit_1955645" transform="translate(0.490196, 0.490196)">
                        <path d="M22.1018651,21.2025061 C22.565404,21.2025061 22.9411765,21.5917207 22.9411765,22.0718413 C22.9411765,22.5519618 22.565404,22.9411765 22.1018651,22.9411765 L0.839311336,22.9411765 C0.375772485,22.9411765 0,22.5519618 0,22.0718413 C0,21.5917207 0.375772485,21.2025061 0.839311336,21.2025061 L22.1018651,21.2025061 Z M22.0923529,5.43566326 L8.77248208,19.2325925 L3.57994263,19.7820123 L4.11094693,14.4037252 L15.6928838,2.4068994 L15.6928838,2.40631983 L17.4308178,0.606795967 C18.2119369,-0.202265322 19.5738594,-0.202265322 20.3549785,0.606795967 L22.0923529,2.4068994 C22.4814808,2.80762661 22.6996834,3.35292589 22.6983357,3.92128131 C22.6983357,4.49330388 22.4829125,5.0311326 22.0923529,5.43566326 Z M5.45944048,17.835281 L8.00758969,17.5657871 L18.5739598,6.62085691 L16.2865567,4.25104914 L5.71962699,15.1953998 L5.45944048,17.835281 Z M18.8928981,1.71838592 C18.7895548,1.71804516 18.6903935,1.76063163 18.617604,1.8366155 L17.4733429,3.02122961 L19.7613056,5.39161692 L20.9050072,4.20642327 C21.056984,4.0489163 21.056984,3.79364633 20.9050072,3.63613936 L19.1681923,1.8366155 C19.0953318,1.76074121 18.9962167,1.7181746 18.8928981,1.71838592 Z" id="Shape"></path>
                    </g>
                </g>
            </g>
        </g>
    </g>
</svg>