
<svg width="17px" height="24px" viewBox="0 0 17 24" version="1.1" xmlns="http://www.w3.org/2000/svg" xmlns:xlink="http://www.w3.org/1999/xlink">
    <g id="Modal" stroke="none" stroke-width="1" fill="none" fill-rule="evenodd">
        <g id="Modal-sort" transform="translate(-357.000000, -37.000000)" fill="#000000" fill-rule="nonzero">
            <g id="Group-2" transform="translate(341.000000, 26.000000)">
                <g id="noun_Arrow-Up_1694636" transform="translate(24.500000, 23.000000) scale(-1, -1) translate(-24.500000, -23.000000) translate(16.000000, 11.000000)">
                    <path d="M9,2.55 L9,22.9722222 C9,23.1388889 8.7,23.25 8.25,23.25 C7.8,23.25 7.5,23.1388889 7.5,22.9722222 L7.5,2.55 L1.275,8.775 C0.975,9.075 0.525,9.075 0.225,8.775 C-0.075,8.475 -0.075,8.025 0.225,7.725 L7.725,0.225 C8.025,-0.075 8.475,-0.075 8.775,0.225 L16.275,7.725 C16.425,7.875 16.5,8.1 16.5,8.25 C16.5,8.475 16.425,8.625 16.275,8.775 C15.975,9.075 15.525,9.075 15.225,8.775 L9,2.55 Z" id="Combined-Shape"></path>
                </g>
            </g>
        </g>
    </g>
</svg>