
<svg width="17px" height="24px" viewBox="0 0 17 24" version="1.1" xmlns="http://www.w3.org/2000/svg" xmlns:xlink="http://www.w3.org/1999/xlink">
    <g id="Modal" stroke="none" stroke-width="1" fill="none" fill-rule="evenodd">
        <g id="Modal-sort" transform="translate(-357.000000, -37.000000)" fill="#000000" fill-rule="nonzero">
            <g id="Group-2" transform="translate(341.000000, 26.000000)">
                <g id="noun_Arrow-Up_1694636" transform="translate(16.000000, 11.000000)">
                    <path d="M9,1.02777778 L9,22.9722222 C9,23.1388889 8.7,23.25 8.25,23.25 C7.8,23.25 7.5,23.1388889 7.5,22.9722222 L7.5,1.02777778 C7.5,0.861111111 7.8,0.75 8.25,0.75 C8.7,0.75 9,0.861111111 9,1.02777778 Z" id="Shape"></path>
                    <path d="M9,0.75 C9,0.975 8.925,1.125 8.775,1.275 L1.275,8.775 C0.975,9.075 0.525,9.075 0.225,8.775 C-0.075,8.475 -0.075,8.025 0.225,7.725 L7.725,0.225 C8.025,-0.075 8.475,-0.075 8.775,0.225 C8.925,0.375 9,0.525 9,0.75 Z" id="Shape"></path>
                    <path d="M16.5,8.25 C16.5,8.475 16.425,8.625 16.275,8.775 C15.975,9.075 15.525,9.075 15.225,8.775 L7.725,1.275 C7.425,0.975 7.425,0.525 7.725,0.225 C8.025,-0.075 8.475,-0.075 8.775,0.225 L16.275,7.725 C16.425,7.875 16.5,8.1 16.5,8.25 Z" id="Shape"></path>
                </g>
            </g>
        </g>
    </g>
</svg>