
<svg width="19px" height="15px" viewBox="0 0 19 15" version="1.1" xmlns="http://www.w3.org/2000/svg" xmlns:xlink="http://www.w3.org/1999/xlink">
    <!-- Generator: Sketch 48.1 (47250) - http://www.bohemiancoding.com/sketch -->
    <desc>Created with Sketch.</desc>
    <defs></defs>
    <g id="Clasifier-Explore" stroke="none" stroke-width="1" fill="none" fill-rule="evenodd">
        <g id="Provisory-back" transform="translate(-1225.000000, -15.000000)" fill="#FFFFFF" fill-rule="nonzero">
            <g id="noun_back_716683" transform="translate(1225.000000, 15.000000)">
                <path d="M18.5672322,15 L0.833706423,15 C0.594818602,15 0.400938631,14.8074888 0.400938631,14.5702875 C0.400938631,14.3330862 0.594818602,14.140575 0.833706423,14.140575 L18.1344644,14.140575 L18.1344644,5.2438069 L1.72455892,5.2438069 L6.93789612,8.9328889 C7.13242524,9.07061177 7.17786586,9.33896724 7.03916378,9.53233787 C6.90002894,9.72570851 6.63019822,9.77039861 6.43545271,9.6328906 L0.179361522,5.20556249 C-0.0355076862,5.0222901 -0.0828957593,4.72686274 0.179361522,4.50556079 L6.4356691,0.0797366715 C6.6304146,-0.0577713355 6.90046171,-0.0130812333 7.03938017,0.180289402 C7.17829863,0.373660036 7.13264163,0.64180065 6.9381125,0.77973837 L1.84248814,4.38438186 L18.5189786,4.38438186 C18.7998449,4.38438186 19,4.60955122 19,4.86523017 L19,14.5702875 C19,14.8074888 18.80612,15 18.5672322,15 Z" id="Shape"></path>
            </g>
        </g>
    </g>
</svg>