<svg width="7px" height="18px" viewBox="0 0 7 18" version="1.1" xmlns="http://www.w3.org/2000/svg" xmlns:xlink="http://www.w3.org/1999/xlink">
    <desc>Recognai</desc>
    <defs></defs>
    <g id="Symbols" stroke="none" stroke-width="1" fill="none" fill-rule="evenodd">
        <g id="Strructure" transform="translate(-69.000000, -709.000000)" fill="#8500FF">
            <polygon id="Fill-18" points="71.5855256 709 76 711.971773 75.3151764 712.756508 72.6215798 711.971773 74.4260763 716.263949 72.2073345 721.653801 71.652148 723.254714 71.4033764 724.942957 72.3351276 725.714688 73.1469426 725.438788 73.3458477 724.738748 72.8724359 724.358892 72.5000401 724.637014 72.795712 724.880979 73.0253227 724.637014 73.0253227 725.06568 72.795712 725.243468 72.1945071 724.880979 72.1945071 724.358892 72.8724359 723.872527 73.8580624 724.478816 73.8580624 725.438788 73.3458477 726.197925 72.3351276 726.5 71.4033764 726.290194 70.5378466 725.436319 70.2233344 724.942957 70.1901435 722.68925 71.0610447 719.061885 69.9626173 719.864317 69 719.1223 69 715.664244 70.2233344 716.263949 69.1932931 711.355524"></polygon>
        </g>
    </g>
</svg>