
<svg width="45px" height="18px" viewBox="0 0 45 18" version="1.1" xmlns="http://www.w3.org/2000/svg" xmlns:xlink="http://www.w3.org/1999/xlink">
    <desc>Recognai</desc>
    <defs>
        <polygon id="path-1" points="19.0737726 2.59748654 23.2408499 2.59748654 23.2408499 9.55555556 19.0737726 9.55555556"></polygon>
    </defs>
    <g id="Symbols" stroke="none" stroke-width="1" fill="none" fill-rule="evenodd">
        <g id="Strructure" transform="translate(-69.000000, -709.000000)">
            <polygon id="Fill-18" fill="#8500FF" points="71.5855256 709 76 711.971773 75.3151764 712.756508 72.6215798 711.971773 74.4260763 716.263949 72.2073345 721.653801 71.652148 723.254714 71.4033764 724.942957 72.3351276 725.714688 73.1469426 725.438788 73.3458477 724.738748 72.8724359 724.358892 72.5000401 724.637014 72.795712 724.880979 73.0253227 724.637014 73.0253227 725.06568 72.795712 725.243468 72.1945071 724.880979 72.1945071 724.358892 72.8724359 723.872527 73.8580624 724.478816 73.8580624 725.438788 73.3458477 726.197925 72.3351276 726.5 71.4033764 726.290194 70.5378466 725.436319 70.2233344 724.942957 70.1901435 722.68925 71.0610447 719.061885 69.9626173 719.864317 69 719.1223 69 715.664244 70.2233344 716.263949 69.1932931 711.355524"></polygon>
            <g id="Group-16" transform="translate(79.000000, 714.000000)">
                <path d="M1.22989387,4.37622294 C1.36484456,4.38209157 1.52367669,4.38502589 1.70690494,4.38502589 C2.4383768,4.38502589 2.9719004,4.27313065 3.30685811,4.04914455 C3.64181581,3.82545188 3.80908879,3.47470334 3.80908879,2.9974858 C3.80908879,2.67050522 3.74197372,2.40680804 3.60928765,2.20639428 C3.47588102,2.00617614 3.26815371,1.85955816 2.9860028,1.76663817 C2.70385189,1.67381598 2.33636602,1.62735598 1.88364814,1.62735598 C1.66017144,1.62735598 1.46253198,1.6349852 1.29042096,1.64955897 C1.11841287,1.66442617 0.936111055,1.68790069 0.744030207,1.72027598 L0.744030207,4.34091334 C0.933022938,4.35861705 1.09525199,4.37035431 1.22989387,4.37622294 Z M4.20920575,7.65972222 L2.06955275,4.95066415 C1.91463224,4.95682621 1.79203402,4.95966271 1.70196395,4.95966271 C1.39222586,4.95966271 1.0726058,4.94772983 0.744030207,4.92435311 L0.744030207,7.65972222 L0,7.65972222 L0,1.22525692 C0.63553438,1.10759086 1.24770201,1.04861111 1.83681171,1.04861111 C2.74873251,1.04861111 3.42420654,1.20628168 3.8649837,1.52142718 C4.3050403,1.83676831 4.52512007,2.32562531 4.52512007,2.98848723 C4.52820819,3.49230924 4.38625777,3.90057036 4.09978349,4.21268374 C3.81269159,4.52509056 3.38859026,4.74007809 2.82747949,4.85803758 L5.05555556,7.65972222 L4.20920575,7.65972222 Z" id="Fill-1" fill="#8500FF"></path>
                <path d="M6.51526734,3.48919293 C6.30355334,3.75978208 6.19146946,4.20474204 6.17941743,4.82397298 L8.63441601,4.82397298 C8.62236398,4.20174769 8.51560307,3.75588943 8.3144346,3.48689726 C8.11326613,3.21800491 7.81758965,3.08335911 7.4275056,3.08335911 C7.0309938,3.08335911 6.72698134,3.21860378 6.51526734,3.48919293 Z M9.33333333,5.32013627 L6.17941743,5.32013627 C6.19146946,5.73195879 6.2603669,6.06273431 6.38600931,6.31216341 C6.51135043,6.56189194 6.69524433,6.74225144 6.93718884,6.85334171 C7.17913334,6.96473142 7.48776575,7.02022665 7.86278477,7.02022665 C8.2199266,7.02022665 8.62838999,6.95405158 9.08807452,6.82180126 L9.08807452,7.41268572 C8.64034159,7.54473642 8.20315419,7.61111111 7.77681362,7.61111111 C6.99323078,7.61111111 6.40860687,7.40969137 6.0229419,7.00675209 C5.63727693,6.60391261 5.44444444,5.96052727 5.44444444,5.07659605 C5.44444444,4.23777966 5.61899802,3.6080685 5.96830603,3.18706332 C6.31801578,2.76625777 6.80702691,2.55555556 7.43644419,2.55555556 C8.05059557,2.55555556 8.52012259,2.76535946 8.84552741,3.18466785 C9.17053049,3.60417585 9.33333333,4.24077401 9.33333333,5.09456213 L9.33333333,5.32013627 Z" id="Fill-3" fill="#8500FF"></path>
                <path d="M10.685738,6.99765712 C10.3025491,6.58902051 10.1111111,5.95011407 10.1111111,5.08113744 C10.1111111,4.2121608 10.3174596,3.57415268 10.7305737,3.16671383 C11.1433749,2.75937479 11.7535576,2.55555556 12.5607045,2.55555556 C12.9405567,2.55555556 13.2907965,2.59787649 13.6111111,2.68191949 L13.6111111,3.29517385 C13.2751562,3.21412526 12.9533818,3.17360097 12.6453709,3.17360097 C12.2435179,3.17360097 11.9144447,3.23498629 11.6585684,3.35835582 C11.4023793,3.48172535 11.2109413,3.68165186 11.0836288,3.95823517 C10.956629,4.23481847 10.8931292,4.60313042 10.8931292,5.06297137 C10.8931292,5.52900077 10.9519369,5.90419985 11.0696567,6.18826917 C11.1872722,6.47223868 11.3625485,6.67845344 11.5947558,6.80601514 C11.8272758,6.93377646 12.1224615,6.99765712 12.4804173,6.99765712 C12.8104289,6.99765712 13.1871531,6.92998355 13.6111111,6.79473621 L13.6111111,7.40819019 C13.2122819,7.54353735 12.7992721,7.61111111 12.3720817,7.61111111 C11.6308329,7.61111111 11.068614,7.4067928 10.685738,6.99765712" id="Fill-5" fill="#8500FF"></path>
                <path d="M17.1653504,6.58063617 C17.4002691,6.28448942 17.5179337,5.78911484 17.5179337,5.09451245 C17.5179337,4.38823187 17.4002691,3.88666886 17.1653504,3.5905221 C16.9307394,3.29457497 16.5876965,3.14645168 16.1365294,3.14645168 C15.6884399,3.14645168 15.3464229,3.29357683 15.1098628,3.5883262 C14.8735079,3.88317539 14.7552278,4.37755183 14.7552278,5.07215422 C14.7552278,5.7755402 14.872482,6.2770034 15.1074007,6.57594494 C15.3423195,6.8750861 15.6853624,7.02470659 16.1365294,7.02470659 C16.5876965,7.02470659 16.9307394,6.87658331 17.1653504,6.58063617 M14.5628817,6.99096962 C14.1874221,6.57774158 14,5.94232862 14,5.08552923 C14,4.22882966 14.1868066,3.59281781 14.5607274,3.17799276 C14.9343405,2.76296808 15.4596763,2.55555556 16.1365294,2.55555556 C16.8161524,2.55555556 17.3429243,2.76137107 17.7169478,3.17360097 C18.0908686,3.58543161 18.2777778,4.22134364 18.2777778,5.08113744 C18.2777778,5.9348426 18.0893299,6.56995613 17.7123315,6.98647801 C17.3353331,7.40280026 16.8100999,7.61111111 16.1365294,7.61111111 C15.4627538,7.61111111 14.9384439,7.40439728 14.5628817,6.99096962" id="Fill-7" fill="#8500FF"></path>
                <path d="M21.9396751,6.81828936 C22.1596154,6.72472598 22.3420992,6.58610626 22.4867089,6.40174006 L22.4867089,3.2792471 C22.2038539,3.21388091 21.9097306,3.18114851 21.6050694,3.18114851 C21.0173444,3.18114851 20.5765247,3.33544429 20.2828187,3.64452879 C19.9890084,3.95331753 19.8419989,4.44489499 19.8419989,5.11896541 C19.8419989,5.79313443 19.9653241,6.26814851 20.2120789,6.54430344 C20.4588336,6.82055696 20.8051249,6.95868372 21.2515789,6.95868372 C21.4905084,6.95868372 21.7197347,6.91185274 21.9396751,6.81828936 M20.1341398,9.49988091 C19.8672482,9.46281049 19.6220585,9.40858513 19.3989881,9.33740203 L19.3989881,8.7404302 C19.9111737,8.89176823 20.3998837,8.96768372 20.8650138,8.96768372 C21.2421886,8.96768372 21.5484149,8.91858513 21.7842144,8.82058513 C22.0201182,8.72248654 22.1960287,8.56385274 22.3122591,8.34399358 C22.4284894,8.12403584 22.4867089,7.83033161 22.4867089,7.46199358 L22.4867089,6.99427527 L22.4396534,6.99427527 C22.2791846,7.1724302 22.0780247,7.31282457 21.835965,7.41526119 C21.5942184,7.51769781 21.3238837,7.56886682 21.0253783,7.56886682 C20.6543593,7.56886682 20.3229881,7.48792316 20.0307428,7.32603584 C19.7382889,7.16414851 19.5058282,6.90603584 19.3330477,6.55100767 C19.1600585,6.19627527 19.0737726,5.74088091 19.0737726,5.18571189 C19.0737726,4.32451471 19.2912089,3.67864147 19.7263946,3.24799358 C20.1618932,2.81744429 20.808255,2.60074006 21.6665233,2.59748654 C21.9303892,2.59748654 22.2013499,2.61700767 22.4795098,2.65545837 C22.7576696,2.69400767 23.0115192,2.74764147 23.2408499,2.81586682 L23.2408499,7.35048654 C23.2408499,7.87321894 23.154564,8.29657105 22.9816791,8.62004992 C22.8087943,8.94382457 22.5511886,9.18044429 22.2085491,9.33059922 C21.8658051,9.48045837 21.4307238,9.55558513 20.9026791,9.55558513 C20.6574894,9.55558513 20.4014488,9.53695133 20.1341398,9.49988091" id="Fill-9" fill="#8500FF"></path>
                <path d="M24.1111111,2.63373791 L24.7317055,2.63373791 L24.7823705,3.19797085 L24.8328319,3.19797085 C25.0381368,2.99002609 25.2747765,2.83081838 25.5429547,2.72075386 C25.8111329,2.61068935 26.0970133,2.55555556 26.4001889,2.55555556 C26.8998183,2.55555556 27.2914032,2.69557305 27.5747402,2.97540497 C27.8581789,3.25523689 28,3.704227 28,4.32196916 L28,7.61111111 L27.2643413,7.61111111 L27.2643413,4.35405439 C27.2643413,3.9474046 27.1747111,3.65508381 26.9955526,3.47780277 C26.8162924,3.3004202 26.5580844,3.21157661 26.2209287,3.21157661 C25.9727927,3.21157661 25.7246566,3.26528891 25.4764189,3.37220582 C25.2279776,3.4793258 25.0180946,3.64604714 24.8464646,3.87236984 L24.8464646,7.61111111 L24.1111111,7.61111111 L24.1111111,2.63373791 Z" id="Fill-12" fill="#8500FF"></path>
                <path d="M31.4300078,6.90708574 C31.6375576,6.81077802 31.8203528,6.6604221 31.9782964,6.45551845 L31.9782964,5.19172946 L30.9387031,5.30921688 C30.5674821,5.34827945 30.2976091,5.44168994 30.1295695,5.58904874 C29.9614329,5.73630763 29.8773645,5.94251003 29.8773645,6.20735625 C29.8773645,6.48419097 29.9532784,6.69418974 30.1053975,6.83705285 C30.2573223,6.97991595 30.4825401,7.0514474 30.7807594,7.0514474 C31.0059771,7.0514474 31.2221667,7.00349336 31.4300078,6.90708574 M31.8641344,2.72259549 C32.1302213,2.83408865 32.3304904,3.01911136 32.4650386,3.27796331 C32.5994897,3.53661546 32.6666667,3.88438222 32.6666667,4.32046435 L32.6666667,7.52988894 L32.079159,7.52988894 L32.0264464,6.98381222 L31.9782964,6.98381222 C31.8261774,7.1824219 31.6294031,7.33667409 31.3882648,7.44636897 C31.1471265,7.55616376 30.8859905,7.61111111 30.6054391,7.61111111 C30.3100349,7.61111111 30.054141,7.55766233 29.8379514,7.45086467 C29.6214706,7.344067 29.4553725,7.18991472 29.3400455,6.988208 C29.2243302,6.78660119 29.1666667,6.54882903 29.1666667,6.27509134 C29.1666667,5.84170663 29.3040301,5.50702733 29.5791452,5.27075374 C29.853872,5.03458005 30.2909109,4.88622221 30.8905531,4.82607984 L31.9782964,4.70429654 L31.9782964,4.28439891 C31.9782964,3.99267844 31.9337383,3.76389767 31.8444278,3.5983563 C31.7552144,3.43281493 31.6221224,3.31622665 31.4453459,3.24849156 C31.2682781,3.18075646 31.0366534,3.14698882 30.7500832,3.14698882 C30.5540855,3.14698882 30.344303,3.16497159 30.1208326,3.20103703 C29.8970711,3.23720237 29.6785516,3.29284905 29.464886,3.36807696 L29.464886,2.77234782 C29.6607866,2.70321406 29.883092,2.64986518 30.1318023,2.61200147 C30.3802213,2.57433756 30.6169912,2.55555556 30.8422089,2.55555556 C31.2575997,2.55555556 31.5980474,2.61140204 31.8641344,2.72259549" id="Fill-14" fill="#8500FF"></path>
                <path d="M34.0006451,7.61111111 L34.8375513,7.61111111 L34.8375513,2.62437915 L34.0006451,2.62437915 L34.0006451,7.61111111 Z M33.9850139,1.42237949 C33.8837005,1.34130352 33.8333333,1.22706472 33.8333333,1.08007001 C33.8333333,0.932973577 33.8848584,0.81792097 33.9874454,0.735319098 C34.0904956,0.652717226 34.2343026,0.611111111 34.419214,0.611111111 C34.6038937,0.611111111 34.7468903,0.652717226 34.8482037,0.735319098 C34.9491696,0.81792097 35,0.932973577 35,1.08007001 C35,1.22706472 34.9491696,1.34130352 34.8482037,1.42237949 C34.7468903,1.50376065 34.6038937,1.54414605 34.419214,1.54414605 C34.230829,1.54414605 34.0859799,1.50376065 33.9850139,1.42237949 Z" id="Fill-16" fill="#8500FF"></path>
                <g id="Group-11" transform="translate(19.055556, 2.555556)"></g>
                <mask id="mask-2" fill="white">
                    <use xlink:href="#path-1"></use>
                </mask>
                <g id="Clip-10"></g>
            </g>
        </g>
    </g>
</svg>