

<svg width="35px" height="40px" viewBox="0 0 35 40" version="1.1" xmlns="http://www.w3.org/2000/svg" xmlns:xlink="http://www.w3.org/1999/xlink">
    <g id="*-Explore" stroke="none" stroke-width="1" fill="none" fill-rule="evenodd">
        <g id="Explore-with-details" transform="translate(-22.000000, -18.000000)" fill="#FFFFFF">
            <g id="Page-1" transform="translate(3.000000, 6.000000)">
                <path d="M53.1430012,33.5896972 C52.4705446,35.6724257 49.9453299,36.8147191 47.5025804,36.1411721 C45.0601492,35.4673308 43.6251293,33.2330616 44.2979043,31.1500388 C44.9703609,29.0673102 47.4955756,27.9250169 49.9383252,28.5988581 C52.3807564,29.2724051 53.8154578,31.5069686 53.1430012,33.5896972 M42.3817851,22.4271784 C40.0991897,21.7977695 38.568332,20.2985463 38.9625088,19.0785699 C39.3563671,17.8585936 41.5259312,17.3798426 43.8085266,18.0092516 C46.0908036,18.6386605 47.6216612,20.138178 47.2274845,21.3581543 C46.8336261,22.5781307 44.664062,23.0568816 42.3817851,22.4271784 M35.813234,31.5714102 C33.2517219,31.5714102 31.1754485,30.3543764 31.1754485,28.8533877 C31.1754485,27.3523989 33.2517219,26.1353651 35.813234,26.1353651 C38.3744276,26.1353651 40.4510195,27.3523989 40.4510195,28.8533877 C40.4510195,30.3543764 38.3744276,31.5714102 35.813234,31.5714102 M29.5920551,13.904705 C29.5920551,13.2697052 31.5164528,12.7547611 33.8904284,12.7547611 C36.2640856,12.7547611 38.1884832,13.2697052 38.1884832,13.904705 C38.1884832,14.5397047 36.2640856,15.0546489 33.8904284,15.0546489 C31.5164528,15.0546489 29.5920551,14.5397047 29.5920551,13.904705 M24.6368268,27.5339535 C22.6990565,28.1660107 20.7574654,27.7078575 20.2999274,26.5099502 C19.8423895,25.3123372 21.0424316,23.8290037 22.9802019,23.1966522 C24.9179723,22.564595 26.8598818,23.0230424 27.3171013,24.2206555 C27.7746393,25.4182685 26.5745971,26.9018963 24.6368268,27.5339535 M49.3868598,27.6804919 C47.5770855,27.4715717 46.4458173,28.0986266 46.4458173,28.0986266 L48.0295291,20.9900428 C48.0295291,20.9900428 48.0295291,19.9448532 46.8982609,18.8993694 C43.5047749,15.9724266 39.2064016,17.4360451 39.2064016,17.4360451 L39.2064016,15.1361572 C39.2064016,13.254404 38.3018329,12.8362694 38.3018329,12.8362694 C38.3018329,12.8362694 36.7181211,12 33.7770787,12 C30.8360362,12 29.4787055,12.8362694 29.4787055,12.8362694 C28.5738183,13.254404 28.5738183,15.3453717 28.5738183,15.3453717 L28.5738183,23.7080653 C26.537663,21.8263121 24.0493825,22.2444468 24.0493825,22.2444468 C24.0493825,22.2444468 21.334721,22.4536613 19.9770719,24.1262 C18.6197411,25.7987387 19.0725031,27.2623573 19.0725031,27.2623573 L21.5607836,36.2524 L25.8591568,49.6330041 C27.5558998,51.8284319 30.4969423,51.201377 30.4969423,51.201377 C30.4969423,51.201377 30.7230049,51.6192174 32.6461289,51.932892 C35.586853,52.3510266 37.1705647,50.6784879 37.1705647,50.6784879 C37.1705647,50.6784879 38.0754519,51.0966226 39.6591636,51.0966226 C41.2428754,51.0966226 43.2787123,48.3786 43.2787123,48.3786 C43.2787123,48.3786 49.8393034,39.8066919 51.6490777,37.2978839 C53.4591704,34.7890758 53.911614,33.5346717 53.911614,33.5346717 C54.5901202,29.9803798 51.1966341,27.8894121 49.3868598,27.6804919" id="Fill-4"></path>
            </g>
        </g>
    </g>
</svg>