<svg width="20" height="16" viewBox="0 0 20 16" fill="none" xmlns="http://www.w3.org/2000/svg">
<path fill-rule="evenodd" clip-rule="evenodd" d="M0 2.71569C0 2.25545 0.373096 1.88235 0.833333 1.88235V1.88235C1.29357 1.88235 1.66667 2.25545 1.66667 2.71569V2.93137C1.66667 3.39161 1.29357 3.76471 0.833333 3.76471V3.76471C0.373096 3.76471 0 3.39161 0 2.93137V2.71569Z" fill="black" fill-opacity="0.54"/>
<path fill-rule="evenodd" clip-rule="evenodd" d="M4.27452 3.76471C3.75472 3.76471 3.33334 3.34333 3.33334 2.82353V2.82353C3.33334 2.30373 3.75472 1.88235 4.27452 1.88235H19.0588C19.5786 1.88235 20 2.30373 20 2.82353V2.82353C20 3.34333 19.5786 3.76471 19.0588 3.76471H4.27452Z" fill="black" fill-opacity="0.54"/>
<path fill-rule="evenodd" clip-rule="evenodd" d="M0 6.48039C0 6.02015 0.373096 5.64706 0.833333 5.64706V5.64706C1.29357 5.64706 1.66667 6.02015 1.66667 6.48039V6.69608C1.66667 7.15631 1.29357 7.52941 0.833333 7.52941V7.52941C0.373096 7.52941 0 7.15631 0 6.69608V6.48039Z" fill="black" fill-opacity="0.54"/>
<path fill-rule="evenodd" clip-rule="evenodd" d="M4.27452 7.52941C3.75472 7.52941 3.33334 7.10803 3.33334 6.58823V6.58823C3.33334 6.06844 3.75472 5.64706 4.27452 5.64706H19.0588C19.5786 5.64706 20 6.06844 20 6.58823V6.58823C20 7.10803 19.5786 7.52941 19.0588 7.52941H4.27452Z" fill="black" fill-opacity="0.54"/>
<path fill-rule="evenodd" clip-rule="evenodd" d="M0 10.2451C0 9.78486 0.373096 9.41177 0.833333 9.41177V9.41177C1.29357 9.41177 1.66667 9.78486 1.66667 10.2451V10.4608C1.66667 10.921 1.29357 11.2941 0.833333 11.2941V11.2941C0.373096 11.2941 0 10.921 0 10.4608V10.2451Z" fill="black" fill-opacity="0.54"/>
<path fill-rule="evenodd" clip-rule="evenodd" d="M4.27452 11.2941C3.75472 11.2941 3.33334 10.8727 3.33334 10.3529V10.3529C3.33334 9.83314 3.75472 9.41177 4.27452 9.41177H19.0588C19.5786 9.41177 20 9.83314 20 10.3529V10.3529C20 10.8727 19.5786 11.2941 19.0588 11.2941H4.27452Z" fill="black" fill-opacity="0.54"/>
<path fill-rule="evenodd" clip-rule="evenodd" d="M0 14.0098C0 13.5496 0.373096 13.1765 0.833333 13.1765V13.1765C1.29357 13.1765 1.66667 13.5496 1.66667 14.0098V14.2255C1.66667 14.6857 1.29357 15.0588 0.833333 15.0588V15.0588C0.373096 15.0588 0 14.6857 0 14.2255V14.0098Z" fill="black" fill-opacity="0.54"/>
<path fill-rule="evenodd" clip-rule="evenodd" d="M4.27452 15.0588C3.75472 15.0588 3.33334 14.6374 3.33334 14.1176V14.1176C3.33334 13.5978 3.75472 13.1765 4.27452 13.1765H19.0588C19.5786 13.1765 20 13.5978 20 14.1176V14.1176C20 14.6374 19.5786 15.0588 19.0588 15.0588H4.27452Z" fill="black" fill-opacity="0.54"/>
</svg>
