<svg width="24" height="17" viewBox="0 0 24 17" fill="none" xmlns="http://www.w3.org/2000/svg">
<path fill-rule="evenodd" clip-rule="evenodd" d="M0 3C0 2.44772 0.447715 2 1 2V2C1.55228 2 2 2.44772 2 3V3C2 3.55228 1.55228 4 1 4V4C0.447715 4 0 3.55228 0 3V3Z" />
<path fill-rule="evenodd" clip-rule="evenodd" d="M5 4C4.44772 4 4 3.55228 4 3V3C4 2.44772 4.44772 2 5 2H23C23.5523 2 24 2.44772 24 3V3C24 3.55228 23.5523 4 23 4H5Z" />
<path fill-rule="evenodd" clip-rule="evenodd" d="M0 9C0 8.44772 0.447715 8 1 8V8C1.55228 8 2 8.44772 2 9V9C2 9.55228 1.55228 10 1 10V10C0.447715 10 0 9.55228 0 9V9Z" />
<path fill-rule="evenodd" clip-rule="evenodd" d="M5 10C4.44772 10 4 9.55228 4 9V9C4 8.44772 4.44772 8 5 8H23C23.5523 8 24 8.44772 24 9V9C24 9.55228 23.5523 10 23 10H5Z" />
<path fill-rule="evenodd" clip-rule="evenodd" d="M0 15C0 14.4477 0.447715 14 1 14V14C1.55228 14 2 14.4477 2 15V15C2 15.5523 1.55228 16 1 16V16C0.447715 16 0 15.5523 0 15V15Z" />
<path fill-rule="evenodd" clip-rule="evenodd" d="M5 16C4.44772 16 4 15.5523 4 15V15C4 14.4477 4.44772 14 5 14H23C23.5523 14 24 14.4477 24 15V15C24 15.5523 23.5523 16 23 16H5Z" />
</svg>
