
<svg width="12px" height="9px" viewBox="0 0 12 9" version="1.1" xmlns="http://www.w3.org/2000/svg" xmlns:xlink="http://www.w3.org/1999/xlink">
    <defs></defs>
    <g id="Modal" stroke="none" stroke-width="1" fill="none" fill-rule="evenodd">
        <g id="Group-6" transform="translate(-220.000000, -46.000000)" fill="#FFFFFF" fill-rule="nonzero">
            <path d="M230.632901,46.0005085 C230.28782,46.0097661 229.960197,46.142278 229.719393,46.3699905 C227.646188,48.2825316 226.047866,49.8861694 224.148379,51.6765215 L222.217555,50.1731118 C221.857479,49.8749957 221.349727,49.7808015 220.892316,49.9272634 C220.434904,50.0737253 220.10027,50.4376494 220.018916,50.8771107 C219.937561,51.3165719 220.122369,51.7619764 220.501268,52.039623 L223.380202,54.2819969 C223.908348,54.6933566 224.691016,54.6628804 225.179536,54.211933 C227.569184,52.0075163 229.267019,50.2501679 231.601773,48.0963738 C231.992031,47.7438989 232.107933,47.2073706 231.893855,46.7442766 C231.679777,46.2811825 231.179415,45.9860465 230.632901,46.0005085 Z" id="Shape"></path>
        </g>
    </g>
</svg>