
<svg width="11px" height="8px" viewBox="0 0 11 8" version="1.1" xmlns="http://www.w3.org/2000/svg" xmlns:xlink="http://www.w3.org/1999/xlink">
    <g id="right-menu" stroke="none" stroke-width="1" fill="none" fill-rule="evenodd">
        <g id="clic" transform="translate(-1198.000000, -148.000000)" fill="#686A6D" fill-rule="nonzero">
            <g id="Group-23" transform="translate(1196.000000, 73.000000)">
                <g id="noun_Check_2591260" transform="translate(2.000000, 75.000000)">
                    <path d="M10.2240769,0.197153846 C10.1496154,0.197153846 10.0751538,0.224230769 10.0133846,0.286 L3.56653846,6.69984615 L0.993384615,4.11146154 C0.870692308,3.98876923 0.689615385,3.99046154 0.567769231,4.10976923 C0.453538462,4.22230769 0.452692308,4.41015385 0.569461538,4.52946154 L3.34907692,7.32853846 C3.41253846,7.39115385 3.47938462,7.41569231 3.55976923,7.41569231 C3.63169231,7.41569231 3.70276923,7.39030769 3.76707692,7.32684615 L10.4271538,0.705692308 C10.5506923,0.582153846 10.5481538,0.405307692 10.4313846,0.283461538 C10.3696154,0.223384615 10.2976923,0.196307692 10.2240769,0.196307692 L10.2240769,0.197153846 Z" id="Shape"></path>
                </g>
            </g>
        </g>
    </g>
</svg>