
<svg width="10px" height="12px" viewBox="0 0 10 12" version="1.1" xmlns="http://www.w3.org/2000/svg" xmlns:xlink="http://www.w3.org/1999/xlink">
    <!-- Generator: Sketch 48.1 (47250) - http://www.bohemiancoding.com/sketch -->
    <desc>Created with Sketch.</desc>
    <defs></defs>
    <g id="Test-correos" stroke="none" stroke-width="1" fill="none" fill-rule="evenodd">
        <g id="Primera-iteration-Leire" transform="translate(-245.000000, -34.000000)" fill="#FFFFFF">
            <g id="paperclip27" transform="translate(245.000000, 34.000000)">
                <path d="M9.96572176,2.57084299 C9.89492516,1.88118959 9.56768623,1.26177978 9.04430446,0.826748065 L8.7431609,0.576367047 C8.29606017,0.2046727 7.73293086,0 7.15738783,0 C6.38983002,0 5.6737258,0.350248695 5.19265686,0.960995425 L0.562394087,6.83901242 C0.138204212,7.37736493 -0.0564938094,8.05329675 0.0142143318,8.74219289 C0.084922473,9.43102844 0.41257421,10.0503777 0.936781605,10.4861969 L1.23792516,10.736578 C1.68496692,11.1082723 2.24806674,11.312945 2.82346235,11.312945 C2.91230456,11.312945 3.00217879,11.3080682 3.09057871,11.2984359 C3.75708698,11.2262537 4.35722159,10.8935432 4.77869873,10.3637023 C4.78011407,10.362006 4.78093969,10.3610064 7.90247707,6.39883132 C8.45841173,5.69297252 8.3517303,4.65403971 7.66472906,4.08288263 L7.50688891,3.95175519 C7.22299484,3.71573185 6.86535554,3.58575545 6.49996134,3.58575545 C6.0126413,3.58575545 5.55796259,3.80817836 5.25248455,4.19595695 L2.13457398,8.15395197 C1.93085315,8.41263258 1.96992249,8.79338378 2.22173547,9.00272121 C2.32594005,9.08932166 2.45706561,9.13702915 2.5909334,9.13702915 C2.76926653,9.13702915 2.93583462,9.0555175 3.04797101,8.91321287 L6.16582262,4.95521785 C6.24738171,4.85171532 6.36886526,4.792346 6.49907675,4.792346 C6.59803276,4.792346 6.69094409,4.82611987 6.76778538,4.89000247 L6.92565501,5.02128136 C7.0143498,5.09500836 7.06978404,5.19999513 7.08178496,5.31697692 C7.0937564,5.43395871 7.06087917,5.54854756 6.98908004,5.63960071 L3.87479628,9.59311274 C3.61764628,9.9193411 3.23485517,10.1063847 2.82455334,10.106415 C2.51695228,10.106415 2.21595616,9.99703615 1.97699921,9.79833067 L1.67585565,9.54801024 C1.39561788,9.31498566 1.22043979,8.98385025 1.18266784,8.6156393 C1.14486641,8.24739807 1.24892355,7.88600248 1.47570266,7.59818245 L6.10599492,1.72022603 C6.36314492,1.39381594 6.74605398,1.20659055 7.15653272,1.20659055 C7.46416326,1.20659055 7.76518887,1.31596943 8.00408686,1.51461433 L8.30520092,1.76493477 C8.88369259,2.24585655 8.97347837,3.12055442 8.5053834,3.71479285 C8.40666327,3.84013481 8.36137232,3.99740292 8.37782567,4.15773038 C8.39430852,4.31802754 8.47056008,4.46217988 8.59248592,4.56353179 C8.69671998,4.65016253 8.82784555,4.69790031 8.96171334,4.69790031 L8.96171334,4.69790031 C9.14004646,4.69790031 9.30658507,4.61632808 9.41869197,4.47405375 C9.84226264,3.93639792 10.0365478,3.2604661 9.96572176,2.57084299 L9.96572176,2.57084299 Z" id="Shape"></path>
            </g>
        </g>
    </g>
</svg>