
<svg width="13px" height="13px" viewBox="0 0 13 13" version="1.1" xmlns="http://www.w3.org/2000/svg" xmlns:xlink="http://www.w3.org/1999/xlink">
    <g id="Text2text-/-Done" stroke="none" stroke-width="1" fill="none" fill-rule="evenodd">
        <g id="explore" transform="translate(-1063.000000, -2223.000000)" fill="#FFFFFF" fill-rule="nonzero">
            <g id="noun_Pending-message_1356657" transform="translate(1063.000000, 2223.000000)">
                <g id="Group">
                    <path d="M10.1278667,0.216666667 L2.87213333,0.216666667 C1.313,0.216666667 0.0914333333,1.8408 0.0914333333,3.91386667 L0.0914333333,9.08613333 C0.0914333333,11.1596333 1.313,12.7833333 2.87213333,12.7833333 L10.1278667,12.7833333 C11.6874333,12.7833333 12.9085667,11.1592 12.9085667,9.08613333 L12.9085667,3.91386667 C12.9085667,1.8408 11.6874333,0.216666667 10.1278667,0.216666667 Z M11.1752333,9.08613333 C11.1752333,10.192 10.6123333,11.05 10.1278667,11.05 L2.87213333,11.05 C2.38766667,11.05 1.82476667,10.192 1.82476667,9.08613333 L1.82476667,3.91386667 C1.82476667,2.808 2.38766667,1.95 2.87213333,1.95 L10.1278667,1.95 C10.6123333,1.95 11.1752333,2.808 11.1752333,3.91386667 L11.1752333,9.08613333 Z" id="Shape"></path>
                    <path d="M7.74669396,5.67619832 L7.13491208,5.67619832 L7.13491208,5.14760604 C7.13491208,4.70817391 6.77866955,4.35153333 6.33883937,4.35153333 C5.8990092,4.35153333 5.54276667,4.70817391 5.54276667,5.14760604 L5.54276667,6.47028085 C5.54276667,6.90971298 5.89940724,7.26635355 6.33883937,7.26635355 C6.34998439,7.26635355 6.36073137,7.2635673 6.37187639,7.26316926 C6.38938999,7.26436337 6.40610752,7.26834374 6.42401915,7.26834374 L7.74669396,7.26834374 C8.18612609,7.26834374 8.54276667,6.91170316 8.54276667,6.47227103 C8.54276667,6.03283889 8.18652413,5.67619832 7.74669396,5.67619832 Z" id="Shape"></path>
                </g>
            </g>
        </g>
    </g>
</svg>