
<svg width="14px" height="14px" viewBox="0 0 14 14" version="1.1" xmlns="http://www.w3.org/2000/svg" xmlns:xlink="http://www.w3.org/1999/xlink">
    <g id="Weak-supervision" stroke="none" stroke-width="1" fill="none" fill-rule="evenodd">
        <g id="No-query" transform="translate(-760.000000, -97.000000)" fill="#4C4EA3" fill-rule="nonzero">
            <g id="Group-17" transform="translate(760.000000, 93.000000)">
                <g id="noun_Settings_1337506" transform="translate(0.000000, 4.000000)">
                    <path d="M0.610315246,7.9340982 L1.33609554,7.9340982 C1.58352064,7.9340982 1.81445073,8.09904827 1.89692577,8.32997836 C1.94641079,8.46193842 1.99589581,8.61039348 2.06187583,8.74235353 C2.17734088,8.97328362 2.12785586,9.23720373 1.94641079,9.4186488 L1.43506558,9.92999401 C1.20413549,10.1609241 1.20413549,10.5403093 1.43506558,10.7712393 L2.45775599,11.7939298 C2.68868609,12.0248599 3.06807124,12.0248599 3.29900133,11.7939298 L3.81034654,11.2825846 C3.99179161,11.1011395 4.25571172,11.0681495 4.48664181,11.1671195 C4.61860186,11.2330995 4.75056192,11.2825846 4.89901698,11.3320696 C5.12994707,11.4145446 5.29489714,11.6454747 5.29489714,11.8928998 L5.29489714,12.6186801 C5.29489714,12.9485802 5.55881724,13.2125003 5.88871738,13.2125003 L7.34027796,13.2125003 C7.6701781,13.2125003 7.9340982,12.9485802 7.9340982,12.6186801 L7.9340982,11.8928998 C7.9340982,11.6454747 8.09904827,11.4145446 8.32997836,11.3320696 C8.46193842,11.2825846 8.61039348,11.2330995 8.74235353,11.1671195 C8.97328362,11.0516545 9.23720373,11.1011395 9.4186488,11.2825846 L9.92999401,11.7939298 C10.1609241,12.0248599 10.5403093,12.0248599 10.7712393,11.7939298 L11.7939298,10.7712393 C12.0248599,10.5403093 12.0248599,10.1609241 11.7939298,9.92999401 L11.2825846,9.4186488 C11.1011395,9.23720373 11.0681495,8.97328362 11.1671195,8.74235353 C11.2330995,8.61039348 11.2825846,8.47843342 11.3320696,8.32997836 C11.4145446,8.09904827 11.6454747,7.9340982 11.8928998,7.9340982 L12.6186801,7.9340982 C12.9485802,7.9340982 13.2125003,7.6701781 13.2125003,7.34027796 L13.2125003,5.88871738 C13.2125003,5.55881724 12.9485802,5.29489714 12.6186801,5.29489714 L11.8928998,5.29489714 C11.6454747,5.29489714 11.4145446,5.12994707 11.3320696,4.89901698 C11.2825846,4.76705692 11.2330995,4.61860186 11.1671195,4.48664181 C11.0516545,4.25571172 11.1011395,3.99179161 11.2825846,3.81034654 L11.7939298,3.29900133 C12.0248599,3.06807124 12.0248599,2.68868609 11.7939298,2.45775599 L10.7712393,1.43506558 C10.5403093,1.20413549 10.1609241,1.20413549 9.92999401,1.43506558 L9.4186488,1.94641079 C9.23720373,2.12785586 8.97328362,2.16084587 8.74235353,2.06187583 C8.61039348,1.99589581 8.47843342,1.94641079 8.32997836,1.89692577 C8.09904827,1.79795573 7.9340982,1.58352064 7.9340982,1.31960053 L7.9340982,0.59382024 C7.9340982,0.263920107 7.6701781,0 7.34027796,0 L5.88871738,0 C5.55881724,0 5.29489714,0.263920107 5.29489714,0.59382024 L5.29489714,1.31960053 C5.29489714,1.56702563 5.12994707,1.79795573 4.89901698,1.88043076 C4.76705692,1.92991578 4.61860186,1.9794008 4.48664181,2.04538083 C4.25571172,2.16084587 3.99179161,2.11136085 3.81034654,1.92991578 L3.29900133,1.41857057 C3.06807124,1.18764048 2.68868609,1.18764048 2.45775599,1.41857057 L1.43506558,2.44126099 C1.20413549,2.67219108 1.20413549,3.05157623 1.43506558,3.28250633 L1.94641079,3.79385153 C2.12785586,3.9752966 2.16084587,4.23921671 2.06187583,4.4701468 C1.99589581,4.60210686 1.94641079,4.73406691 1.89692577,4.88252197 C1.79795573,5.12994707 1.58352064,5.29489714 1.31960053,5.29489714 L0.59382024,5.29489714 C0.263920107,5.29489714 0,5.55881724 0,5.88871738 L0,7.34027796 C0.0164950067,7.6701781 0.280415113,7.9340982 0.610315246,7.9340982 Z M6.61449767,4.4701468 C7.80213815,4.4701468 8.75884854,5.42685719 8.75884854,6.61449767 C8.75884854,7.80213815 7.80213815,8.75884854 6.61449767,8.75884854 C5.42685719,8.75884854 4.4701468,7.80213815 4.4701468,6.61449767 C4.4701468,5.42685719 5.42685719,4.4701468 6.61449767,4.4701468 Z" id="Shape"></path>
                </g>
            </g>
        </g>
    </g>
</svg>