
<svg width="11px" height="13px" viewBox="0 0 11 13" version="1.1" xmlns="http://www.w3.org/2000/svg" xmlns:xlink="http://www.w3.org/1999/xlink">
    <g id="Rubrix" stroke="none" stroke-width="1" fill="none" fill-rule="evenodd">
        <g id="List" transform="translate(-1398.000000, -224.000000)" fill="#0508D9" fill-rule="nonzero">
            <g id="Group-11" transform="translate(1283.000000, 224.000000)">
                <g id="noun_copy_1872451" transform="translate(115.000000, 0.000000)">
                    <g id="Group-12" transform="translate(0.388235, 0.000000)">
                        <path d="M9.57339367,0.0916289593 L2.13128959,0.0916289593 C1.7858639,0.0916274826 1.50555753,0.37111425 1.50454751,0.716538462 L1.50454751,10.2001357 C1.50555753,10.54556 1.7858639,10.8250467 2.13128959,10.8250452 L9.57339367,10.8250452 C9.91852165,10.8250452 10.1983032,10.5452637 10.1983032,10.2001357 L10.1983032,0.716538462 C10.1983032,0.371410473 9.91852165,0.0916289593 9.57339367,0.0916289593 Z M9.64852941,10.2001357 C9.64756221,10.2412248 9.6144827,10.2743043 9.57339367,10.2752715 L2.13128959,10.2752715 C2.08948666,10.2752833 2.05531657,10.2419268 2.05432127,10.2001357 L2.05432127,0.716538462 C2.05531657,0.674747381 2.08948666,0.641390864 2.13128959,0.641402715 L9.57339367,0.641402715 C9.6144827,0.642369914 9.64756221,0.675449429 9.64852941,0.716538462 L9.64852941,10.2001357 Z" id="Shape"></path>
                        <path d="M8.14581448,11.8201357 L0.67438914,11.8201357 C0.648733032,11.8201357 0.613914027,11.7853167 0.613914027,11.7321719 L0.613914027,2.27972851 C0.613914021,2.12791268 0.490842975,2.00484164 0.339027149,2.00484164 C0.187211323,2.00484164 0.0641402779,2.12791268 0.0641402715,2.27972851 L0.0641402715,11.7285068 C0.0569747009,12.0729633 0.329951176,12.358236 0.67438914,12.3662443 L8.14581448,12.3662443 C8.29763031,12.3662443 8.42070136,12.2431733 8.42070136,12.0913575 C8.42070136,11.9395416 8.29763031,11.8164706 8.14581448,11.8164706 L8.14581448,11.8201357 Z" id="Shape"></path>
                    </g>
                </g>
            </g>
        </g>
    </g>
</svg>