
<svg width="20px" height="7px" viewBox="0 0 20 7" version="1.1" xmlns="http://www.w3.org/2000/svg" xmlns:xlink="http://www.w3.org/1999/xlink">
    <!-- Generator: Sketch 48.1 (47250) - http://www.bohemiancoding.com/sketch -->
    <desc>Created with Sketch.</desc>
    <defs></defs>
    <g id="Dashboard" stroke="none" stroke-width="1" fill="none" fill-rule="evenodd">
        <g id="DASHBOARD" transform="translate(-1141.000000, -380.000000)" fill="#F38959" fill-rule="nonzero">
            <g id="Group-13" transform="translate(112.000000, 325.000000)">
                <g id="Result-1">
                    <g id="Group-19" transform="translate(981.000000, 0.000000)">
                        <g id="noun_Link_509131" transform="translate(48.000000, 15.000000)">
                            <g id="link-icon" transform="translate(0.000000, 40.000000)">
                                <g id="Group">
                                    <path d="M5.57777778,4.31111111 C5.57777778,4.2 5.57777778,4.06666667 5.6,3.95555556 L2.37777778,3.95555556 C1.51111111,3.95555556 0.8,3.24444444 0.8,2.37777778 C0.8,1.51111111 1.51111111,0.8 2.37777778,0.8 L6.95555556,0.8 L7.11111111,0.8 L11.6888889,0.8 C12.2666667,0.8 12.7777778,1.11111111 13.0444444,1.57777778 L13.9111111,1.57777778 C13.5777778,0.666666667 12.7111111,0.0222222222 11.6888889,0.0222222222 L7.11111111,0.0222222222 L6.95555556,0.0222222222 L2.37777778,0.0222222222 C1.06666667,2.98372438e-16 0.0222222222,1.06666667 0.0222222222,2.35555556 C0.0222222222,3.66666667 1.08888889,4.71111111 2.37777778,4.71111111 L5.6,4.71111111 C5.57777778,4.6 5.57777778,4.44444444 5.57777778,4.31111111 Z" id="Shape"></path>
                                </g>
                                <path d="M17.6481775,2 L13.0776545,2 L12.9223455,2 L8.3518225,2 C7.04278922,2 6,3.13207547 6,4.5 C6,5.89150943 7.06497623,7 8.3518225,7 L12.9223455,7 L13.0776545,7 L17.6481775,7 C18.9572108,7 20,5.86792453 20,4.5 C20,3.13207547 18.9572108,2 17.6481775,2 Z M17.6481775,6.19811321 L13.0776545,6.19811321 L12.9223455,6.19811321 L8.3518225,6.19811321 C7.48652932,6.19811321 6.77654517,5.44339623 6.77654517,4.52358491 C6.77654517,3.60377358 7.48652932,2.8490566 8.3518225,2.8490566 L12.9223455,2.8490566 L13.0776545,2.8490566 L17.6481775,2.8490566 C18.5134707,2.8490566 19.2234548,3.60377358 19.2234548,4.52358491 C19.2234548,5.44339623 18.5134707,6.19811321 17.6481775,6.19811321 Z" id="Shape"></path>
                            </g>
                        </g>
                    </g>
                </g>
            </g>
        </g>
    </g>
</svg>