
<svg width="12px" height="12px" viewBox="0 0 12 12" version="1.1" xmlns="http://www.w3.org/2000/svg" xmlns:xlink="http://www.w3.org/1999/xlink">
    <g id="Rubrix" stroke="none" stroke-width="1" fill="none" fill-rule="evenodd">
        <g id="List" transform="translate(-1394.000000, -225.000000)" fill="#000000" fill-rule="nonzero">
            <g id="Group-11" transform="translate(1283.000000, 224.000000)">
                <g id="Group-7" transform="translate(70.000000, 0.000000)">
                    <g id="noun_link_524480" transform="translate(41.000000, 1.000000)">
                        <g id="Group">
                            <g id="Shape">
                                <path d="M8.34285714,7.02857143 C8.25714286,7.02857143 8.2,7 8.14285714,6.94285714 C8.02857143,6.82857143 8.02857143,6.65714286 8.14285714,6.54285714 L10.8285714,3.85714286 C11.5714286,3.11428571 11.5714286,1.91428571 10.8285714,1.17142857 C10.0857143,0.428571429 8.88571429,0.428571429 8.14285714,1.17142857 L5.45714286,3.85714286 C5.34285714,3.97142857 5.17142857,3.97142857 5.05714286,3.85714286 C4.94285714,3.74285714 4.94285714,3.57142857 5.05714286,3.45714286 L7.74285714,0.771428571 C8.71428571,-0.2 10.2857143,-0.2 11.2285714,0.771428571 C12.2,1.74285714 12.2,3.31428571 11.2285714,4.25714286 L8.57142857,6.94285714 C8.51428571,7 8.42857143,7.02857143 8.34285714,7.02857143 Z"></path>
                                <path d="M2.48571429,11.9714286 C1.82857143,11.9714286 1.2,11.7142857 0.742857143,11.2571429 C0.285714286,10.8 0.0285714286,10.1714286 0.0285714286,9.51428571 C0.0285714286,8.85714286 0.285714286,8.22857143 0.742857143,7.77142857 L3.42857143,5.08571429 C3.54285714,4.97142857 3.71428571,4.97142857 3.82857143,5.08571429 C3.94285714,5.2 3.94285714,5.37142857 3.82857143,5.48571429 L1.14285714,8.17142857 C0.771428571,8.54285714 0.571428571,9 0.571428571,9.51428571 C0.571428571,10.0285714 0.771428571,10.5142857 1.14285714,10.8571429 C1.51428571,11.2285714 1.97142857,11.4285714 2.48571429,11.4285714 C2.48571429,11.4285714 2.48571429,11.4285714 2.48571429,11.4285714 C3,11.4285714 3.48571429,11.2285714 3.82857143,10.8571429 L6.51428571,8.17142857 C6.62857143,8.05714286 6.8,8.05714286 6.91428571,8.17142857 C7.02857143,8.28571429 7.02857143,8.45714286 6.91428571,8.57142857 L4.22857143,11.2571429 C3.77142857,11.7142857 3.17142857,11.9714286 2.48571429,11.9714286 Z"></path>
                            </g>
                            <path d="M2.94285714,9.28571429 C2.85714286,9.28571429 2.8,9.25714286 2.74285714,9.2 C2.62857143,9.08571429 2.62857143,8.91428571 2.74285714,8.8 L8.6,2.94285714 C8.71428571,2.82857143 8.88571429,2.82857143 9,2.94285714 C9.11428571,3.05714286 9.11428571,3.22857143 9,3.34285714 L3.14285714,9.2 C3.08571429,9.25714286 3.02857143,9.28571429 2.94285714,9.28571429 Z" id="Shape"></path>
                        </g>
                    </g>
                </g>
            </g>
        </g>
    </g>
</svg>