
<svg width="39px" height="32px" viewBox="0 0 39 32" version="1.1" xmlns="http://www.w3.org/2000/svg" xmlns:xlink="http://www.w3.org/1999/xlink">
    <!-- Generator: Sketch 48.1 (47250) - http://www.bohemiancoding.com/sketch -->
    <desc>Created with Sketch.</desc>
    <defs></defs>
    <g id="Master-Ecosystem--flow" stroke="none" stroke-width="1" fill="none" fill-rule="evenodd">
        <g id="Eco-5" transform="translate(-1082.000000, -159.000000)" fill="#3B3269" fill-rule="nonzero">
            <g id="mini-modal" transform="translate(804.000000, 102.000000)">
                <g id="Group" transform="translate(234.000000, 57.000000)">
                    <g id="noun_166559_cc" transform="translate(44.000000, 0.000000)">
                        <path d="M24.4515375,19.3123125 L20.3516625,15.2134125 C20.3506875,15.2124375 20.3497125,15.2114625 20.34825,15.2104875 L19.2869625,14.1492 L18.2251875,15.2114625 C18.2247,15.2114625 18.2242125,15.21195 18.2242125,15.2124375 L14.1253125,19.3123125 C13.5383625,19.8992625 13.5383625,20.850375 14.1253125,21.437325 C14.7122625,22.024275 15.66435,22.024275 16.250325,21.437325 L17.784,19.9031625 L17.784,29.8852125 C17.784,30.71445 18.45675,31.3876875 19.2869625,31.3876875 C20.1166875,31.3876875 20.789925,30.71445 20.789925,29.8852125 L20.789925,19.9017 L22.32555,21.437325 C22.6195125,21.7308 23.0036625,21.87705 23.3883,21.87705 C23.7729375,21.87705 24.1570875,21.7303125 24.45105,21.437325 C25.0384875,20.850375 25.0384875,19.8992625 24.4515375,19.3123125 Z" id="Shape"></path>
                        <path d="M8.5990125,26.9075625 C8.5658625,26.9075625 8.5327125,26.9065875 8.499075,26.9046375 C3.7503375,26.593125 0.0307125,22.622925 0.0307125,17.8659 C0.0307125,13.372125 3.31695,9.632025 7.6128,8.9217375 C7.917,4.195425 11.85795,0.4441125 16.659825,0.4441125 C18.9398625,0.4441125 21.11265,1.2991875 22.7735625,2.8221375 C27.43845,0.936975 32.431425,2.04555 35.206275,5.6915625 C37.0387875,8.0988375 37.6384125,11.2792875 36.89985,14.528475 C37.955775,15.8067 38.546625,17.4252 38.546625,19.0900125 C38.546625,23.0446125 35.3286375,26.261625 31.3730625,26.261625 C30.136275,26.261625 28.9131375,25.93695 27.8338125,25.323675 C27.1123125,24.9136875 26.8597875,23.995725 27.27075,23.2747125 C27.6807375,22.55175 28.60065,22.299225 29.319225,22.7111625 C29.94615,23.0670375 30.6564375,23.2561875 31.3730625,23.2561875 C33.6711375,23.2561875 35.5411875,21.3876 35.5411875,19.0900125 C35.5411875,17.9278125 35.0683125,16.8475125 34.2112875,16.047525 L33.53025,15.4113375 L33.796425,14.518725 C34.576425,11.909625 34.2181125,9.3561 32.8150875,7.5118875 C30.727125,4.7697 26.73645,4.134975 23.1075,5.9684625 L22.0491375,6.504225 L21.2818125,5.59845 C20.1274125,4.23345 18.442125,3.4500375 16.6603125,3.4500375 C13.3185,3.4500375 10.6002,6.168825 10.6002,9.51015 C10.6002,9.7231875 10.6104375,9.9318375 10.6338375,10.1375625 L10.8220125,11.8087125 L9.0133875,11.804325 C5.755425,11.8067625 3.037125,14.5250625 3.037125,17.866875 C3.037125,21.0458625 5.523375,23.69835 8.6965125,23.906025 C9.524775,23.960625 10.1517,24.6757875 10.0975875,25.5035625 C10.0449375,26.2981875 9.384375,26.9075625 8.5990125,26.9075625 Z" id="Shape"></path>
                    </g>
                </g>
            </g>
        </g>
    </g>
</svg>