
<svg width="12px" height="12px" viewBox="0 0 12 12" version="1.1" xmlns="http://www.w3.org/2000/svg" xmlns:xlink="http://www.w3.org/1999/xlink">
    <!-- Generator: Sketch 48.1 (47250) - http://www.bohemiancoding.com/sketch -->
    <desc>Created with Sketch.</desc>
    <defs></defs>
    <g id="*Annotation-" stroke="none" stroke-width="1" fill="none" fill-rule="evenodd">
        <g id="Advance-search" transform="translate(-1239.000000, -128.000000)" fill="#232425" fill-rule="nonzero">
            <g id="noun_Cross_1776318" transform="translate(1239.000000, 128.000000)">
                <g id="Group" transform="translate(0.000000, 0.136676)">
                    <path d="M10.4918617,0.188276786 L5.79463527,4.88550536 L1.09742598,0.188298214 C0.846368839,-0.0627589286 0.439345982,-0.0627589286 0.188288839,0.188298214 C-0.0627554464,0.439355357 -0.0627704464,0.846369643 0.188288839,1.09744821 L4.88549813,5.79464679 L0.188303839,10.4918325 C-0.062746875,10.7428896 -0.0627383035,11.1499254 0.188303839,11.4009611 C0.439363125,11.6520182 0.846392411,11.6520182 1.09744098,11.4009611 L5.79463313,6.70377536 L10.4918467,11.4009825 C10.7429017,11.6520396 11.1499374,11.6520396 11.4009817,11.4009825 C11.6520388,11.1499254 11.652041,10.7429111 11.4009817,10.4918539 L6.70377241,5.79464679 L11.4009988,1.09742679 C11.6520474,0.846369643 11.652056,0.439333929 11.4009967,0.188276786 C11.1499546,-0.0627589286 10.7429081,-0.0627589286 10.4918617,0.188276786 Z" id="Shape"></path>
                </g>
            </g>
        </g>
    </g>
</svg>