<svg width="41" height="40" viewBox="0 0 41 40" fill="none" xmlns="http://www.w3.org/2000/svg">
<path d="M20.5 11C21.3284 11 22 11.6716 22 12.5V21.5C22 22.3284 21.3284 23 20.5 23C19.6716 23 19 22.3284 19 21.5V12.5C19 11.6716 19.6716 11 20.5 11Z" fill="black"/>
<path d="M20.5 26C19.6716 26 19 26.6716 19 27.5C19 28.3284 19.6716 29 20.5 29C21.3284 29 22 28.3284 22 27.5C22 26.6716 21.3284 26 20.5 26Z" fill="black"/>
<path fill-rule="evenodd" clip-rule="evenodd" d="M20.5 5C12.2157 5 5.5 11.7157 5.5 20C5.5 28.2843 12.2157 35 20.5 35C28.7843 35 35.5 28.2843 35.5 20C35.5 11.7157 28.7843 5 20.5 5ZM8.5 20C8.5 26.6274 13.8726 32 20.5 32C27.1274 32 32.5 26.6274 32.5 20C32.5 13.3726 27.1274 8 20.5 8C13.8726 8 8.5 13.3726 8.5 20Z" fill="black"/>
</svg>
