
<svg width="36px" height="27px" viewBox="0 0 36 27" version="1.1" xmlns="http://www.w3.org/2000/svg" xmlns:xlink="http://www.w3.org/1999/xlink">
    <g id="Rubrix" stroke="none" stroke-width="1" fill="none" fill-rule="evenodd">
        <g id="List--Copy" transform="translate(-755.000000, -138.000000)" fill="#6B6B6C" fill-rule="nonzero">
            <g id="Group-2" transform="translate(535.000000, 138.000000)">
                <g id="Group">
                    <g id="noun_empty-folder_355738" transform="translate(220.000000, 0.000000)">
                        <path d="M28.3255385,11.7992308 C28.3250769,11.7987692 28.3250769,11.7983077 28.3246154,11.7978462 C28.3241538,11.7973846 28.3236923,11.7973846 28.3232308,11.7973846 C27.0198462,10.494 25.2203077,9.68676923 23.2361538,9.68676923 C19.2664615,9.68676923 16.0370769,12.9161538 16.0370769,16.8858462 C16.0370769,18.8644615 16.8401538,20.6584615 18.1366154,21.9613846 C18.1407692,21.966 18.1421538,21.9715385 18.1463077,21.9761538 C18.1509231,21.9807692 18.1564615,21.9821538 18.1610769,21.9858462 C19.4635385,23.2818462 21.2575385,24.0844615 23.2356923,24.0844615 C27.2053846,24.0844615 30.4347692,20.8550769 30.4347692,16.8858462 C30.4347692,14.9016923 29.628,13.1026154 28.3255385,11.7992308 Z M23.2361538,10.3790769 C24.906,10.3790769 26.4258462,11.0164615 27.5787692,12.0544615 L18.4047692,21.228 C17.3672308,20.0746154 16.7293846,18.5547692 16.7293846,16.8853846 C16.7293846,13.2978462 19.6481538,10.3790769 23.2361538,10.3790769 Z M23.2361538,23.3916923 C21.5667692,23.3916923 20.0473846,22.7543077 18.8944615,21.7172308 L28.0684615,12.5436923 C29.1055385,13.6966154 29.7429231,15.2164615 29.7429231,16.8853846 C29.7424615,20.4729231 26.8236923,23.3916923 23.2361538,23.3916923 Z" id="Shape"></path>
                        <path d="M3.22107692,26.7244615 L34.7307692,26.7244615 C35.3870769,26.7244615 35.9210769,26.1904615 35.9192308,25.4990769 L35.8670769,24.9955385 L35.9210769,24.9955385 L35.9210769,3.76338462 C35.9210769,3.10753846 35.3870769,2.57353846 34.7307692,2.57353846 L15.222,2.57353846 L14.8075385,1.14876923 C14.5864615,0.426461538 14.1913846,0.06 13.6329231,0.06 L4.42846154,0.06 C3.77215385,0.06 3.23815385,0.594 3.23815385,1.24984615 L3.23815385,8.57307692 L3.93046154,8.57307692 L3.93046154,1.24984615 C3.93046154,0.975692308 4.15384615,0.752307692 4.42846154,0.752307692 L13.6329231,0.752307692 C13.7395385,0.752307692 13.9624615,0.752307692 14.1443077,1.34676923 L14.6298462,3.01661538 C14.6727692,3.16430769 14.808,3.26630769 14.9621538,3.26630769 L34.7303077,3.26630769 C35.0049231,3.26630769 35.2283077,3.48969231 35.2283077,3.76384615 L35.2283077,18.8372308 L34.1081538,8.03076923 C34.104,7.99061538 34.0929231,7.95184615 34.0753846,7.91538462 C34.0047692,7.76907692 33.9069231,7.632 33.7924615,7.51892308 C33.5575385,7.28676923 33.2598462,7.16169231 32.9247692,7.15661538 L12.9923077,7.14738462 C12.8381538,7.14738462 12.7029231,7.24892308 12.6595385,7.39707692 L12.2649231,8.75723077 C12.0147692,9.56723077 11.6206154,9.66092308 11.346,9.66092308 L0.565846154,9.67476923 C0.467076923,9.67476923 0.373384615,9.71723077 0.307384615,9.79107692 C0.241384615,9.86492308 0.210923077,9.96323077 0.222,10.0610769 L2.03030769,25.5346154 C2.03030769,26.1904615 2.56476923,26.7244615 3.22107692,26.7244615 Z M11.3464615,10.3527692 C11.8712308,10.3527692 12.5713846,10.1113846 12.9286154,8.95523077 L13.2526154,7.83969231 L32.9192308,7.84846154 C33.0710769,7.85076923 33.1975385,7.90384615 33.3055385,8.01046154 C33.3512308,8.05569231 33.3927692,8.11061538 33.4264615,8.16830769 L35.2283077,25.5346154 C35.2283077,25.8092308 35.0049231,26.0321538 34.7303077,26.0321538 L3.22107692,26.0321538 C2.94646154,26.0321538 2.72307692,25.8092308 2.72076923,25.4944615 L0.954923077,10.3661538 L11.3464615,10.3527692 Z" id="Shape"></path>
                    </g>
                </g>
            </g>
        </g>
    </g>
</svg>