
<svg width="25px" height="22px" viewBox="0 0 25 22" version="1.1" xmlns="http://www.w3.org/2000/svg" xmlns:xlink="http://www.w3.org/1999/xlink">
    <!-- Generator: Sketch 48.1 (47250) - http://www.bohemiancoding.com/sketch -->
    <desc>Created with Sketch.</desc>
    <defs></defs>
    <g id="Dashboard-final" stroke="none" stroke-width="1" fill="none" fill-rule="evenodd">
        <g id="DB-menu-profile" transform="translate(-701.000000, -287.000000)" fill="#0D0D0D">
            <path d="M716.868,286.9996 L713.185,291.4896 L709.868,286.9996 L701,297.8136 L709.846,308.6006 L713.357,304.3466 L716.845,308.6006 L725.281,298.3836 L716.868,286.9996 Z M714.006,303.5606 L718.281,298.3836 L713.799,292.3196 L716.827,288.6266 L724.012,298.3506 L716.849,307.0266 L714.006,303.5606 Z M702.293,297.8136 L709.826,288.6266 L712.532,292.2876 L708,297.8136 L712.712,303.5586 L709.849,307.0266 L702.293,297.8136 Z M709.293,297.8136 L713.145,293.1166 L717.012,298.3506 L713.361,302.7726 L709.293,297.8136 Z" id="Page-1"></path>
        </g>
    </g>
</svg>