
<svg width="17px" height="18px" viewBox="0 0 17 18" version="1.1" xmlns="http://www.w3.org/2000/svg" xmlns:xlink="http://www.w3.org/1999/xlink">
    <!-- Generator: Sketch 48.1 (47250) - http://www.bohemiancoding.com/sketch -->
    <desc>Created with Sketch.</desc>
    <defs></defs>
    <g id="Matching-(Correos)" stroke="none" stroke-width="1" fill="none" fill-rule="evenodd">
        <g id="FileList-Copy" transform="translate(-618.000000, -372.000000)" fill="#4A4A4A" fill-rule="nonzero">
            <g id="noun_Delete_1399672" transform="translate(618.000000, 372.000000)">
                <g id="Group">
                    <path d="M16.1324627,2.85970149 L11.2563433,2.85970149 L11.2563433,1.67761194 C11.2563433,0.8615494 10.5947939,0.2 9.77873134,0.2 L6.97126866,0.2 C6.15520612,0.2 5.49365672,0.8615494 5.49365672,1.67761194 L5.49365672,2.85970149 L0.617537313,2.85970149 C0.345516467,2.85970149 0.125,3.08021796 0.125,3.35223881 C0.125,3.62425965 0.345516467,3.84477612 0.617537313,3.84477612 L2.36604478,3.84477612 L2.36604478,15.0746269 C2.36604478,15.727772 2.62550565,16.3541659 3.08734897,16.8160092 C3.54919229,17.2778526 4.17558626,17.5373134 4.82873134,17.5373134 L11.9212687,17.5373134 C13.2813729,17.5373134 14.3839552,16.4347311 14.3839552,15.0746269 L14.3839552,3.84477612 L16.1324627,3.84477612 C16.4044835,3.84477612 16.625,3.62425965 16.625,3.35223881 C16.625,3.08021796 16.4044835,2.85970149 16.1324627,2.85970149 Z M6.47873134,1.67761194 C6.47873134,1.40559109 6.69924781,1.18507463 6.97126866,1.18507463 L9.77873134,1.18507463 C10.0507522,1.18507463 10.2712687,1.40559109 10.2712687,1.67761194 L10.2712687,2.85970149 L6.47873134,2.85970149 L6.47873134,1.67761194 Z M13.3742537,15.0992537 C13.3742537,15.9153163 12.7127043,16.5768657 11.8966418,16.5768657 L4.82873134,16.5768657 C4.0126688,16.5768657 3.3511194,15.9153163 3.3511194,15.0992537 L3.3511194,3.84477612 L13.3988806,3.84477612 L13.3742537,15.0992537 Z" id="Shape"></path>
                    <path d="M10.375,14.5 C10.6511424,14.5 10.875,14.2761424 10.875,14 L10.875,6.525 C10.875,6.24885763 10.6511424,6.025 10.375,6.025 C10.0988576,6.025 9.875,6.24885763 9.875,6.525 L9.875,14 C9.875,14.2761424 10.0988576,14.5 10.375,14.5 Z" id="Shape"></path>
                    <path d="M6.625,14.5 C6.90114237,14.5 7.125,14.2761424 7.125,14 L7.125,6.525 C7.125,6.24885763 6.90114237,6.025 6.625,6.025 C6.34885763,6.025 6.125,6.24885763 6.125,6.525 L6.125,14 C6.125,14.2761424 6.34885763,14.5 6.625,14.5 Z" id="Shape"></path>
                </g>
            </g>
        </g>
    </g>
</svg>