<svg width="30" height="30" viewBox="0 0 30 30" fill="none" xmlns="http://www.w3.org/2000/svg">
<path fill-rule="evenodd" clip-rule="evenodd" d="M4.3934 4.3934C-1.46447 10.2513 -1.46447 19.7487 4.3934 25.6066C10.2513 31.4645 19.7487 31.4645 25.6066 25.6066C31.4645 19.7487 31.4645 10.2513 25.6066 4.3934C19.7487 -1.46447 10.2513 -1.46447 4.3934 4.3934ZM8.01248 24.3445L24.3445 8.01248C27.7706 12.5822 27.4056 19.0936 23.2496 23.2496C19.0936 27.4056 12.5822 27.7706 8.01248 24.3445ZM6.75042 6.75042C2.59443 10.9064 2.22944 17.4178 5.65545 21.9875L21.9875 5.65545C17.4178 2.22944 10.9064 2.59443 6.75042 6.75042Z" fill="black"/>
</svg>
