<svg width="16" height="16" viewBox="0 0 16 16" fill="none" xmlns="http://www.w3.org/2000/svg">
<path fill-rule="evenodd" clip-rule="evenodd" d="M13.3033 2.6967C16.2322 5.62563 16.2322 10.3744 13.3033 13.3033C10.3744 16.2322 5.62563 16.2322 2.6967 13.3033C-0.232233 10.3744 -0.232233 5.62563 2.6967 2.6967C5.62563 -0.232233 10.3744 -0.232233 13.3033 2.6967ZM11.4938 12.6723L3.32773 4.50624C1.61472 6.79109 1.79722 10.0468 3.87521 12.1248C5.9532 14.2028 9.20891 14.3853 11.4938 12.6723ZM12.1248 3.87521C14.2028 5.9532 14.3853 9.20891 12.6723 11.4938L4.50624 3.32773C6.79109 1.61472 10.0468 1.79722 12.1248 3.87521Z" fill="black"/>
</svg>
