
<svg width="12px" height="16px" viewBox="0 0 12 16" version="1.1" xmlns="http://www.w3.org/2000/svg" xmlns:xlink="http://www.w3.org/1999/xlink">
    <g id="Workspace-flow" stroke="none" stroke-width="1" fill="none" fill-rule="evenodd">
        <g id="1" transform="translate(-1325.000000, -114.000000)" fill="#4A4A4A" fill-rule="nonzero">
            <g id="Group-17" transform="translate(1325.000000, 114.000000)">
                <g id="noun-external-link-346751">
                    <path d="M10.6192568,5.64729891 L8.8181658,5.64729891 C8.56086471,5.64729891 8.35040258,5.8489354 8.35040258,6.09542002 C8.35040258,6.34190464 8.56087724,6.54354113 8.8181658,6.54354113 L10.6192568,6.54354113 C10.8765579,6.54354113 11.08702,6.74517762 11.08702,6.99166224 L11.08702,14.1846483 C11.08702,14.4311449 10.8765453,14.6327694 10.6192568,14.6327694 L1.4034985,14.6327694 C1.1461974,14.6327694 0.935735282,14.4311329 0.935735282,14.1846483 L0.935735282,6.99166224 C0.935735282,6.74516562 1.14620994,6.54354113 1.4034985,6.54354113 L3.20458948,6.54354113 C3.46189057,6.54354113 3.6723527,6.34190464 3.6723527,6.09542002 C3.6723527,5.8489354 3.46187804,5.64729891 3.20458948,5.64729891 L1.4034985,5.64729891 C0.631620271,5.64729891 0,6.25235644 0,6.99186231 L0,14.1848484 C0,14.9243142 0.631578503,15.5294118 1.4034985,15.5294118 L10.5958665,15.5294118 C11.3677448,15.5294118 11.999365,14.9243542 11.999365,14.1848484 L11.999365,6.99146217 C12.0228597,6.25199631 11.3912603,5.64705882 10.6193821,5.64705882 L10.6192568,5.64729891 Z" id="Shape"></path>
                    <path d="M6.12880299,10.5881626 C6.38108922,10.5881626 6.58744938,10.3845823 6.58744938,10.1357215 L6.58744938,5.36204188 C6.58744938,3.91410115 7.78007744,2.76035418 9.22481972,2.76035418 L10.4403412,2.76035418 L9.33953251,3.84626933 C9.15603709,4.02728212 9.15603709,4.29871041 9.33953251,4.4797434 C9.43120035,4.57017101 9.54590495,4.6154636 9.66060546,4.6154636 C9.77530596,4.6154636 9.89001466,4.57017101 9.98167841,4.4797434 L11.8623784,2.62448853 C12.0458739,2.44347574 12.0458739,2.17204745 11.8623784,1.99101446 L9.98167841,0.135759594 C9.79818299,-0.045253198 9.52303202,-0.045253198 9.33951612,0.135759594 C9.15602071,0.316772386 9.15602071,0.588200673 9.33951612,0.769233665 L10.4403248,1.85514882 L9.22480333,1.85514882 C7.36716054,1.85514882 5.85345134,3.257801 5.66993545,5.04518365 C5.66993545,5.09047624 5.64705882,5.11304375 5.64705882,5.15833634 L5.64705882,10.1356326 C5.67009558,10.3846631 5.87646802,10.5882353 6.12876245,10.5882353 L6.12880299,10.5881626 Z" id="Shape"></path>
                </g>
            </g>
        </g>
    </g>
</svg>