
<svg width="28px" height="28px" viewBox="0 0 28 28" version="1.1" xmlns="http://www.w3.org/2000/svg" xmlns:xlink="http://www.w3.org/1999/xlink">
    <g id="Weak-supervision" stroke="none" stroke-width="1" fill="none" fill-rule="evenodd">
        <g id="No-query-result" transform="translate(-453.000000, -186.000000)" fill="#6B6B6C" fill-rule="nonzero">
            <g id="Group-9" transform="translate(235.000000, 190.000000)">
                <g id="noun_empty-folder_355738" transform="translate(222.000000, 0.000000)">
                    <path d="M11.9490303,2.05411124 C11.9485815,2.05366245 11.9485815,2.05321366 11.9481327,2.05276487 C11.9476839,2.05231608 11.9472351,2.05231608 11.9467863,2.05231608 C10.6794038,0.784933483 8.92957205,0 7.00022439,0 C3.14018272,0 0,3.14018272 0,7.00022439 C0,8.92418657 0.780894374,10.6686328 2.04154512,11.9355666 C2.04558423,11.9400545 2.0469306,11.94544 2.05096971,11.9499279 C2.05545761,11.9544158 2.06084308,11.9557621 2.06533098,11.9593525 C3.331816,13.2195544 5.07626222,14 6.99977561,14 C10.8598173,14 14,10.8598173 14,7.00022439 C14,5.07087674 13.2155153,3.32149383 11.9490303,2.05411124 Z M7.00022439,0.673184805 C8.62394615,0.673184805 10.1018112,1.29296362 11.2228883,2.30229203 L2.30229203,11.2224395 C1.29341241,10.1009136 0.673184805,8.62304857 0.673184805,6.99977561 C0.673184805,3.51133194 3.51133194,0.673184805 7.00022439,0.673184805 Z M7.00022439,13.3263664 C5.37695143,13.3263664 3.89953518,12.7065876 2.77845809,11.6981568 L11.6990543,2.7780093 C12.7074852,3.89908639 13.327264,5.37695143 13.327264,6.99977561 C13.3268152,10.4882193 10.4886681,13.3263664 7.00022439,13.3263664 Z" id="Shape"></path>
                </g>
            </g>
            <g id="noun-no-results-4012219" transform="translate(453.000000, 186.000000)">
                <g id="Group-33">
                    <path d="M10.7001606,21.3879518 C7.84410442,21.3879518 5.15829719,20.2746426 3.13903614,18.2553815 C1.1197751,16.2361205 0.00624096386,13.5498635 0.00624096386,10.694257 C0.00624096386,7.8382008 1.1197751,5.15216867 3.13903614,3.13313253 C7.30783133,-1.03566265 14.0910843,-1.03566265 18.2618474,3.13313253 C22.4304177,7.30367068 22.4304177,14.0874297 18.2618474,18.2559438 C16.2403936,20.2773976 13.556498,21.3885141 10.7007229,21.3885141 L10.7001606,21.3879518 Z M10.7001606,1.05253012 C8.2299759,1.05253012 5.75984739,1.99187952 3.87895582,3.87277108 C2.05670683,5.69502008 1.05253012,8.11685141 1.05253012,10.6939759 C1.05253012,13.2711004 2.0566506,15.6929317 3.87895582,17.5151807 C5.70097992,19.3372048 8.12303614,20.3417751 10.7001606,20.3417751 C13.2772851,20.3417751 15.6993414,19.3372048 17.5213655,17.5151807 C21.2831486,13.7531727 21.2831486,7.63477912 17.5213655,3.87277108 C15.6404739,1.99384739 13.1680964,1.05253012 10.7001606,1.05253012 Z" id="Shape"></path>
                    <path d="M27.4709237,27.988755 C27.3367317,27.988755 27.2025398,27.9384602 27.0997494,27.8356715 L17.5212755,18.2549486 C17.315706,18.0515719 17.315706,17.7201542 17.5212755,17.514804 C17.7266257,17.3092345 18.0556313,17.3092345 18.2611952,17.514804 L27.8396691,27.0955269 C28.0450193,27.3010964 28.0450193,27.6323004 27.8396691,27.8356715 C27.7368843,27.9384562 27.6029116,27.988755 27.4706932,27.988755 L27.4709237,27.988755 Z" id="Shape"></path>
                </g>
            </g>
        </g>
    </g>
</svg>