
<svg width="42px" height="33px" viewBox="0 0 42 33" version="1.1" xmlns="http://www.w3.org/2000/svg" xmlns:xlink="http://www.w3.org/1999/xlink">
    <g id="Weak-supervision" stroke="none" stroke-width="1" fill="none" fill-rule="evenodd">
        <g id="No-rules" transform="translate(-451.000000, -478.000000)">
            <g id="Group-9" transform="translate(235.000000, 478.000000)">
                <g id="Group-4" transform="translate(216.000000, 7.000000)" stroke="#6B6B6C" stroke-width="0.5">
                    <path d="M4,13 L4,18" id="Line-4" stroke-linecap="square"></path>
                    <path d="M30,13 L30,18" id="Line-4" stroke-linecap="square"></path>
                    <path d="M4.5,12.5 L29.5,12.5" id="Line" stroke-linecap="square"></path>
                    <path d="M17,18 L17,8" id="Line" stroke-linecap="square"></path>
                    <rect id="Rectangle-3" x="0.25" y="18.25" width="7.5" height="7.5"></rect>
                    <rect id="Rectangle-3" x="26.25" y="18.25" width="7.5" height="7.5"></rect>
                    <rect id="Rectangle-3" x="13.25" y="18.25" width="7.5" height="7.5"></rect>
                    <rect id="Rectangle-3" x="13.25" y="0.25" width="7.5" height="7.5"></rect>
                </g>
                <g id="noun_empty-folder_355738" transform="translate(243.000000, 0.000000)" fill="#6B6B6C" fill-rule="nonzero">
                    <path d="M12.2884615,2.11246154 C12.288,2.112 12.288,2.11153846 12.2875385,2.11107692 C12.2870769,2.11061538 12.2866154,2.11061538 12.2861538,2.11061538 C10.9827692,0.807230769 9.18323077,0 7.19907692,0 C3.22938462,0 0,3.22938462 0,7.19907692 C0,9.17769231 0.803076923,10.9716923 2.09953846,12.2746154 C2.10369231,12.2792308 2.10507692,12.2847692 2.10923077,12.2893846 C2.11384615,12.294 2.11938462,12.2953846 2.124,12.2990769 C3.42646154,13.5950769 5.22046154,14.3976923 7.19861538,14.3976923 C11.1683077,14.3976923 14.3976923,11.1683077 14.3976923,7.19907692 C14.3976923,5.21492308 13.5909231,3.41584615 12.2884615,2.11246154 Z M7.19907692,0.692307692 C8.86892308,0.692307692 10.3887692,1.32969231 11.5416923,2.36769231 L2.36769231,11.5412308 C1.33015385,10.3878462 0.692307692,8.868 0.692307692,7.19861538 C0.692307692,3.61107692 3.61107692,0.692307692 7.19907692,0.692307692 Z M7.19907692,13.7049231 C5.52969231,13.7049231 4.01030769,13.0675385 2.85738462,12.0304615 L12.0313846,2.85692308 C13.0684615,4.00984615 13.7058462,5.52969231 13.7058462,7.19861538 C13.7053846,10.7861538 10.7866154,13.7049231 7.19907692,13.7049231 Z" id="Shape"></path>
                </g>
            </g>
        </g>
    </g>
</svg>