
<svg width="38px" height="27px" viewBox="0 0 38 27" version="1.1" xmlns="http://www.w3.org/2000/svg" xmlns:xlink="http://www.w3.org/1999/xlink">
    <g id="Weak-supervision" stroke="none" stroke-width="1" fill="none" fill-rule="evenodd">
        <g id="No-rules" transform="translate(-453.000000, -479.000000)" fill-rule="nonzero">
            <g id="noun_automation_2169311" transform="translate(453.000000, 486.000000)" fill="#777778">
                <path d="M25.4686964,18.7739651 L25.4686964,14.2424374 C25.4686964,13.8848578 25.1740759,13.5952735 24.8102775,13.5952735 L23.1630012,13.5952735 L23.1630012,9.70987418 C23.1630012,9.35229457 22.8683807,9.06271031 22.5045823,9.06271031 L13.392416,9.06271031 L13.392416,5.82551033 L15.0396922,5.82551033 C15.4034906,5.82551033 15.6981111,5.53592606 15.6981111,5.17834645 L15.6981111,0.647163874 C15.6981111,0.289584261 15.4034906,0 15.0396922,0 L10.4290042,0 C10.0652058,0 9.77058528,0.289584261 9.77058528,0.647163874 L9.77058528,5.17869161 C9.77058528,5.53627122 10.0652058,5.82585548 10.4290042,5.82585548 L12.0755782,5.82585548 L12.0755782,9.06305546 L2.96341177,9.06305546 C2.59961339,9.06305546 2.30499288,9.35263973 2.30499288,9.71021934 L2.30499288,13.5956187 L0.658418898,13.5956187 C0.294620509,13.5956187 0,13.8852029 0,14.2427825 L0,18.7739651 C0,19.1315447 0.294620509,19.421129 0.658418898,19.421129 L5.26910696,19.421129 C5.63290535,19.421129 5.92752586,19.1315447 5.92752586,18.7739651 L5.92752586,14.2424374 C5.92752586,13.8848578 5.63290535,13.5952735 5.26910696,13.5952735 L3.62183067,13.5952735 L3.62183067,10.3570381 L12.0755782,10.3570381 L12.0755782,13.5952735 L10.4290042,13.5952735 C10.0652058,13.5952735 9.77058528,13.8848578 9.77058528,14.2424374 L9.77058528,18.77362 C9.77058528,19.1311996 10.0652058,19.4207838 10.4290042,19.4207838 L15.0396922,19.4207838 C15.4034906,19.4207838 15.6981111,19.1311996 15.6981111,18.77362 L15.6981111,14.2424374 C15.6981111,13.8848578 15.4034906,13.5952735 15.0396922,13.5952735 L13.392416,13.5952735 L13.392416,10.3570381 L21.8461634,10.3570381 L21.8461634,13.5952735 L20.2002918,13.5952735 C19.8364934,13.5952735 19.5418729,13.8848578 19.5418729,14.2424374 L19.5418729,18.77362 C19.5418729,19.1311996 19.8364934,19.4207838 20.2002918,19.4207838 L24.8102775,19.4207838 C25.1744271,19.421129 25.4686964,19.1315447 25.4686964,18.7739651 Z M11.0874231,1.29432775 L14.3812733,1.29432775 L14.3812733,4.53152773 L11.0874231,4.53152773 L11.0874231,1.29432775 Z M4.61068807,18.1268012 L1.3168378,18.1268012 L1.3168378,14.8896013 L4.61068807,14.8896013 L4.61068807,18.1268012 Z M14.3812733,18.1268012 L11.0874231,18.1268012 L11.0874231,14.8896013 L14.3812733,14.8896013 L14.3812733,18.1268012 Z M24.1518586,18.1268012 L20.8583595,18.1268012 L20.8583595,14.8896013 L24.1518586,14.8896013 L24.1518586,18.1268012 Z" id="Shape"></path>
            </g>
            <g id="Group-9" transform="translate(235.000000, 479.000000)" fill="#6B6B6C">
                <g id="noun_empty-folder_355738" transform="translate(241.000000, 0.000000)">
                    <path d="M12.2884615,2.11246154 C12.288,2.112 12.288,2.11153846 12.2875385,2.11107692 C12.2870769,2.11061538 12.2866154,2.11061538 12.2861538,2.11061538 C10.9827692,0.807230769 9.18323077,0 7.19907692,0 C3.22938462,0 0,3.22938462 0,7.19907692 C0,9.17769231 0.803076923,10.9716923 2.09953846,12.2746154 C2.10369231,12.2792308 2.10507692,12.2847692 2.10923077,12.2893846 C2.11384615,12.294 2.11938462,12.2953846 2.124,12.2990769 C3.42646154,13.5950769 5.22046154,14.3976923 7.19861538,14.3976923 C11.1683077,14.3976923 14.3976923,11.1683077 14.3976923,7.19907692 C14.3976923,5.21492308 13.5909231,3.41584615 12.2884615,2.11246154 Z M7.19907692,0.692307692 C8.86892308,0.692307692 10.3887692,1.32969231 11.5416923,2.36769231 L2.36769231,11.5412308 C1.33015385,10.3878462 0.692307692,8.868 0.692307692,7.19861538 C0.692307692,3.61107692 3.61107692,0.692307692 7.19907692,0.692307692 Z M7.19907692,13.7049231 C5.52969231,13.7049231 4.01030769,13.0675385 2.85738462,12.0304615 L12.0313846,2.85692308 C13.0684615,4.00984615 13.7058462,5.52969231 13.7058462,7.19861538 C13.7053846,10.7861538 10.7866154,13.7049231 7.19907692,13.7049231 Z" id="Shape"></path>
                </g>
            </g>
        </g>
    </g>
</svg>