
<svg width="44px" height="44px" viewBox="0 0 44 44" version="1.1" xmlns="http://www.w3.org/2000/svg" xmlns:xlink="http://www.w3.org/1999/xlink">
    <!-- Generator: Sketch 48.1 (47250) - http://www.bohemiancoding.com/sketch -->
    <desc>Created with Sketch.</desc>
    <defs>
        <polygon id="path-1" points="0 9.89333142e-05 43.4629511 9.89333142e-05 43.4629511 43.4628 0 43.4628"></polygon>
    </defs>
    <g id="Datasource-2" stroke="none" stroke-width="1" fill="none" fill-rule="evenodd">
        <g id="DS-Error-max-weight" transform="translate(-186.000000, -716.000000)">
            <g id="Page-1" transform="translate(186.000000, 716.000000)">
                <g id="Clip-2"></g>
                <path d="M24.3347,24.3346 C24.3347,25.6356 23.2707,26.6996 21.9687,26.6996 C20.6677,26.6996 19.6037,25.6356 19.6037,24.3346 L19.6037,12.5076 C19.6037,11.2066 20.6677,10.1426 21.9687,10.1426 C23.2707,10.1426 24.3347,11.2066 24.3347,12.5076 L24.3347,24.3346 Z M21.9687,33.7956 C20.6627,33.7956 19.6037,32.7346 19.6037,31.4296 C19.6037,30.1236 20.6627,29.0646 21.9687,29.0646 C23.2747,29.0646 24.3347,30.1236 24.3347,31.4296 C24.3347,32.7346 23.2747,33.7956 21.9687,33.7956 Z M42.2757,18.8596 L24.6027,1.1866 C23.0237,-0.3924 20.4457,-0.3984 18.8597,1.1866 L1.1867,18.8596 C-0.3923,20.4386 -0.3993,23.0176 1.1867,24.6026 L18.8597,42.2756 C20.4387,43.8556 23.0167,43.8616 24.6027,42.2756 L42.2757,24.6026 C43.8557,23.0236 43.8617,20.4456 42.2757,18.8596 Z" id="Fill-1" fill="#A5103A" mask="url(#mask-2)"></path>
            </g>
        </g>
    </g>
</svg>