
<svg width="25px" height="15px" viewBox="0 0 25 15" version="1.1" xmlns="http://www.w3.org/2000/svg" xmlns:xlink="http://www.w3.org/1999/xlink">
    <g id="right-menu" stroke="none" stroke-width="1" fill="none" fill-rule="evenodd">
        <g id="OK" transform="translate(-1223.000000, -103.000000)" fill="#333346" fill-rule="nonzero">
            <g id="Group-23" transform="translate(1196.000000, 73.000000)">
                <g id="noun_Eye_2037686" transform="translate(27.000000, 30.000000)">
                    <g id="Group">
                        <path d="M24.4791667,6.82291667 C24.2708333,6.5625 19.0625,0.182291667 12.5,0.182291667 C5.91145833,0.182291667 0.729166667,6.5625 0.520833333,6.82291667 L0.130208333,7.29166667 L0.520833333,7.76041667 C0.729166667,8.02083333 5.9375,14.4010417 12.5,14.4010417 C19.0885417,14.4010417 24.2708333,8.02083333 24.4791667,7.76041667 L24.8697917,7.29166667 L24.4791667,6.82291667 Z M2.08333333,7.29166667 C2.96875,6.328125 5.18229167,4.11458333 8.02083333,2.76041667 C6.84895833,3.90625 6.11979167,5.52083333 6.11979167,7.29166667 C6.11979167,9.0625 6.84895833,10.6510417 7.99479167,11.796875 C5.18229167,10.46875 2.96875,8.25520833 2.08333333,7.29166667 Z M12.5,12.0052083 C9.89583333,12.0052083 7.78645833,9.89583333 7.78645833,7.29166667 C7.78645833,4.6875 9.89583333,2.578125 12.5,2.578125 C15.1041667,2.578125 17.2135417,4.6875 17.2135417,7.29166667 C17.2395833,9.89583333 15.1041667,12.0052083 12.5,12.0052083 Z M16.9791667,11.8229167 C18.1510417,10.6770833 18.8802083,9.0625 18.8802083,7.29166667 C18.8802083,5.52083333 18.1510417,3.93229167 17.0052083,2.78645833 C19.8177083,4.11458333 22.03125,6.328125 22.9166667,7.29166667 C22.03125,8.25520833 19.8177083,10.46875 16.9791667,11.8229167 Z" id="Shape"></path>
                        <circle id="Oval" cx="12.5" cy="7.29166667" r="2.36979167"></circle>
                    </g>
                </g>
            </g>
        </g>
    </g>
</svg>