
<svg width="15px" height="14px" viewBox="0 0 15 14" version="1.1" xmlns="http://www.w3.org/2000/svg" xmlns:xlink="http://www.w3.org/1999/xlink">
    <!-- Generator: Sketch 48.1 (47250) - http://www.bohemiancoding.com/sketch -->
    <desc>Created with Sketch.</desc>
    <defs></defs>
    <g id="*FEEDBACK" stroke="none" stroke-width="1" fill="none" fill-rule="evenodd">
        <g id="Feedbackbinar" transform="translate(-917.000000, -373.000000)" fill="#2BABA6" fill-rule="nonzero">
            <g id="bt_standard_default" transform="translate(887.000000, 360.000000)">
                <path d="M36.8587765,26.7796488 L33.2295743,23.2269387 C32.6438012,22.6595704 33.5224608,21.8088187 34.1079233,22.376187 L36.5541368,24.7475686 C36.6741813,24.8639409 36.7721627,24.8240966 36.7721627,24.6577775 L36.7721627,18.1151996 C36.7721627,17.7815386 37.0502747,17.5121028 37.3933431,17.5121028 C37.7388033,17.5121028 38.0145234,17.7821184 38.0145234,18.1151996 L38.0145234,24.6577775 C38.0145234,24.8233144 38.112137,24.8642975 38.2325493,24.7475686 L40.6787629,22.376187 C41.264536,21.8088187 42.142885,22.6595704 41.5571119,23.2269387 L37.9517267,26.7754461 C37.6488429,27.0735516 37.160219,27.0747378 36.8587765,26.7796488 Z M31.7915152,14.5031409 L31.7915152,16.6096822 C31.7915152,16.9419443 31.5128463,17.2112959 31.1690909,17.2112959 C30.8253355,17.2112959 30.5466667,16.9419443 30.5466667,16.6096822 L30.5466667,13.9010361 C30.5466667,13.4015744 30.9670164,13 31.483034,13 L43.3036327,13 C43.8187988,13 44.24,13.40451 44.24,13.9010361 L44.24,16.6096822 C44.24,16.9419443 43.9613312,17.2112959 43.6175758,17.2112959 C43.2738203,17.2112959 42.9951515,16.9419443 42.9951515,16.6096822 L42.9951515,14.5031409 C42.9951515,14.3395038 42.8557587,14.2032274 42.6838089,14.2032274 L32.1028578,14.2032274 C31.9331705,14.2032274 31.7915152,14.3375033 31.7915152,14.5031409 Z" id="Shape" transform="translate(37.393333, 20.000000) rotate(180.000000) translate(-37.393333, -20.000000) "></path>
            </g>
        </g>
    </g>
</svg>