
<svg width="26px" height="26px" viewBox="0 0 26 26" version="1.1" xmlns="http://www.w3.org/2000/svg" xmlns:xlink="http://www.w3.org/1999/xlink">
    <!-- Generator: Sketch 48.1 (47250) - http://www.bohemiancoding.com/sketch -->
    <desc>Created with Sketch.</desc>
    <defs></defs>
    <g id="Symbols" stroke="none" stroke-width="1" fill="none" fill-rule="evenodd">
        <g id="bt_primary_Action-test" transform="translate(-24.000000, -7.000000)" fill-rule="nonzero">
            <g id="noun_1502329_cc" transform="translate(37.000000, 20.000000) scale(-1, 1) translate(-37.000000, -20.000000) translate(24.000000, 7.000000)">
                <path d="M3.47655068,22.6751222 L4.20574887,21.9581103 C5.45234493,22.3967885 10.8320726,22.5420061 12.0998487,22.4633465 C13.3676248,22.384687 17.8487141,23.7158483 17.8487141,23.7158483 C13.6641452,21.7130556 10.0151286,21.6464976 9.02269289,21.6979288 C8.11497731,21.7433093 5.04387292,21.6495229 4.53252648,21.6313707 L5.32829047,20.8356993 C5.9721202,20.8926144 6.61896085,20.907773 7.26475038,20.8810798 C7.81845688,20.8145218 10.9440242,20.7842681 12.6081694,20.8478008 C14.2723147,20.9113335 18.214826,22.0367698 18.214826,22.0367698 C14.0605144,20.2215499 10.7715582,20.0672562 9.84266263,20.1156621 C9.00151286,20.1610426 6.46293495,20.1610426 5.99092284,20.1610426 L6.62632375,19.5196649 C6.9591528,19.4924366 8.32980333,19.380498 11.1376702,19.1717477 C14.4114977,18.926693 18.6293495,20.5059344 18.6293495,20.5059344 C16.0393343,19.0900628 13.1255673,18.4880149 11.2193646,18.5999535 C9.40393343,18.7088667 7.64599092,18.9902257 7.16792738,18.9781243 L7.72768533,18.4184315 L8.27534039,18.2883407 C9.1225416,18.0311845 12.5113464,17.8194089 12.8472012,17.8073074 L12.892587,17.8073074 C14.861942,17.9924256 16.8195472,18.2863353 18.7564297,18.6876891 C18.0393343,18.2641378 17.9092284,17.9071445 15.01059,17.4775425 C12.3782148,17.0933209 8.97428139,17.6590645 8.37518911,17.7800791 L8.99546142,17.159879 C10.0179349,17.0947053 11.0314474,16.9285086 12.02118,16.6637189 C12.9833585,16.4186642 14.6263238,16.5971608 15.7186082,16.648592 C16.6263238,16.6909472 18.9319213,17.3141727 19.6520424,17.5138469 C18.7443268,17.2113102 18.3086233,16.5094252 15.8093797,16.185711 C13.1164902,15.8377938 12.3146747,16.185711 11.4553707,16.3823598 C10.7985299,16.5237555 10.133644,16.6247903 9.46444781,16.6848964 L10.0695915,16.0798231 C10.5143722,15.9951129 12.4326778,15.6290435 13.1709531,15.4747498 C14.3509834,15.2387712 16.8199697,15.3779381 18.193646,15.6108913 C18.8895613,15.7440074 21.1497731,16.3067256 21.1497731,16.3067256 C20.3025719,15.7016523 17.1588502,14.5973935 14.4931921,14.9059809 C13.1849335,15.0435026 11.885735,15.2566433 10.602118,15.5443333 L11.2072617,14.9392599 C11.4220877,14.9029556 12.0544629,14.8000931 13.3827534,14.6155457 C16.5900151,14.1677915 17.5521936,14.5822667 18.8290469,14.5429369 C20.0393343,14.5036072 22.5113464,15.1238073 22.7987897,15.1964161 C22.5355522,15.1147312 20.9228442,14.3130091 19.1043873,14.0528276 C17.7942512,13.8381399 16.4614913,13.7974497 15.1406959,13.9318129 C14.5869894,14.0195485 12.2753404,14.2888061 11.8124054,14.3432627 L12.3509834,13.8047475 C12.7836611,13.7472655 14.7231467,13.5022108 15.5642965,13.4023737 C16.4492826,13.3573818 17.3305257,13.2563336 18.2027231,13.0998371 C20.4175492,12.6611589 23.6248109,14.1496393 23.6248109,14.1496393 C23.6248109,14.1496393 20.9288956,12.6672097 19.01059,12.5643472 C17.2586989,12.4705609 13.3555219,13.3116128 12.6928896,13.4719572 L13.419062,12.7458692 C13.8547655,12.7095648 15.9304085,12.5401443 16.6142209,12.4433326 C18.0023582,12.2851263 19.3986562,12.2093591 20.795764,12.2164301 C21.6610704,12.2649819 22.5087684,12.4807344 23.2919818,12.851757 C23.2919818,12.851757 23.1951589,12.2466837 20.9621785,11.8896905 C18.7291982,11.5326972 16.6868381,12.059111 16.1754917,12.116593 C15.570348,12.1861764 14.2571861,12.2436584 13.924357,12.2557598 L14.429652,11.7505236 C14.8381241,11.662788 16.4266263,11.3239469 16.8018154,11.2604142 C17.2344932,11.1878054 19.9364599,11.1847801 19.9364599,11.1847801 C21.2072617,11.2180591 23.5521936,12.0318827 23.5521936,12.0318827 C21.107413,10.9881313 20.8835098,10.7309751 18.8623298,10.7309751 C17.5363743,10.7537853 16.2170895,10.9242576 14.9288956,11.2392367 L15.4977307,10.6704678 C15.8003026,10.6129858 16.8593041,10.416337 17.3464448,10.3164999 C17.9273828,10.1954852 20.6928896,10.2257389 21.3101362,10.2257389 C21.9273828,10.2257389 23.881997,10.8761927 23.881997,10.8761927 C23.1013616,10.3225506 21.4614221,9.81731441 20.0695915,9.80218757 C18.8290469,9.80218757 16.3963691,10.1803584 15.9001513,10.2650687 L16.505295,9.65999535 C16.5930408,9.65999535 16.7534039,9.64184315 17.0166415,9.59948801 C17.4402421,9.53292995 19.9818457,9.1759367 20.9077156,9.03071911 C21.8335855,8.88550151 24.2239032,9.08820107 24.2239032,9.08820107 C23.4916793,8.64952292 22.5476551,8.71305562 20.7715582,8.66464976 C19.2284418,8.62229462 17.2768533,9.20619037 16.7927383,9.35745869 L17.4281392,8.72213172 C18.3395944,8.64027324 19.2406493,8.46798809 20.118003,8.20781941 C21.7609682,7.73586223 24.9077156,8.01117058 24.9077156,8.01117058 C23.6984552,7.68650241 22.4455081,7.5547898 21.1951589,7.6208983 C20.0736396,7.70207861 18.9656222,7.91532936 17.8940998,8.25622527 L18.4054463,7.74493833 C19.01059,7.6299744 22.2541604,6.99767279 22.871407,6.81917617 C23.5552194,6.62252734 26,6.91901327 26,6.91901327 C24.7443268,6.51663952 22.8895613,6.36537119 22.1391831,6.51663952 C21.4765507,6.66185711 19.2223903,7.29718408 18.7080182,7.44542704 L19.0559758,7.09750989 L19.8729198,6.84942983 C20.1482602,6.7707703 22.8229955,5.73306958 23.2859304,5.60902956 C23.7488654,5.48498953 25.0559758,5.3518734 25.0559758,5.3518734 C24.7647472,5.30716668 24.4695471,5.29398059 24.1754917,5.31254364 C22.6626324,5.3427973 20.8804841,6.12334187 20.269289,6.46520828 C19.9485093,6.64565906 19.6071742,6.78684971 19.2526475,6.88573423 L19.6399395,6.49848732 C19.963239,6.40112187 20.2694585,6.25415362 20.5476551,6.06283454 C21.2465961,5.62415639 22.290469,5.36397487 22.720121,5.15522458 C23.1497731,4.94647428 25.1406959,4.55015127 25.1406959,4.55015127 C25.1406959,4.55015127 25.0771558,4.42006051 23.2677761,4.63183616 C22.181907,4.80293744 21.1527479,5.23135803 20.2662632,5.88131254 L20.6868381,5.45776123 C21.1709531,5.15522458 24.0453858,2.47474983 24.2965204,2.15406097 C24.4502927,1.95743899 24.5680911,1.73518428 24.6444781,1.49755643 L24.7019667,1.29788224 L24.5022693,1.35536421 C24.2646138,1.43174227 24.0423332,1.54952702 23.8456884,1.70328136 C23.5279879,1.95741215 20.8472012,4.83151036 20.5446293,5.315569 L20.1482602,5.71189202 C20.7982904,4.82551051 21.2267608,3.7964712 21.397882,2.71072842 C21.6096823,0.895508494 21.4795764,0.83802653 21.4795764,0.83802653 C21.4795764,0.83802653 21.0922844,2.82871771 20.8744327,3.25831976 C20.6565809,3.68792181 20.3933434,4.72864789 19.9667171,5.43053293 C19.7753757,5.70869711 19.6283904,6.01488096 19.5310136,6.33814289 L19.1437216,6.72538981 C19.2426177,6.37090434 19.3838247,6.02960894 19.5642965,5.70886665 C19.9062027,5.10379334 20.6868381,3.30672562 20.7170953,1.80311845 C20.7337934,1.51300859 20.7195936,1.22194572 20.6747352,0.934838259 C20.6747352,0.934838259 20.5416036,2.2417966 20.4175492,2.70467768 C20.2934947,3.16755876 19.2314675,5.85105888 19.1527988,6.12636723 C19.0922844,6.33209216 18.9652042,6.74656737 18.9046899,6.9432162 L18.5567322,7.29113335 C18.7019667,6.77682104 19.3403933,4.52292297 19.4856278,3.8603677 C19.6490166,3.1100768 19.4856278,1.25552711 19.0771558,0 C19.0771558,0 19.3797277,2.44449616 19.1770045,3.128229 C18.9984871,3.7333023 18.366112,6.99767279 18.2511346,7.59367 L17.7397882,8.10495695 C18.0807238,7.03355925 18.2939994,5.92567084 18.3751891,4.80428206 C18.4413053,3.55407832 18.3095774,2.30127696 17.9848714,1.09215732 C17.9848714,1.09215732 18.2602118,4.23853852 17.7881997,5.88131254 C17.5280007,6.75856418 17.3556955,7.65951419 17.2738275,8.57086339 L16.6384266,9.20619037 C16.7927383,8.72213172 17.3736762,6.78589714 17.3313162,5.22783337 C17.2829047,3.45194322 17.3464448,2.50500349 16.9077156,1.77589016 C16.9077156,1.77589016 17.1316188,4.15685362 16.9863843,5.08261578 C16.8411498,6.00837794 16.484115,8.54968583 16.4175492,8.97323714 C16.3782148,9.23341866 16.3630862,9.39678846 16.3570348,9.48452409 L15.7518911,10.0895974 C15.8335855,9.59343728 16.2299546,7.15801722 16.214826,5.92064231 C16.1996974,4.53502444 15.6944024,2.89527577 15.1406959,2.10868047 C15.1406959,2.10868047 15.7912254,4.06306726 15.7912254,4.68024203 C15.7912254,5.2974168 15.8214826,8.06562718 15.7004539,8.64347219 C15.5975794,9.1305562 15.397882,10.177333 15.3464448,10.4919711 L14.795764,11.0607401 C15.1107797,9.77269606 15.2812719,8.45356476 15.3040847,7.12776356 C15.3040847,5.10984408 15.0468986,4.88294159 14.0030257,2.43844543 C14.0030257,2.43844543 14.816944,4.78310449 14.8502269,6.05375844 C14.8502269,6.05375844 14.8502269,8.75541075 14.774584,9.18803817 C14.7110439,9.56318362 14.3721634,11.151501 14.2844175,11.5599255 L13.7791225,12.0651617 C13.7791225,11.7293461 13.8487141,10.416337 13.9183056,9.81428904 C13.97882,9.29997673 14.4871407,7.25785432 14.1452345,5.02815918 C13.8033283,2.79846404 13.183056,2.69862695 13.183056,2.69862695 C13.5541217,3.48174923 13.7698994,4.32934859 13.8184569,5.19455434 C13.8241191,6.59666492 13.7463214,7.9978698 13.5854766,9.39073772 C13.473525,10.0744706 13.3040847,12.149872 13.2829047,12.5855248 L12.5567322,13.3116128 C12.7019667,12.6520828 13.5461422,8.74936002 13.4644478,6.99464743 C13.3615734,5.07656505 11.8789713,2.38096346 11.8789713,2.38096346 C11.8789713,2.38096346 13.3645991,5.58785199 12.9288956,7.80242029 C12.7723809,8.67451622 12.6713209,9.55565677 12.6263238,10.4405399 C12.5355522,11.2815918 12.2813918,13.2208518 12.2239032,13.6534792 L11.6853253,14.1919944 C11.7397882,13.7200372 12.0090772,11.4116826 12.096823,10.8640912 C12.2312019,9.54344956 12.1905069,8.21084469 11.9757943,6.90086107 C11.7186082,5.08564114 10.9167927,3.47009542 10.8320726,3.20688853 C10.9046899,3.50942518 11.5249622,5.97207354 11.4856278,7.17616942 C11.4432678,8.45589946 11.8608169,9.41796602 11.4130106,12.6218292 C11.2284418,13.9499651 11.1255673,14.5792413 11.0892587,14.7970677 L10.484115,15.402141 C10.762802,14.1171356 10.9668749,12.8170796 11.0953101,11.5084943 C11.397882,8.85524785 10.3146747,5.71189202 9.69440242,4.85268792 C9.69440242,4.85268792 10.2723147,7.10961136 10.387292,7.79334419 C10.623298,9.1668606 10.7624811,11.6355597 10.5234493,12.8154526 C10.3751891,13.5506167 10.0090772,15.4717245 9.9183056,15.9164533 L9.31316188,16.5215266 C9.37327505,15.8524083 9.47432154,15.1875998 9.61573374,14.5308355 C9.8214826,13.6716314 10.1633888,12.8729346 9.81240545,10.177333 C9.48865356,7.68140563 8.7806354,7.23062602 8.48411498,6.33511752 C8.68381241,7.05515476 9.31013616,9.36048406 9.3494705,10.268094 C9.397882,11.3602513 9.57639939,12.9909239 9.33434191,13.9650919 C9.06952135,14.9547094 8.9033053,15.968104 8.83812405,16.9904585 L8.2269289,17.6197347 C8.33282905,17.0146614 8.90166415,13.6171748 8.52950076,10.9851059 C8.10590015,8.08680475 7.74886536,7.95973935 7.31921331,7.23970212 C7.72061386,9.17635921 8.01455766,11.1337366 8.19969743,13.1028625 C8.20071164,13.1179723 8.20071164,13.1331331 8.19969743,13.148243 C8.19969743,13.4719572 7.97579425,16.8694438 7.71860817,17.7195718 L7.58850227,18.2671631 L7.02874433,18.8268559 C7.02874433,18.3458227 7.29803328,16.5759832 7.40695915,14.7758902 C7.52193646,12.8699092 6.91981846,9.95648127 5.50075643,7.36676751 C5.50075643,7.36676751 7.08018154,11.5841285 6.83509834,14.8575751 C6.62632375,17.6651152 6.50832073,19.0356062 6.48108926,19.3744473 L5.83963691,20.0097743 C5.83963691,19.5378171 5.83963691,16.9844077 5.88502269,16.1584827 C5.93343419,15.2296951 5.77004539,11.9411217 3.96369138,7.78729346 C3.96369138,7.78729346 5.08623298,11.7444729 5.15279879,13.4053991 C5.2193646,15.0663253 5.18305598,18.1945543 5.11346445,18.7481964 C5.08676817,19.3939108 5.1019285,20.0406762 5.15885023,20.684431 L4.36913767,21.4922039 C4.35400908,20.9839423 4.2602118,17.9131953 4.30257186,17.0025599 C4.35098336,16.0102397 4.28744327,12.3616477 2.28441755,8.17756574 C2.28441755,8.17756574 3.61875946,12.6399814 3.53706505,13.9257622 C3.45537065,15.2115429 3.60060514,20.5573656 4.04236006,21.7947405 L3.32526475,22.5117524 C3.29198185,21.9913893 3.07715582,18.6755876 3.02269289,17.7770538 C2.91755814,15.4065939 2.24740899,13.0955744 1.06807867,11.0365371 C1.06807867,11.0365371 1.93040847,13.6262509 2.08774584,14.6609262 C2.24205749,15.7772865 2.29954614,18.3246451 2.29954614,18.3246451 C2.29954614,18.3246451 2.29954614,21.1594135 2.33282905,21.5829649 C2.36006051,21.9520596 2.47806354,23.0684198 2.50832073,23.3558296 L0,25.8487317 L0.0756429652,25.9243658 L0.15128593,26 L2.64447806,23.507098 C2.94704992,23.5373516 4.05143722,23.6523156 4.41754917,23.6825692 C4.84114977,23.7158483 7.67624811,23.7158483 7.67624811,23.7158483 C7.67624811,23.7158483 10.2239032,23.7733302 11.3403933,23.9276239 C12.3721634,24.0698162 14.9561271,24.9380963 14.9561271,24.9380963 C12.8968502,23.7589033 10.5855618,23.0888321 8.21482602,22.9837096 L3.47655068,22.6751222 Z" id="Shape" fill="#FAFCFC"></path>
                <path d="M23,15 L23.045,15 L23,15 Z" id="Shape" fill="#000000"></path>
                <path d="M19,18 C19.115,18.04 19.235,18.075 19.365,18.105 L19,18 Z" id="Shape" fill="#000000"></path>
                <path d="M11.0008593,3.045 L11.0008593,3 C10.9997136,3.01497812 10.9997136,3.03002188 11.0008593,3.045 Z" id="Shape" fill="#000000"></path>
                <path d="M8.09,6.365 L8,6 C8,6.125 8.05,6.245 8.09,6.365 Z" id="Shape" fill="#000000"></path>
            </g>
        </g>
    </g>
</svg>