
<svg width="11px" height="12px" viewBox="0 0 11 12" version="1.1" xmlns="http://www.w3.org/2000/svg" xmlns:xlink="http://www.w3.org/1999/xlink">
    <!-- Generator: Sketch 48.1 (47250) - http://www.bohemiancoding.com/sketch -->
    <desc>Created with Sketch.</desc>
    <defs></defs>
    <g id="Component-Test" stroke="none" stroke-width="1" fill="none" fill-rule="evenodd">
        <g id="Record-full-extract" transform="translate(-747.000000, -1316.000000)" fill="#000000" fill-rule="nonzero">
            <g id="Group-7" transform="translate(59.000000, 1175.000000)">
                <g id="Group-2" transform="translate(601.000000, 139.000000)">
                    <g id="Group" transform="translate(87.000000, 2.000000)">
                        <g id="Shape">
                            <path d="M6.359375,5.92854447 C6.359375,5.74446443 6.45319417,5.47826873 6.57191215,5.3302567 L9.99568157,1.06166107 C10.1706555,0.8435117 10.0840707,0.666666667 9.7950182,0.666666667 L1.2049818,0.666666667 C0.919184509,0.666666667 0.828193816,0.842077133 1.00431842,1.06166107 L4.42808785,5.3302567 C4.54546888,5.47660187 4.640625,5.74284577 4.640625,5.92854447 L4.640625,10.498965 C4.640625,10.9597739 5.02207135,11.3333333 5.5,11.3333333 C5.97461972,11.3333333 6.359375,10.9612621 6.359375,10.498965 L6.359375,5.92854447 Z M7.046875,5.92854447 L7.046875,10.498965 C7.046875,11.3289367 6.35484682,12 5.5,12 C4.6429162,12 3.953125,11.3284948 3.953125,10.498965 L3.953125,5.92854447 C3.953125,5.89208017 3.9095517,5.76965143 3.88540817,5.73955043 L0.461638787,1.47095483 C-0.0666868469,0.8122631 0.348631869,0 1.2049818,0 L9.7950182,0 C10.6557019,0 11.0648628,0.814537233 10.5383612,1.47095483 L7.11459182,5.73955043 C7.09012604,5.77005323 7.046875,5.8921 7.046875,5.92854447 Z"></path>
                        </g>
                    </g>
                </g>
            </g>
        </g>
    </g>
</svg>