
<svg width="13px" height="13px" viewBox="0 0 13 13" version="1.1" xmlns="http://www.w3.org/2000/svg" xmlns:xlink="http://www.w3.org/1999/xlink">
    <g id="Text2text-/-Done" stroke="none" stroke-width="1" fill="none" fill-rule="evenodd">
        <g id="explore" transform="translate(-1062.000000, -2264.000000)" fill="#FFFFFF" fill-rule="nonzero">
            <g id="Group-6" transform="translate(1051.000000, 2252.000000)">
                <g id="noun_rejected_1242228" transform="translate(11.000000, 12.000000)">
                    <path d="M6.5,0 C10.0898509,0 13,2.91014913 13,6.5 C13,10.0898509 10.0898509,13 6.5,13 C2.91014913,13 0,10.0898509 0,6.5 C0,2.91014913 2.91014913,0 6.5,0 Z M10.6942664,3.07176621 L3.07176621,10.6942664 C5.19943883,12.4376021 8.34408954,12.3162341 10.3301618,10.3301618 C12.3162341,8.34408954 12.4376021,5.19943883 10.6942664,3.07176621 Z M2.30573362,9.92823379 L9.92823379,2.30573362 C7.80056117,0.562397875 4.65591046,0.683765875 2.66983817,2.66983817 C0.683765875,4.65591046 0.562397875,7.80056117 2.30573362,9.92823379 Z" id="Shape"></path>
                </g>
            </g>
        </g>
    </g>
</svg>