
<svg width="22px" height="22px" viewBox="0 0 22 22" version="1.1" xmlns="http://www.w3.org/2000/svg" xmlns:xlink="http://www.w3.org/1999/xlink">
    <g id="*-Explore" stroke="none" stroke-width="1" fill="none" fill-rule="evenodd">
        <g id="Explore-" transform="translate(-802.000000, -260.000000)" fill="#F38959">
            <g id="Group-5" transform="translate(802.000000, 260.000000)">
                <path d="M9.93945312,13.3984375 L9.93945312,13.0234375 C9.93945312,12.5937479 10.0175773,12.2363296 10.1738281,11.9511719 C10.3300789,11.6660142 10.6035137,11.3710953 10.9941406,11.0664062 C11.4589867,10.6992169 11.7587884,10.4140635 11.8935547,10.2109375 C12.028321,10.0078115 12.0957031,9.76562641 12.0957031,9.484375 C12.0957031,9.15624836 11.9863292,8.90429775 11.7675781,8.72851562 C11.548827,8.5527335 11.2343771,8.46484375 10.8242188,8.46484375 C10.4531231,8.46484375 10.1093766,8.5175776 9.79296875,8.62304688 C9.47656092,8.72851615 9.16797025,8.85546801 8.8671875,9.00390625 L8.375,7.97265625 C9.16797271,7.53124779 10.0175736,7.31054688 10.9238281,7.31054688 C11.689457,7.31054688 12.2968728,7.498045 12.7460938,7.87304688 C13.1953147,8.24804875 13.4199219,8.7656217 13.4199219,9.42578125 C13.4199219,9.71875146 13.3769536,9.97949104 13.2910156,10.2080078 C13.2050777,10.4365246 13.0751962,10.6542958 12.9013672,10.8613281 C12.7275382,11.0683604 12.4277365,11.337889 12.0019531,11.6699219 C11.6386701,11.9550796 11.3955084,12.1914053 11.2724609,12.3789062 C11.1494134,12.5664072 11.0878906,12.8183578 11.0878906,13.1347656 L11.0878906,13.3984375 L9.93945312,13.3984375 Z M9.69921875,15.2675781 C9.69921875,14.6777314 9.98632525,14.3828125 10.5605469,14.3828125 C10.8417983,14.3828125 11.0566399,14.4599602 11.2050781,14.6142578 C11.3535164,14.7685555 11.4277344,14.9863267 11.4277344,15.2675781 C11.4277344,15.5449233 11.3525398,15.7646476 11.2021484,15.9267578 C11.0517571,16.088868 10.837892,16.1699219 10.5605469,16.1699219 C10.2832017,16.1699219 10.0703132,16.0908211 9.921875,15.9326172 C9.77343676,15.7744133 9.69921875,15.5527358 9.69921875,15.2675781 Z" id="?"></path>
                <path d="M11,21.5 C5.20101013,21.5 0.5,16.7989899 0.5,11 C0.5,5.20101013 5.20101013,0.5 11,0.5 C16.7989899,0.5 21.5,5.20101013 21.5,11 C21.5,16.7989899 16.7989899,21.5 11,21.5 Z M11,20.5 C16.2467051,20.5 20.5,16.2467051 20.5,11 C20.5,5.75329488 16.2467051,1.5 11,1.5 C5.75329488,1.5 1.5,5.75329488 1.5,11 C1.5,16.2467051 5.75329488,20.5 11,20.5 Z" id="Oval-3" fill-rule="nonzero"></path>
            </g>
        </g>
    </g>
</svg>