
<svg width="17px" height="41px" viewBox="0 0 17 41" version="1.1" xmlns="http://www.w3.org/2000/svg" xmlns:xlink="http://www.w3.org/1999/xlink">
    <!-- Generator: Sketch 48.1 (47250) - http://www.bohemiancoding.com/sketch -->
    <desc>Created with Sketch.</desc>
    <defs></defs>
    <g id="Final" stroke="none" stroke-width="1" fill="none" fill-rule="evenodd">
        <g id="Product-Automatic-classification" transform="translate(-30.000000, -20.000000)" fill="#FBD8AA">
            <g id="Group-14" transform="translate(30.000000, 20.000000)">
                <g id="Group-17">
                    <path d="M6.27895517,0 L17,6.9623746 L15.3365934,8.8010218 L8.79500862,6.9623746 C11.9023887,9.47743956 13.3632125,12.8293735 13.1774798,17.0181764 C12.9917472,21.2069793 11.1956552,25.4163038 7.78920398,29.6461499 L6.44085014,33.3964914 L5.83644224,37.3519753 L8.09963116,39.1600802 L10.0708952,38.5136013 L10.5540103,36.8734791 L9.40429906,35.9834252 L8.5,36.6349945 L9.21799135,37.2068993 L9.77562959,36.6349945 L9.77562959,37.6393276 L9.21799135,38.0559756 L7.75810986,37.2068993 L7.75810986,35.9834252 L9.40429906,34.8439424 L11.7980319,36.26416 L11.7980319,38.5136013 L10.5540103,40.2924364 L8.09963116,41 L5.83644224,40.5085233 L3.73489131,38.5077473 L2.97090123,37.3519753 L2.89021072,32.0719731 L5.00538138,23.5735747 L2.33771201,25.4537085 L0,23.7150874 L0,15.61323 L2.97090123,17.0181764 L0.46949542,5.51874131 L6.27895517,0 Z" id="Fill-17"></path>
                </g>
            </g>
        </g>
    </g>
</svg>