
<svg width="17px" height="18px" viewBox="0 0 17 18" version="1.1" xmlns="http://www.w3.org/2000/svg" xmlns:xlink="http://www.w3.org/1999/xlink">
    <!-- Generator: Sketch 48.1 (47250) - http://www.bohemiancoding.com/sketch -->
    <desc>Created with Sketch.</desc>
    <defs>
        <polygon id="path-1" points="0 0 16.914 0 16.914 17.8258 0 17.8258"></polygon>
    </defs>
    <g id="*FEEDBACK" stroke="none" stroke-width="1" fill="none" fill-rule="evenodd">
        <g id="FEEDBACK-binar" transform="translate(-263.000000, -251.000000)">
            <g id="Page-1" transform="translate(263.000000, 251.000000)">
                <mask id="mask-2" fill="white">
                    <use xlink:href="#path-1"></use>
                </mask>
                <g id="Clip-2"></g>
                <path d="M14.81,3.5248 L16.828,1.3638 L15.365,-0.0002 L13.289,2.2238 C12.031,1.3968 10.529,0.9128 8.914,0.9128 C4.503,0.9128 0.914,4.5018 0.914,8.9128 C0.914,10.7258 1.526,12.3928 2.546,13.7348 L0,16.4618 L1.463,17.8258 L3.942,15.1688 C5.309,16.2578 7.035,16.9128 8.914,16.9128 C13.325,16.9128 16.914,13.3238 16.914,8.9128 C16.914,6.8368 16.112,4.9488 14.81,3.5248 M2.914,8.9128 C2.914,5.6038 5.605,2.9128 8.914,2.9128 C10.001,2.9128 11.018,3.2078 11.898,3.7148 L3.931,12.2508 C3.289,11.2958 2.914,10.1478 2.914,8.9128 M8.914,14.9128 C7.562,14.9128 6.317,14.4578 5.313,13.7008 L13.443,4.9898 C14.357,6.0428 14.914,7.4128 14.914,8.9128 C14.914,12.2218 12.223,14.9128 8.914,14.9128" id="Fill-1" fill="#000000"></path>
            </g>
        </g>
    </g>
</svg>