
<svg width="12px" height="12px" viewBox="0 0 12 12" version="1.1" xmlns="http://www.w3.org/2000/svg" xmlns:xlink="http://www.w3.org/1999/xlink">
    <defs></defs>
    <g id="Weak-supervision" stroke="none" stroke-width="1" fill="none" fill-rule="evenodd">
        <g id="Large-screen" transform="translate(-830.000000, -140.000000)" fill="#000000" fill-rule="nonzero">
            <g id="noun-info-3244847" transform="translate(830.000000, 140.000000)">
                <path d="M6,0 C2.69142857,0 0,2.69142857 0,6 C0,9.30857143 2.69142857,12 6,12 C9.30857143,12 12,9.30857143 12,6 C12,2.69142857 9.30857143,0 6,0 Z M6,0.857142857 C8.84546939,0.857142857 11.1428571,3.15457959 11.1428571,6 C11.1428571,8.84542041 8.84542041,11.1428571 6,11.1428571 C3.15457959,11.1428571 0.857142857,8.84542041 0.857142857,6 C0.857142857,3.15457959 3.15457959,0.857142857 6,0.857142857 Z" id="Shape"></path>
                <path d="M5.5500543,9.01654106 L5.5500543,5.60855296 C5.54222902,5.03048235 6.38285255,5.03048235 6.3749337,5.60855296 L6.3749337,9.01654106 C6.37907648,9.2575797 6.18850624,9.45368497 5.95853458,9.44994745 C5.72856291,9.44613053 5.54691976,9.25232762 5.5500543,9.01654106 Z" id="Shape"></path>
                <path d="M6.9,3.4125 C6.9,3.64121529 6.80922557,3.86060571 6.64741071,4.02241071 C6.48569196,4.18412946 6.26630893,4.275 6.0375,4.275 C5.80878471,4.275 5.58939429,4.18412946 5.42768786,4.02241071 C5.265873,3.86059586 5.175,3.64121036 5.175,3.4125 C5.175,3.18368614 5.26587054,2.96429571 5.42768786,2.80258929 C5.58940661,2.64087054 5.80878964,2.55 6.0375,2.55 C6.26631386,2.55 6.48570429,2.64087054 6.64741071,2.80258929 C6.80911714,2.96430804 6.9,3.18369107 6.9,3.4125 Z" id="Shape"></path>
            </g>
        </g>
    </g>
</svg>