<svg width="41" height="40" viewBox="0 0 41 40" fill="none" xmlns="http://www.w3.org/2000/svg">
<path d="M19 18.4691C19 17.6406 19.6716 16.9691 20.5 16.9691C21.3284 16.9691 22 17.6406 22 18.4691V27.4691C22 28.2975 21.3284 28.9691 20.5 28.9691C19.6716 28.9691 19 28.2975 19 27.4691V18.4691Z" fill="black"/>
<path d="M20.5 11.0767C19.6716 11.0767 19 11.7483 19 12.5767C19 13.4051 19.6716 14.0767 20.5 14.0767C21.3284 14.0767 22 13.4051 22 12.5767C22 11.7483 21.3284 11.0767 20.5 11.0767Z" fill="black"/>
<path fill-rule="evenodd" clip-rule="evenodd" d="M20.5 5C12.2157 5 5.5 11.7157 5.5 20C5.5 28.2843 12.2157 35 20.5 35C28.7843 35 35.5 28.2843 35.5 20C35.5 11.7157 28.7843 5 20.5 5ZM8.5 20C8.5 26.6274 13.8726 32 20.5 32C27.1274 32 32.5 26.6274 32.5 20C32.5 13.3726 27.1274 8 20.5 8C13.8726 8 8.5 13.3726 8.5 20Z" fill="black"/>
</svg>
