<svg width="3px" height="12px" viewBox="0 0 3 12" version="1.1" xmlns="http://www.w3.org/2000/svg" xmlns:xlink="http://www.w3.org/1999/xlink">
    <g stroke="none" stroke-width="1" fill="none" fill-rule="evenodd">
        <g transform="translate(-887.000000, -147.000000)" fill="red">
            <g transform="translate(25.000000, 132.000000)">
                <g id="Group-2">
                    <path d="M858.304157,21.0224609 C858.304157,20.6396465 858.406695,20.3502614 858.611774,20.1542969 C858.816853,19.9583324 859.115353,19.8603516 859.507282,19.8603516 C859.885539,19.8603516 860.178342,19.960611 860.3857,20.1611328 C860.593058,20.3616546 860.696735,20.6487612 860.696735,21.0224609 C860.696735,21.3824888 860.591919,21.6661773 860.382282,21.8735352 C860.172646,22.080893 859.880982,22.1845703 859.507282,22.1845703 C859.124468,22.1845703 858.828247,22.0831716 858.61861,21.8803711 C858.408974,21.6775706 858.304157,21.3916034 858.304157,21.0224609 Z M862.289509,21.0224609 C862.289509,20.6396465 862.392047,20.3502614 862.597126,20.1542969 C862.802205,19.9583324 863.102983,19.8603516 863.49947,19.8603516 C863.877727,19.8603516 864.17053,19.960611 864.377888,20.1611328 C864.585245,20.3616546 864.688923,20.6487612 864.688923,21.0224609 C864.688923,21.3824888 864.584106,21.6661773 864.37447,21.8735352 C864.164833,22.080893 863.873169,22.1845703 863.49947,22.1845703 C863.112098,22.1845703 862.813598,22.0831716 862.603962,21.8803711 C862.394325,21.6775706 862.289509,21.3916034 862.289509,21.0224609 Z M866.281696,21.0224609 C866.281696,20.6396465 866.384234,20.3502614 866.589313,20.1542969 C866.794392,19.9583324 867.092892,19.8603516 867.484821,19.8603516 C867.863078,19.8603516 868.155881,19.960611 868.363239,20.1611328 C868.570597,20.3616546 868.674274,20.6487612 868.674274,21.0224609 C868.674274,21.3824888 868.569458,21.6661773 868.359821,21.8735352 C868.150185,22.080893 867.858521,22.1845703 867.484821,22.1845703 C867.102007,22.1845703 866.805786,22.0831716 866.596149,21.8803711 C866.386513,21.6775706 866.281696,21.3916034 866.281696,21.0224609 Z" id="…" transform="translate(863.489216, 21.022461) rotate(90.000000) translate(-863.489216, -21.022461) "></path>
                </g>
            </g>
        </g>
    </g>
</svg>