<svg width="41" height="40" viewBox="0 0 41 40" fill="none" xmlns="http://www.w3.org/2000/svg">
<path fill-rule="evenodd" clip-rule="evenodd" d="M20.5 5C21.6142 5 22.4565 5.29664 23.0268 5.88991C23.5972 6.48319 23.8824 7.34673 23.8824 8.48055C23.8824 9.57482 23.5905 10.4219 23.0069 11.0218C22.4233 11.6216 21.5877 11.9216 20.5 11.9216C19.4521 11.9216 18.6265 11.6183 18.0229 11.0119C17.4194 10.4054 17.1177 9.56164 17.1177 8.48055C17.1177 7.3731 17.4128 6.51615 18.0031 5.90969C18.5933 5.30323 19.4256 5 20.5 5ZM20.5 16.5293C21.6142 16.5293 22.4565 16.826 23.0268 17.4192C23.5972 18.0125 23.8824 18.8827 23.8824 20.0297C23.8824 21.1239 23.5905 21.971 23.0069 22.5709C22.4233 23.1707 21.5877 23.4707 20.5 23.4707C19.4521 23.4707 18.6265 23.1674 18.0229 22.561C17.4194 21.9545 17.1177 21.1107 17.1177 20.0297C17.1177 18.909 17.4128 18.0455 18.0031 17.439C18.5933 16.8326 19.4256 16.5293 20.5 16.5293ZM20.5 28.0784C21.6142 28.0784 22.4565 28.3751 23.0268 28.9684C23.5972 29.5616 23.8824 30.4252 23.8824 31.559C23.8824 32.6533 23.5905 33.5003 23.0069 34.1002C22.4233 34.7001 21.5877 35 20.5 35C19.4521 35 18.6265 34.6968 18.0229 34.0903C17.4194 33.4838 17.1177 32.6401 17.1177 31.559C17.1177 30.4515 17.4128 29.5946 18.0031 28.9881C18.5933 28.3817 19.4256 28.0784 20.5 28.0784Z" fill="black"/>
</svg>
