
<svg width="26px" height="20px" viewBox="0 0 26 20" version="1.1" xmlns="http://www.w3.org/2000/svg" xmlns:xlink="http://www.w3.org/1999/xlink">
    <g id="Weak-supervision" stroke="none" stroke-width="1" fill="none" fill-rule="evenodd">
        <g id="WS" transform="translate(-1223.000000, -189.000000)" fill="#333346" fill-rule="nonzero">
            <g id="noun_automation_2169311" transform="translate(1223.000000, 189.000000)">
                <path d="M25.4686964,19.1004689 L25.4686964,14.4901319 C25.4686964,14.1263336 25.1740759,13.831713 24.8102775,13.831713 L23.1630012,13.831713 L23.1630012,9.87874156 C23.1630012,9.51494317 22.8683807,9.22032266 22.5045823,9.22032266 L13.392416,9.22032266 L13.392416,5.92682355 L15.0396922,5.92682355 C15.4034906,5.92682355 15.6981111,5.63220304 15.6981111,5.26840465 L15.6981111,0.658418898 C15.6981111,0.294620509 15.4034906,0 15.0396922,0 L10.4290042,0 C10.0652058,0 9.77058528,0.294620509 9.77058528,0.658418898 L9.77058528,5.26875581 C9.77058528,5.6325542 10.0652058,5.92717471 10.4290042,5.92717471 L12.0755782,5.92717471 L12.0755782,9.22067382 L2.96341177,9.22067382 C2.59961339,9.22067382 2.30499288,9.51529433 2.30499288,9.87909272 L2.30499288,13.8320642 L0.658418898,13.8320642 C0.294620509,13.8320642 0,14.1266847 0,14.4904831 L0,19.1004689 C0,19.4642672 0.294620509,19.7588877 0.658418898,19.7588877 L5.26910696,19.7588877 C5.63290535,19.7588877 5.92752586,19.4642672 5.92752586,19.1004689 L5.92752586,14.4901319 C5.92752586,14.1263336 5.63290535,13.831713 5.26910696,13.831713 L3.62183067,13.831713 L3.62183067,10.5371605 L12.0755782,10.5371605 L12.0755782,13.831713 L10.4290042,13.831713 C10.0652058,13.831713 9.77058528,14.1263336 9.77058528,14.4901319 L9.77058528,19.1001177 C9.77058528,19.4639161 10.0652058,19.7585366 10.4290042,19.7585366 L15.0396922,19.7585366 C15.4034906,19.7585366 15.6981111,19.4639161 15.6981111,19.1001177 L15.6981111,14.4901319 C15.6981111,14.1263336 15.4034906,13.831713 15.0396922,13.831713 L13.392416,13.831713 L13.392416,10.5371605 L21.8461634,10.5371605 L21.8461634,13.831713 L20.2002918,13.831713 C19.8364934,13.831713 19.5418729,14.1263336 19.5418729,14.4901319 L19.5418729,19.1001177 C19.5418729,19.4639161 19.8364934,19.7585366 20.2002918,19.7585366 L24.8102775,19.7585366 C25.1744271,19.7588877 25.4686964,19.4642672 25.4686964,19.1004689 Z M11.0874231,1.3168378 L14.3812733,1.3168378 L14.3812733,4.61033691 L11.0874231,4.61033691 L11.0874231,1.3168378 Z M4.61068807,18.44205 L1.3168378,18.44205 L1.3168378,15.1485508 L4.61068807,15.1485508 L4.61068807,18.44205 Z M14.3812733,18.44205 L11.0874231,18.44205 L11.0874231,15.1485508 L14.3812733,15.1485508 L14.3812733,18.44205 Z M24.1518586,18.44205 L20.8583595,18.44205 L20.8583595,15.1485508 L24.1518586,15.1485508 L24.1518586,18.44205 Z" id="Shape"></path>
            </g>
        </g>
    </g>
</svg>