
<svg width="15px" height="20px" viewBox="0 0 15 20" version="1.1" xmlns="http://www.w3.org/2000/svg" xmlns:xlink="http://www.w3.org/1999/xlink">
    <!-- Generator: Sketch 48.1 (47250) - http://www.bohemiancoding.com/sketch -->
    <desc>Created with Sketch.</desc>
    <defs></defs>
    <g id="Clasifier-Feedback-" stroke="none" stroke-width="1" fill="none" fill-rule="evenodd">
        <g id="Annotation-States-of-the-list-Copy" transform="translate(-936.000000, -2481.000000)" fill="#000000">
            <g id="noun_Unlock_3143511" transform="translate(936.000000, 2481.000000)">
                <path d="M2.30666756,7.99302914 L3.43775659,7.99302914 L3.43775659,4.95165642 C3.43775659,-1.63379526 11.7072742,-1.63379526 11.7072742,4.95165642 L11.7072742,8.02520234 L10.5007792,8.02520234 L10.5007792,4.95165642 C10.5007792,-0.0502706235 4.64425155,-0.0502706235 4.64425155,4.95165642 L4.64425155,7.99302914 L12.8383632,7.99302914 C14.0197228,7.99302914 15,8.94817099 15,10.154666 L15,16.9914708 C15,18.1979657 14.0197228,19.1531076 12.8383632,19.1531076 L2.30666756,19.1531076 C1.1001726,19.1531076 0.145030749,18.1979657 0.145030749,16.9914708 L0.145030749,10.154666 C0.145030749,8.94817099 1.1001726,7.99302914 2.30666756,7.99302914 Z M2.30666756,9.1995241 L12.8383632,9.1995241 C13.3662047,9.1995241 13.793505,9.6268244 13.793505,10.154666 L13.793505,16.9914708 C13.793505,17.5193123 13.3662047,17.9466126 12.8383632,17.9466126 L2.30666756,17.9466126 C1.77882601,17.9466126 1.35152571,17.5193123 1.35152571,16.9914708 L1.35152571,10.154666 C1.35152571,9.6268244 1.77882601,9.1995241 2.30666756,9.1995241 Z" id="Shape"></path>
            </g>
        </g>
    </g>
</svg>