
<svg width="20px" height="21px" viewBox="0 0 20 21" version="1.1" xmlns="http://www.w3.org/2000/svg" xmlns:xlink="http://www.w3.org/1999/xlink">
    <!-- Generator: Sketch 48.1 (47250) - http://www.bohemiancoding.com/sketch -->
    <desc>Created with Sketch.</desc>
    <defs></defs>
    <g id="Dashboard-final" stroke="none" stroke-width="1" fill="none" fill-rule="evenodd">
        <g id="DB-white-column-hidden-Copy-3" transform="translate(-24.000000, -126.000000)" fill="#FFFFFF" fill-rule="nonzero">
            <g id="noun_1350696_cc" transform="translate(24.000000, 126.000000)">
                <g id="Group">
                    <g id="Shape">
                        <path d="M13.333298,20.4308772 C13.1250116,20.504496 12.8964823,20.3953262 12.8228636,20.1870397 C12.7492449,19.9787533 12.8584147,19.750224 13.0667011,19.6766054 C16.7126111,18.3879611 19.1999996,14.9303588 19.1999996,10.9999996 C19.1999996,5.91897988 15.0810192,1.79999956 9.99999956,1.79999956 C4.91897988,1.79999956 0.799999563,5.91897988 0.799999563,10.9999996 C0.799999563,14.9303588 3.28738804,18.3879611 6.933298,19.6766054 C7.14158444,19.750224 7.2507542,19.9787533 7.17713552,20.1870397 C7.10351684,20.3953262 6.87498756,20.504496 6.66670112,20.4308772 C2.70353656,19.0300996 -4.36734979e-07,15.2720394 -4.36734979e-07,10.9999996 C-4.36734979e-07,5.47715208 4.47715208,0.999999563 9.99999956,0.999999563 C15.522847,0.999999563 19.9999996,5.47715208 19.9999996,10.9999996 C19.9999996,15.2720394 17.2964626,19.0300996 13.333298,20.4308772 Z M10.2733062,6.0768966 L15.0757102,10.9091017 C15.4525101,11.2862768 14.8875101,11.8518396 14.5107102,11.4746644 L10.6821502,7.6408074 C10.5271214,7.48556416 10.3995752,7.53541796 10.3995752,7.75446968 L10.3995752,17.4042722 C10.3995752,17.6196416 10.2206791,17.8009004 9.99999956,17.8009004 C9.77778148,17.8009004 9.60042388,17.6233239 9.60042388,17.4042722 L9.60042388,7.75446968 C9.60042388,7.53910032 9.47391076,7.48452964 9.31784892,7.6408074 L5.48928888,11.4746644 C5.11248904,11.8518396 4.54748904,11.2862768 4.92428888,10.9091017 L9.71306184,6.0768966 C9.86749652,5.92106128 10.1183791,5.92100812 10.2733062,6.0768966 Z" transform="translate(10.000000, 10.726925) rotate(90.000000) translate(-10.000000, -10.726925) "></path>
                    </g>
                </g>
            </g>
        </g>
    </g>
</svg>