
<svg width="12px" height="15px" viewBox="0 0 12 15" version="1.1" xmlns="http://www.w3.org/2000/svg" xmlns:xlink="http://www.w3.org/1999/xlink">
    <g id="Workspace-flow" stroke="none" stroke-width="1" fill="none" fill-rule="evenodd">
        <g id="1" transform="translate(-1325.000000, -146.000000)" fill="#4A4A4A" fill-rule="nonzero">
            <g id="Group-21" transform="translate(373.000000, -500.000000)">
                <g id="Group-22" transform="translate(952.000000, 644.000000)">
                    <g id="noun-logout-1021521" transform="translate(0.000000, 2.000000)">
                        <path d="M6.31856354,13.9491713 L0.944751381,13.9491713 C0.843232044,13.9491713 0.76061768,13.8657812 0.76061768,13.7634829 L0.76061768,0.954643094 C0.76061768,0.852348066 0.843232044,0.768954696 0.944751381,0.768954696 L6.31856354,0.768954696 C6.52354475,0.768954696 6.6898011,0.602562431 6.6898011,0.397717127 C6.6898011,0.192735912 6.52340884,0.026479558 6.31856354,0.026479558 L0.944751381,0.026479558 C0.433657459,0.026479558 0.018,0.442899448 0.018,0.954656354 L0.018,13.7634961 C0.018,14.275253 0.433657459,14.6916729 0.944751381,14.6916729 L6.31856354,14.6916729 C6.52354475,14.6916729 6.6898011,14.5252807 6.6898011,14.3204354 C6.68993059,14.1154541 6.52353812,13.9491978 6.31856354,13.9491978 L6.31856354,13.9491713 Z M11.8733702,7.09657459 L8.6898895,3.91335912 C8.54486188,3.76833149 8.30983425,3.76833149 8.16493923,3.91335912 C8.0199116,4.05838674 8.0199116,4.29341436 8.16493923,4.43830939 L10.714442,6.98781215 L3.47532597,6.98781215 C3.27034475,6.98781215 3.1040884,7.15420442 3.1040884,7.35904972 C3.1040884,7.56403094 3.27048066,7.73028729 3.47532597,7.73028729 L10.714442,7.73028729 L8.16493923,10.2796575 C8.0199116,10.4246851 8.0199116,10.6597127 8.16493923,10.8046077 C8.23758232,10.8772508 8.33236906,10.9133768 8.42741436,10.9133768 C8.52245967,10.9133768 8.61737569,10.8771182 8.6898895,10.8046077 L11.873105,7.62152486 C11.9427713,7.55185856 11.981874,7.45746298 11.981874,7.35904972 C11.981874,7.26063646 11.9428972,7.1661116 11.8733635,7.09657459 L11.8733702,7.09657459 Z" id="Shape"></path>
                    </g>
                </g>
            </g>
        </g>
    </g>
</svg>