

<svg width="17px" height="22px" viewBox="0 0 17 22" version="1.1" xmlns="http://www.w3.org/2000/svg" xmlns:xlink="http://www.w3.org/1999/xlink">
    <defs></defs>
    <g id="RUBRIX" stroke="none" stroke-width="1" fill="none" fill-rule="evenodd">
        <g id="Annotation-mode-small-screen-Copy-3" transform="translate(-1210.000000, -11.000000)" fill="#0508D9" fill-rule="nonzero">
            <g id="noun_logout_4079286" transform="translate(1210.000000, 11.000000)">
                <g id="Group">
                    <path d="M9.51148226,0 C11.736952,0 13.5490606,1.78914406 13.5490606,3.98956159 C13.5490606,4.55114822 13.0939457,5.00417536 12.5344468,5.00417536 C11.9749478,5.00417536 11.519833,4.55114822 11.519833,3.98956159 C11.519833,2.91022966 10.6200417,2.02922756 9.51356995,2.02922756 L4.0375783,2.02922756 C2.93110648,2.02922756 2.03131525,2.90814197 2.03131525,3.98956159 L2.03131525,18.0104384 C2.03131525,19.0897703 2.93110648,19.9707724 4.0375783,19.9707724 L9.51356995,19.9707724 C10.6200417,19.9707724 11.519833,19.091858 11.519833,18.0104384 C11.519833,17.4488518 11.9749478,16.9958246 12.5344468,16.9958246 C13.0939457,16.9958246 13.5490606,17.4488518 13.5490606,18.0104384 C13.5490606,20.2108559 11.736952,22 9.51148226,22 L4.03549061,22 C1.81002088,22 0,20.2108559 0,18.0104384 L0,3.98956159 C0,1.78914406 1.81002088,0 4.03549061,0 L9.51148226,0 Z M12.7787056,7.09394573 L15.9890425,10.3042739 C15.9913113,10.3065246 15.993572,10.3087882 15.9958246,10.3110647 L16.016275,10.333125 L16.0291804,10.3464926 C16.0303894,10.3478389 16.0315941,10.3491877 16.0327946,10.350539 L15.9958246,10.3110647 C16.0134273,10.3289468 16.0302322,10.3473067 16.0462401,10.3661012 C16.079088,10.4045053 16.1085303,10.4448635 16.1346229,10.4867361 C16.1382572,10.4925702 16.1419395,10.4986003 16.145553,10.5046592 C16.1511299,10.5140763 16.1565347,10.5235181 16.1617751,10.5330271 C16.3770059,10.9220231 16.3165694,11.4196751 15.9853862,11.7473904 L12.7745303,14.9102296 C12.5762004,15.1043841 12.3173278,15.2025052 12.0605428,15.2025052 C11.7995825,15.2025052 11.5365345,15.1022964 11.3382046,14.8997912 C10.9436326,14.4989561 10.9498956,13.8580376 11.348643,13.4634656 L12.79575,12.037575 L6.7724426,12.0375783 C6.21294363,12.0375783 5.75782881,11.5845511 5.75782881,11.0229645 C5.75782881,10.4613779 6.21294363,10.0083507 6.7724426,10.0083507 L12.8227,10.00835 L11.3423799,8.5281837 C10.9457203,8.1336117 10.9457203,7.48851774 11.3423799,7.09394573 C11.7390397,6.69728601 12.3820459,6.69728601 12.7787056,7.09394573 Z" id="Shape"></path>
                </g>
            </g>
        </g>
    </g>
</svg>