
<svg width="18px" height="17px" viewBox="0 0 18 17" version="1.1" xmlns="http://www.w3.org/2000/svg" xmlns:xlink="http://www.w3.org/1999/xlink">
    <!-- Generator: Sketch 48.1 (47250) - http://www.bohemiancoding.com/sketch -->
    <desc>Created with Sketch.</desc>
    <defs></defs>
    <g id="Dashboard" stroke="none" stroke-width="1" fill="none" fill-rule="evenodd">
        <g id="DASHBOARD" transform="translate(-1108.000000, -127.000000)" fill-rule="nonzero">
            <path d="M1111.5,143.5 C1109.84315,143.5 1108.5,142.156854 1108.5,140.5 C1108.5,138.843146 1109.84315,137.5 1111.5,137.5 C1113.15685,137.5 1114.5,138.843146 1114.5,140.5 C1114.5,142.156854 1113.15685,143.5 1111.5,143.5 Z M1111.5,142.5 C1112.60457,142.5 1113.5,141.604569 1113.5,140.5 C1113.5,139.395431 1112.60457,138.5 1111.5,138.5 C1110.39543,138.5 1109.5,139.395431 1109.5,140.5 C1109.5,141.604569 1110.39543,142.5 1111.5,142.5 Z" id="Oval-3" fill="#F38959"></path>
            <path d="M1122.5,133.5 C1120.84315,133.5 1119.5,132.156854 1119.5,130.5 C1119.5,128.843146 1120.84315,127.5 1122.5,127.5 C1124.15685,127.5 1125.5,128.843146 1125.5,130.5 C1125.5,132.156854 1124.15685,133.5 1122.5,133.5 Z M1122.5,132.5 C1123.60457,132.5 1124.5,131.604569 1124.5,130.5 C1124.5,129.395431 1123.60457,128.5 1122.5,128.5 C1121.39543,128.5 1120.5,129.395431 1120.5,130.5 C1120.5,131.604569 1121.39543,132.5 1122.5,132.5 Z" id="Oval-3" fill="#F38959"></path>
            <path d="M1111.5,133.5 C1109.84315,133.5 1108.5,132.156854 1108.5,130.5 C1108.5,128.843146 1109.84315,127.5 1111.5,127.5 C1113.15685,127.5 1114.5,128.843146 1114.5,130.5 C1114.5,132.156854 1113.15685,133.5 1111.5,133.5 Z M1111.5,132.5 C1112.60457,132.5 1113.5,131.604569 1113.5,130.5 C1113.5,129.395431 1112.60457,128.5 1111.5,128.5 C1110.39543,128.5 1109.5,129.395431 1109.5,130.5 C1109.5,131.604569 1110.39543,132.5 1111.5,132.5 Z" id="Oval-3" fill="#F38959"></path>
            <polygon id="Line-8" fill="#F48E5F" points="1112 138 1111 138 1111 133 1112 133"></polygon>
            <polygon id="Line-8" fill="#F48E5F" points="1113.5 131.5 1113.5 130.5 1120 130.5 1120 131.5"></polygon>
        </g>
    </g>
</svg>