
<svg width="41px" height="39px" viewBox="0 0 41 39" version="1.1" xmlns="http://www.w3.org/2000/svg" xmlns:xlink="http://www.w3.org/1999/xlink">
    <g id="Rubrix" stroke="none" stroke-width="1" fill="none" fill-rule="evenodd">
        <g id="Pagination" transform="translate(-99.000000, -549.000000)" fill="#4A4A4A" fill-rule="nonzero">
            <g id="noun_the-end_3292769" transform="translate(99.000000, 549.000000)">
                <path d="M4.59329644,9.02354917 C4.67940994,9.5887036 4.79960546,10.1184759 4.9484392,10.600944 L9.4805665,10.600944 C9.62784389,10.1233228 9.74693557,9.59959041 9.83264455,9.0412848 L4.59329644,9.02354917 Z M9.9044835,8.49520972 C9.95901748,8.00014086 9.98792309,7.48248255 9.98792309,6.94937154 C9.98792309,6.47066032 9.96461897,6.00439901 9.92038982,5.55575678 L1.45362302,5.52701779 L1.45362302,5.52808727 C1.39230143,5.52808727 1.3307056,5.53247491 1.27506778,5.54408842 C1.22496975,5.55454332 1.17727137,5.57084612 1.13614121,5.59519062 C1.02137577,5.66313036 0.91799844,5.8238411 0.838453154,6.05134667 C0.750035983,6.30421825 0.698834105,6.62842312 0.698834105,6.99631921 C0.698834105,7.38202634 0.758853018,7.73120644 0.858959959,8.00046307 C0.947192012,8.23779969 1.05721983,8.40199996 1.17159446,8.45348608 C1.20798016,8.46986429 1.27730975,8.46855485 1.34600172,8.46725913 C1.36811972,8.46684779 1.39020345,8.46642959 1.41574268,8.46648444 L9.9044835,8.49520972 Z M9.8550368,5.00921551 C9.71093382,3.98785704 9.45591857,3.07642247 9.12102208,2.34287895 C9.11643531,2.33282853 9.11179368,2.3228878 9.10717948,2.31290594 L5.32201135,2.31290594 C4.98247323,3.04625064 4.72317973,3.96242934 4.57616287,4.99130163 L9.8550368,5.00921551 Z M5.13673706,1.49280267 C5.69900472,0.556070658 6.41793586,0 7.21460227,0 L28.2335151,0 C28.5409389,0 28.8655717,0.0253042965 29.1866393,0.0923459427 C29.5132673,0.160539342 29.8328402,0.271868649 30.1225408,0.443370216 C30.8348626,0.865055931 31.4292926,1.72741758 31.8373855,2.89460997 C32.2252597,4.00397474 32.4498815,5.39660914 32.4498815,6.94937154 C32.4498815,8.57759437 32.1869885,10.0772116 31.7484953,11.2566756 C31.2881377,12.4949545 30.6257837,13.391382 29.8573167,13.7373331 C29.4525079,13.9195638 29.03688,13.9117277 28.6251121,13.9039671 C28.5414531,13.9023903 28.457945,13.9008204 28.3786465,13.9009918 L7.21460227,13.9020612 C6.41861462,13.8987431 5.70022512,13.3435842 5.13811515,12.4082439 C4.62706308,11.5578454 4.23874332,10.3797319 4.04065485,9.02168443 L1.41574268,9.01279947 C1.22435269,9.01602849 1.09289248,9.01850339 0.946629806,8.95266149 C0.695508862,8.83961826 0.485764905,8.56469884 0.346886322,8.19113311 C0.224010041,7.86062787 0.150340492,7.44438556 0.150340492,6.99631921 C0.150340492,6.56906668 0.213328128,6.18247517 0.322101267,5.8713852 C0.444435911,5.52149212 0.629950163,5.25863868 0.857602437,5.12386296 C0.953431127,5.06713225 1.05780261,5.03058465 1.16365502,5.00848195 C1.26398135,4.98753787 1.36229198,4.97963327 1.45362302,4.97963327 L4.02474168,4.98943003 C4.21727665,3.58531923 4.61229489,2.36649675 5.13673706,1.49280267 Z M33.2605688,8.46541495 L34.992835,8.46541495 L34.992835,8.46648444 C35.0174144,8.46642959 35.0376264,8.46684779 35.0578658,8.46725913 C35.1151011,8.46843831 35.172878,8.46963805 35.1969089,8.45777088 C35.2962205,8.40873223 35.3940581,8.2456083 35.4746044,8.00795633 C35.5668679,7.73573118 35.6221903,7.38388423 35.6221903,6.99631921 C35.6221903,6.6248993 35.5752392,6.29816468 35.4941787,6.04384656 C35.4214348,5.81562114 35.3282046,5.6552669 35.225794,5.58876685 C35.1928432,5.56737029 35.1532077,5.55271972 35.1108023,5.54301208 C35.0634947,5.53218011 35.0108462,5.52808727 34.9583005,5.52808727 L33.3020143,5.52808727 L33.3020143,4.97963327 L34.9583005,4.97963327 C35.0449213,4.97963327 35.1380624,4.98783266 35.2329244,5.00955829 C35.3327022,5.03240826 35.4317122,5.07060122 35.5236123,5.13028673 C35.7333631,5.26649528 35.9035264,5.52971207 36.0148226,5.87888531 C36.1135172,6.18852873 36.1706839,6.57258364 36.1706839,6.99631921 C36.1706839,7.44253453 36.1041242,7.85610312 35.9931091,8.18363985 C35.8666059,8.55690394 35.6728917,8.83289285 35.439014,8.94837669 C35.2965428,9.01872278 35.1712668,9.01614504 35.0471564,9.01357416 C35.0274792,9.01316968 35.0078089,9.01276519 34.992835,9.01279947 L34.992835,9.01386896 L33.2605688,9.01386896 L33.2605688,8.46541495 Z M40.8035009,37.9725899 C40.9484541,38.0151842 41.0314274,38.1672157 40.9888301,38.3121584 C40.9462327,38.4571011 40.7941902,38.5400684 40.6492371,38.4974741 C37.5355965,37.5779979 35.2979209,35.0769379 33.6877973,32.0999501 C32.0939709,29.1531068 31.1155611,25.7400775 30.5121153,22.9505788 C30.4840735,22.8209311 30.4564569,22.6857578 30.4273593,22.533884 C30.4001197,22.3916973 30.3724002,22.2375406 30.3425279,22.0614457 C30.3417463,22.0567633 30.3411018,22.0520946 30.3405602,22.0474327 L30.3230084,21.9200748 L30.3228644,21.9200954 C30.229737,21.2458809 30.2014005,21.0408345 29.6266135,20.7174797 C29.1991587,20.4770032 28.7655951,20.2646281 28.3732576,20.1471287 C28.0183205,20.0408315 27.7042736,20.0125175 27.476258,20.1175602 L24.3389705,21.5629353 C23.1811965,22.0963274 21.3899329,21.1267087 20.0010648,20.3749017 L19.6753624,20.1986285 C18.8043409,19.7321341 17.511082,20.5847127 16.4467782,21.2863499 C16.2721173,21.401491 16.3167715,21.3733142 16.2064557,21.4454016 C15.073597,22.1856363 13.5957221,21.2071806 12.3904897,20.409228 C12.2573428,20.3210846 12.1278024,20.2353064 11.9995508,20.1525995 C11.6915237,19.9539632 11.1497217,19.9979904 10.5249121,20.1831279 C9.71587026,20.4228503 8.79472323,20.8998955 8.03357179,21.4137558 C7.76446026,21.5954175 7.64174852,21.8813746 7.59917171,22.1988403 C7.55167902,22.5528879 7.60001502,22.9492556 7.66438074,23.300321 C7.88909857,24.5258826 8.80740029,27.8111153 10.0160265,31.2368138 C10.8610975,33.6320701 11.8472479,36.0915298 12.8352494,37.9531541 C12.9062451,38.0868535 12.8553997,38.2528019 12.7216907,38.3237925 C12.5879816,38.394783 12.4220212,38.3439413 12.3510255,38.2102419 C11.3505663,36.3251438 10.3534461,33.8388236 9.49967465,31.4189142 C8.28280729,27.9698516 7.35533887,24.6464123 7.12659647,23.3988782 C7.05398277,23.0028602 7.00018926,22.5503376 7.05710918,22.1259919 C7.11893127,21.6650711 7.30717428,21.2430906 7.72718326,20.9595673 C8.52793594,20.4189699 9.50422029,19.9149681 10.3706482,19.6582437 C11.1392729,19.4304913 11.8374504,19.3967682 12.29523,19.6919805 C12.4209448,19.7730488 12.554928,19.8617681 12.6925862,19.9529006 C13.7627521,20.6614346 15.0750094,21.5302337 15.9064983,20.9869215 C16.1741906,20.8120058 16.1350624,20.8377763 16.1468207,20.8300225 C17.3335621,20.0476666 18.7755998,19.0970038 19.9324688,19.7165923 C20.1384487,19.8269001 20.198783,19.8595606 20.2603103,19.8928654 C21.5445464,20.5880309 23.2008668,21.4846092 24.1097139,21.0658989 L27.2470014,19.6205238 C27.6117496,19.4524912 28.0546308,19.4799756 28.5296605,19.6222445 C28.9672762,19.7533045 29.4368073,19.9822772 29.8944292,20.2397215 C30.7062409,20.6964191 30.7432573,20.9642978 30.8649269,21.845108 L30.8647692,21.8451286 L30.8825541,21.9720751 C30.9106987,22.1379276 30.9376983,22.2878064 30.9651436,22.4310489 C30.9907651,22.5647894 31.0178607,22.6966651 31.0477604,22.8348824 C31.6430131,25.586531 32.6060513,28.949363 34.1698683,31.8407234 C35.7173745,34.7019325 37.8535926,37.1014667 40.8035009,37.9725899 Z M5.90192679,12.5580816 L8.52865584,12.5580816 C8.64948213,12.4040414 8.76533083,12.229825 8.87527638,12.0374547 L5.55449036,12.0374547 C5.57195303,12.0679214 5.58955967,12.0979972 5.60733772,12.1275863 C5.70167177,12.2845538 5.80005781,12.4284476 5.90192679,12.5580816 Z M8.35314474,12.7637518 L6.0777327,12.7637518 C6.42876861,13.1397033 6.81470243,13.3502891 7.21460227,13.3502891 C7.61604474,13.3502891 8.00234879,13.139861 8.35314474,12.7637518 Z M5.06181283,10.9437278 C5.12931868,11.1344389 5.20154158,11.3164982 5.27810443,11.4890007 L9.15105897,11.4890007 C9.22758754,11.3164365 9.29974187,11.1343498 9.36719287,10.9437278 L5.06181283,10.9437278 Z M8.81854843,1.76445194 C8.35926044,1.00070917 7.80318391,0.548454003 7.21460227,0.548454003 C6.62820089,0.548454003 6.07176783,1.0012302 5.61141714,1.76445194 L8.81854843,1.76445194 Z M25.2856019,0.548454003 C26.7221273,1.06789479 28.1857139,2.13997839 29.3668058,3.49746375 C30.6235897,4.94196134 31.5647842,6.71370772 31.8183939,8.49111688 C31.8726194,7.9972889 31.9013879,7.48102914 31.9013879,6.94937154 C31.9013879,5.45596557 31.6885518,4.12571781 31.3210337,3.07457144 C30.9557301,2.02976656 30.443437,1.26955447 29.8440021,0.914697874 C29.6090068,0.775582517 29.3460933,0.684498018 29.0752266,0.62795241 C28.7988201,0.570241338 28.5109158,0.548454003 28.2335151,0.548454003 L25.2856019,0.548454003 Z M31.4784993,10.3106747 L31.4760379,10.310284 C31.5222417,10.0215366 31.5443871,9.72690029 31.5443871,9.42830822 L31.545059,9.42830822 C31.545059,7.43628901 30.5376271,5.3651553 29.1083556,3.72241216 C27.6792006,2.07980614 25.8343903,0.871219183 24.158379,0.603045743 C23.9521865,0.570049379 23.7469334,0.551525345 23.5436822,0.548454003 L14.7968408,0.548454003 C17.2618328,1.26491318 19.3966797,2.79202165 21.1019326,4.63931071 C23.6219385,7.36922679 25.2064063,10.8056888 25.5303055,13.3536072 L28.3786465,13.3536072 L28.3786465,13.3546767 C28.4655965,13.3544848 28.5495708,13.3560684 28.6336823,13.3576521 C28.9839161,13.3642541 29.3374408,13.3709178 29.6323521,13.2381577 C30.2640727,12.9537637 30.8267106,12.1680485 31.2364217,11.0660056 C31.3249417,10.8279148 31.4058856,10.5755232 31.4784993,10.3106747 Z M10.4944432,5.83121095 C11.8007699,6.75552733 12.9538817,7.89530387 13.9284246,9.1265077 C14.999427,10.4795849 15.8548987,11.9436828 16.4611693,13.3536072 L25.1857418,13.3536072 C24.858394,10.8728058 23.3089338,7.53451026 20.8501878,4.87096397 C18.8368734,2.68995436 16.2156841,0.966677602 13.1613632,0.548454003 L8.5301642,0.548454003 C8.94549727,0.914567617 9.31437979,1.45054429 9.61809442,2.11577786 C10.0707045,3.10714275 10.385581,4.39548177 10.4944432,5.83121095 Z M16.0888381,13.3536072 C15.4978362,12.0114717 14.6784622,10.6240065 13.6606089,9.33807383 C12.7618267,8.20258209 11.7083693,7.14671215 10.5210795,6.27188003 C10.5311923,6.49483343 10.5364167,6.72081705 10.5364167,6.94937154 C10.5364167,8.83081558 10.1854768,10.5402164 9.61809442,11.7829652 C9.31346107,12.4502075 8.94327587,12.9874182 8.52640701,13.3536072 L16.0888381,13.3536072 Z" id="Shape"></path>
            </g>
        </g>
    </g>
</svg>