
<svg width="26px" height="21px" viewBox="0 0 26 21" version="1.1" xmlns="http://www.w3.org/2000/svg" xmlns:xlink="http://www.w3.org/1999/xlink">
    <!-- Generator: Sketch 48.1 (47250) - http://www.bohemiancoding.com/sketch -->
    <desc>Created with Sketch.</desc>
    <defs>
        <polygon id="path-1" points="0 0.825126387 25.7569057 0.825126387 25.7569057 20.9999695 0 20.9999695"></polygon>
    </defs>
    <g id="Symbols" stroke="none" stroke-width="1" fill="none" fill-rule="evenodd">
        <g id="Page-1" transform="translate(0.000000, -1.000000)">
            <g id="Group-3" transform="translate(0.000000, 0.175100)">
                <g id="Clip-2"></g>
                <path d="M22.3128,8.7167 L24.5188,5.1617 C25.0288,4.3407 23.7648,3.5317 23.2548,4.3527 L20.9848,8.0117 C20.9588,8.0517 20.9568,8.0917 20.9398,8.1317 C18.0478,7.0597 14.5778,6.6497 12.6998,6.3967 C12.5798,6.3807 12.4538,6.3977 12.3278,6.4397 C12.1798,4.7987 11.4788,3.2437 11.3988,1.5767 C11.3528,0.6207 9.8538,0.5507 9.8998,1.5167 C9.9428,2.4057 10.0518,3.2767 10.2748,4.1397 C10.5298,5.1267 10.8778,6.0637 10.8558,7.0967 C10.8448,7.6097 11.2608,7.8587 11.6578,7.8427 C11.8488,7.9367 12.1578,7.9717 12.6388,7.8957 C15.6278,7.4237 24.9588,9.2447 24.0708,14.0347 C23.2648,18.3807 18.6578,19.1867 15.0408,19.4257 C11.1068,19.6857 5.9998,19.7867 3.2098,16.6627 C-0.6072,12.3897 4.7578,8.5377 9.2538,8.4817 C10.2148,8.4687 10.2818,6.9697 9.3148,6.9827 C8.2748,6.9957 6.9658,7.2577 5.6618,7.7307 C5.6378,7.6437 5.6058,7.5567 5.5458,7.4727 C4.6678,6.2377 4.1928,4.7017 3.2188,3.5517 C2.5938,2.8137 1.4928,3.8327 2.1158,4.5687 C2.5908,5.1297 2.8378,5.8687 3.1858,6.5107 C3.5238,7.1337 3.9108,7.7237 4.3168,8.3037 C1.7238,9.5737 -0.4622,11.7107 0.0838,14.5117 C1.3468,20.9817 10.1318,21.2127 14.9788,20.9247 C19.6498,20.6467 25.1918,19.3787 25.7368,13.5677 C25.9508,11.2927 24.4328,9.7637 22.3128,8.7167" id="Fill-1" fill="#000000" mask="url(#mask-2)"></path>
            </g>
            <path d="M11.5437,13.3063 C11.7027,13.1503 11.7627,12.9723 11.7657,12.7973 C12.1637,11.9373 13.5567,12.6533 13.9787,13.1363 C14.6077,13.8553 14.3637,15.0073 13.6627,15.5803 C12.1307,16.8333 10.1067,14.7173 11.5437,13.3063 M10.4167,16.5493 C11.7247,17.8493 13.9177,17.7013 15.0707,16.2823 C16.2107,14.8803 16.0567,12.8043 14.6037,11.6953 C13.2137,10.6363 11.0897,10.5713 10.3227,12.3583 C10.3057,12.3993 10.3097,12.4333 10.2997,12.4733 C9.3237,13.6623 9.2717,15.4103 10.4167,16.5493" id="Fill-4" fill="#000000"></path>
        </g>
    </g>
</svg>