
<svg width="60px" height="40px" viewBox="0 0 60 40" version="1.1" xmlns="http://www.w3.org/2000/svg" xmlns:xlink="http://www.w3.org/1999/xlink">
    <!-- Generator: Sketch 48.1 (47250) - http://www.bohemiancoding.com/sketch -->
    <desc>Created with Sketch.</desc>
    <defs>
        <polygon id="path-1" points="0.0002 0.0003 59.63995 0.0003 59.63995 39.5071458 0.0002 39.5071458"></polygon>
    </defs>
    <g id="Symbols" stroke="none" stroke-width="1" fill="none" fill-rule="evenodd">
        <g id="eye" transform="translate(22.000000, 15.000000)">
            <g id="Page-1" transform="translate(-22.000000, -15.000000)">
                <g id="Clip-2"></g>
                <path d="M59.1322,7.8503 C58.6812,6.9483 57.7782,6.0443 56.4242,6.4963 C55.0702,6.9483 54.6182,8.3023 55.0702,9.2043 C55.9722,12.8163 55.0702,15.9753 52.3612,18.6843 C46.0422,24.5523 31.1462,25.9063 20.7642,21.8433 C18.0552,20.4903 15.7992,18.6843 14.8962,16.4273 C12.6392,10.5593 16.2502,3.3363 16.2502,3.3363 C16.7012,2.4343 16.2502,1.0793 15.3472,0.1773 C14.4442,-0.2747 13.0902,0.1773 12.1872,1.0793 C12.1872,1.5313 9.4792,7.3993 9.9302,13.2673 L1.8052,15.0733 C0.4512,15.5243 0.0002,16.4273 0.0002,17.7813 C0.0002,18.6843 1.3542,19.5863 2.2572,19.5863 L2.7082,19.5863 L10.3822,18.2333 C11.2842,20.4903 13.0902,22.7463 14.8962,24.1003 L10.3822,30.8713 C9.4792,31.7743 9.9302,33.1283 10.8332,34.0313 C11.2842,34.4833 11.7362,34.4833 12.1872,34.4833 C13.0902,34.4833 13.5422,34.0313 13.9932,33.5793 L18.9582,26.3583 C21.2152,27.2603 23.4722,27.7113 25.7292,28.1633 L25.2782,37.1913 C25.2782,38.5453 26.1802,39.4483 27.5352,39.4483 C28.8892,39.4483 29.7922,38.5453 29.7922,37.1913 L30.2432,28.6153 L33.4032,28.6153 C35.4392,28.6153 37.4462,28.4833 39.3952,28.2293 C39.8502,31.4483 40.4872,34.6163 41.3962,37.7493 C42.2892,40.8333 47.1152,39.5223 46.2172,36.4193 C45.3492,33.4253 44.6832,30.3813 44.2692,27.2913 C48.5392,26.1783 52.2972,24.3643 55.0702,21.8433 C59.1322,18.2333 60.4862,13.2673 59.1322,7.8503" id="Fill-1" fill="#000000" mask="url(#mask-2)"></path>
            </g>
        </g>
    </g>
</svg>