<svg width="16" height="16" viewBox="0 0 16 16" fill="none" xmlns="http://www.w3.org/2000/svg">
<path fill-rule="evenodd" clip-rule="evenodd" d="M14.2789 0.716789C13.9996 0.437452 13.5467 0.437452 13.2674 0.716789L12.6434 1.34077C11.8457 0.959737 10.8615 1.09955 10.2008 1.76022L2.61402 9.34698L6.6603 13.3933L14.2471 5.80649C14.9077 5.14583 15.0475 4.16155 14.6665 3.36391L15.2905 2.73993C15.5698 2.46059 15.5698 2.0077 15.2905 1.72836L14.2789 0.716789ZM11.2261 6.80434L6.6603 11.3701L4.63716 9.34698L9.20295 4.7812L11.2261 6.80434ZM12.5267 5.50375L13.2355 4.79492C13.5148 4.51559 13.5148 4.06269 13.2355 3.78335L12.2239 2.77179C11.9446 2.49245 11.4917 2.49245 11.2124 2.77179L10.5035 3.48061L12.5267 5.50375Z" fill="black"/>
<path d="M0.5 15.4927L2.01763 9.9288L6.06363 13.9754L0.5 15.4927Z" fill="black"/>
</svg>
