
<svg width="19px" height="19px" viewBox="0 0 19 19" version="1.1" xmlns="http://www.w3.org/2000/svg" xmlns:xlink="http://www.w3.org/1999/xlink">
    <defs></defs>
    <g id="Text2text" stroke="none" stroke-width="1" fill="none" fill-rule="evenodd">
        <path d="M17.5456577,5.15180279 L4.92137536,18.2282307 L0,18.7489588 L0.503274265,13.6515358 L11.4803808,2.28120662 L11.4803808,2.28065733 L13.1275566,0.575107951 C13.8678842,-0.19170265 15.1586846,-0.19170265 15.8990122,0.575107951 L17.5456577,2.28120662 C17.9144646,2.66100712 18.1212722,3.17782985 18.119995,3.71650469 C18.119995,4.25865518 17.9158215,4.76839747 17.5456577,5.15180279 Z M1.78134697,16.9038894 L4.19642707,16.648469 L14.2110017,6.27510342 L12.043051,4.02905143 L2.02794605,14.4018677 L1.78134697,16.9038894 Z M14.5132844,1.6286486 C14.4153379,1.62832564 14.3213549,1.66868816 14.2523667,1.74070401 L13.167861,2.86345537 L15.336342,5.11005663 L16.4203174,3.986756 C16.5643577,3.83747434 16.5643577,3.59553504 16.4203174,3.44625339 L14.7742022,1.74070401 C14.7051466,1.66879202 14.6112075,1.62844832 14.5132844,1.6286486 Z" id="Shape" fill="#D8D8D8" fill-rule="nonzero"></path>
    </g>
</svg>