
<svg width="15px" height="18px" viewBox="0 0 15 18" fill="#60A018" version="1.1" xmlns="http://www.w3.org/2000/svg" xmlns:xlink="http://www.w3.org/1999/xlink">
    <g id="RUBRIX" stroke="none" stroke-width="1" fill="#60A018" fill-rule="evenodd">
        <g id="Explore" transform="translate(-1157.000000, -465.000000)" fill="#60A018">
            <g id="noun_Check_3837474" transform="translate(1157.000000, 465.000000)">
                <path d="M13.6754301,0 C14.4069698,0 15,0.619600754 15,1.38254169 L15,18 L13.9677695,18 C13.8231354,18 13.6577343,17.8850152 13.599723,17.7464869 L12.9897968,16.2900121 C12.6380712,15.4501078 11.6444254,14.7692308 10.7632991,14.7692308 L1.3219811,14.7692308 C0.591871103,14.7692308 0,14.1534187 0,13.3864153 L0,1.38281548 C0,0.6191076 0.592637824,0 1.32456988,0 L13.6754301,0 Z M10.7666276,4.19713239 C10.4785334,3.91259824 10.0355453,3.93886471 9.77773821,4.25788084 L6.59507801,8.18535467 L5.19904204,6.62290463 C4.92740138,6.31881527 4.48378451,6.31557535 4.20837106,6.61573053 C3.93327201,6.91577 3.93002322,7.40557604 4.20187348,7.7096654 L6.12159325,9.85761475 C6.25332639,10.005031 6.43305777,10.0875332 6.62033472,10.0875332 C6.62588911,10.0875332 6.63154829,10.0875332 6.63762667,10.0875332 C6.8308772,10.0824419 7.01354297,9.98906282 7.14223692,9.82972832 L10.8217522,5.28875304 C11.0795593,4.97077832 11.0547218,4.48155083 10.7666276,4.19713239 Z" id="Shape"></path>
            </g>
        </g>
    </g>
</svg>