
<svg width="15px" height="18px" viewBox="0 0 15 18" fill="#FF1E5E" version="1.1" xmlns="http://www.w3.org/2000/svg" xmlns:xlink="http://www.w3.org/1999/xlink">
    <g id="RUBRIX" stroke="none" stroke-width="1" fill="#FF1E5E" fill-rule="evenodd">
        <g id="Explore" transform="translate(-1146.000000, -749.000000)" fill-rule="nonzero">
            <path d="M1147.32457,749 L1159.67543,749 C1160.40736,749 1161,749.591794 1161,750.321809 L1161,761.795838 C1161,762.529003 1160.40813,763.117647 1159.67802,763.117647 L1150.2367,763.117647 C1149.35557,763.117647 1148.36193,763.768485 1148.0102,764.571335 L1147.40028,765.963554 C1147.34227,766.09597 1147.17686,766.205882 1147.03223,766.205882 L1146,766.205882 L1146,750.321547 C1146,749.592265 1146.59303,749 1147.32457,749 Z M1154.33572,756.114643 L1155.81752,754.632838 L1155.03762,753.852941 L1153.55582,755.334746 L1152.07401,753.852941 L1151.29412,754.632838 L1152.77592,756.114643 L1151.29412,757.596448 L1152.07401,758.376345 L1153.55582,756.89454 L1155.03762,758.376345 L1155.81752,757.596448 L1154.33572,756.114643 Z" id="Shape"></path>
        </g>
    </g>
</svg>