
<svg width="20px" height="15px" viewBox="0 0 20 15" version="1.1" xmlns="http://www.w3.org/2000/svg" xmlns:xlink="http://www.w3.org/1999/xlink">
    <!-- Generator: Sketch 48.1 (47250) - http://www.bohemiancoding.com/sketch -->
    <desc>Created with Sketch.</desc>
    <defs></defs>
    <g id="Symbols" stroke="none" stroke-width="1" fill="none" fill-rule="evenodd">
        <g id="bt_warning_back" transform="translate(-10.000000, -12.000000)" fill="#64B09F" fill-rule="nonzero">
            <g id="noun_1562286_cc" transform="translate(10.000000, 12.000000)">
                <g id="Group" transform="translate(0.000000, 0.291932)">
                    <path d="M2.2204568e-15,7.17454127 C2.2204568e-15,7.34929732 0.0874691737,7.58133621 0.176219604,7.69393832 L5.17615007,14.1133535 C5.4095887,14.4049786 5.78777803,14.4387744 6.0599356,14.1428068 C6.30324928,13.8782183 6.30931181,13.3621819 6.08431072,13.0748615 L2.07069753,7.9299043 L19.374997,7.9299043 C19.7201861,7.9299043 20,7.59179589 20,7.17469231 C20,6.75758873 19.7201861,6.41944256 19.374997,6.41944256 L2.07069753,6.41944256 L6.08431072,1.27448535 C6.30928056,0.987202706 6.29331173,0.483853914 6.0599356,0.206577831 C5.81352816,-0.0861423367 5.40602619,-0.060087523 5.17615007,0.236031099 L0.176219604,6.65540855 C0.029312642,6.82952267 0.00246876196,6.99721749 0,7.17454127 Z" id="Shape"></path>
                </g>
            </g>
        </g>
    </g>
</svg>