<svg width="40" height="40" viewBox="0 0 40 40" fill="none" xmlns="http://www.w3.org/2000/svg">
<path d="M20 29.5455C22.6359 29.5455 25.0222 28.4771 26.7496 26.7497L19.9999 20L20 10.4545C14.7282 10.4545 10.4545 14.7282 10.4545 20C10.4545 25.2718 14.7282 29.5455 20 29.5455Z" fill="black"/>
<path fill-rule="evenodd" clip-rule="evenodd" d="M5 20C5 28.2843 11.7157 35 20 35C28.2843 35 35 28.2843 35 20C35 11.7157 28.2843 5 20 5C11.7157 5 5 11.7157 5 20ZM7.72727 20C7.72727 26.778 13.222 32.2727 20 32.2727C26.778 32.2727 32.2727 26.778 32.2727 20C32.2727 13.222 26.778 7.72727 20 7.72727C13.222 7.72727 7.72727 13.222 7.72727 20Z" fill="black"/>
</svg>
