
<svg width="20px" height="20px" viewBox="0 0 20 20" version="1.1" xmlns="http://www.w3.org/2000/svg" xmlns:xlink="http://www.w3.org/1999/xlink">
    <g id="RUBRIX" stroke="none" stroke-width="1" fill="none" fill-rule="evenodd">
        <g id="Annotation-mode-small-screen-Copy-3" transform="translate(-1212.000000, -222.000000)" fill="#0508D9" fill-rule="nonzero">
            <g id="Group-28" transform="translate(1195.000000, 210.000000)">
                <g id="Group-26" transform="translate(8.000000, 12.000000)">
                    <g id="Group-32">
                        <g id="noun_loading-progress_3557914" transform="translate(9.000000, 0.000000)">
                            <g id="Group">
                                <circle id="Oval" cx="1.25" cy="10" r="1.25"></circle>
                                <circle id="Oval" transform="translate(2.499036, 5.626044) rotate(-60.000000) translate(-2.499036, -5.626044) " cx="2.49903579" cy="5.62604359" r="1.25"></circle>
                                <circle id="Oval" transform="translate(5.624036, 2.502081) rotate(-30.000000) translate(-5.624036, -2.502081) " cx="5.62403579" cy="2.50208141" r="1.25"></circle>
                                <circle id="Oval" transform="translate(5.623712, 17.497839) rotate(-60.000000) translate(-5.623712, -17.497839) " cx="5.62371246" cy="17.4978392" r="1.25"></circle>
                                <circle id="Oval" transform="translate(2.502081, 14.373633) rotate(-30.000000) translate(-2.502081, -14.373633) " cx="2.50208141" cy="14.3736331" r="1.25"></circle>
                                <path d="M10,0 L10,2.5 C14.1421356,2.50000006 17.4999999,5.85786442 17.4999999,10 C17.4999999,14.1421356 14.1421356,17.4999999 10,17.5 L10,20 C15.5228475,20 20,15.5228475 20,10 C20,4.4771525 15.5228475,0 10,0 Z" id="Shape"></path>
                            </g>
                        </g>
                    </g>
                </g>
            </g>
        </g>
    </g>
</svg>