
<svg width="15px" height="15px" viewBox="0 0 15 15" version="1.1" xmlns="http://www.w3.org/2000/svg" xmlns:xlink="http://www.w3.org/1999/xlink">
    <!-- Generator: Sketch 48.1 (47250) - http://www.bohemiancoding.com/sketch -->
    <desc>Created with Sketch.</desc>
    <defs></defs>
    <g id="Matching-(Correos)" stroke="none" stroke-width="1" fill="none" fill-rule="evenodd">
        <g id="FileList-Copy" transform="translate(-990.000000, -229.000000)" fill="#4A4A4A" fill-rule="nonzero">
            <g id="Group-6" transform="translate(983.000000, 221.000000)">
                <g id="Group" transform="translate(7.000000, 8.000000)">
                    <g id="noun_Refresh_854003">
                        <path d="M6.85789682,13.097244 C3.90790126,12.6977654 1.84905018,9.97823825 2.24852875,7.02824269 C2.64800732,4.07824712 5.38289904,2.01939605 8.31753004,2.43423918 C9.33159102,2.57252022 10.2381001,2.98736334 10.975599,3.58658119 L8.85528965,5.41496386 L14.678458,6.8285034 L14.4018959,0.682679309 L12.4352322,2.35741637 C11.3904421,1.4201782 10.0690899,0.77486667 8.57872757,0.575127387 C4.61467103,0.0220032188 0.94254113,2.80298862 0.389416962,6.76704516 C-0.163707207,10.7311017 2.6172782,14.4185962 6.5966993,14.9563558 C9.34695558,15.3404698 11.9435663,14.1266695 13.4800223,12.0217248 L11.9896599,10.8693827 C10.868047,12.467297 8.91674789,13.3891706 6.85789682,13.097244 Z" id="Shape"></path>
                    </g>
                </g>
            </g>
        </g>
    </g>
</svg>