
<svg width="24px" height="20px" viewBox="0 0 24 20" version="1.1" xmlns="http://www.w3.org/2000/svg" xmlns:xlink="http://www.w3.org/1999/xlink">
    <g id="right-menu" stroke="none" stroke-width="1" fill="none" fill-rule="evenodd">
        <g id="OK" transform="translate(-1223.000000, -388.000000)" fill="#333346" fill-rule="nonzero">
            <g id="noun_Refresh_206554" transform="translate(1223.000000, 388.000000)">
                <path d="M0.646258358,9.22601193 C1.32266892,8.24221034 2.1343616,7.34784526 2.94605428,6.49819843 C3.21661851,6.18517065 3.66755889,6.18517065 3.89302908,6.49819843 C4.74981579,7.34784526 5.51641444,8.2869286 6.192825,9.22601193 L6.46338923,9.58375797 C6.73395346,9.89678575 6.50848327,10.3439683 6.10263693,10.3439683 L4.65962772,10.3439683 C4.74981579,14.1897381 7.90639844,17.2752977 11.8295797,17.2752977 C13.2274949,17.2752977 14.490128,16.8728334 15.6174789,16.2020596 C16.1135133,15.8890318 16.7448298,15.9784683 17.1506762,16.3809326 C17.7368987,16.9622699 17.6016166,17.9013532 16.925206,18.3485358 C15.4371027,19.2429009 13.6784353,19.7795199 11.8295797,19.7795199 C6.50848327,19.7795199 2.22454968,15.5312858 2.1343616,10.29925 L0.691352395,10.29925 C0.285506056,10.29925 0.105129904,9.85206749 0.330600093,9.53903971 L0.646258358,9.22601193 Z M6.5535773,3.94925795 C6.95942364,4.35172223 7.59074017,4.44115874 8.08677459,4.12813096 C9.16903149,3.45735715 10.4767586,3.05489287 11.8746738,3.05489287 C15.752761,3.05489287 18.9544377,6.1404524 19.0446258,9.98622225 L17.6016166,9.98622225 C17.1957702,9.98622225 17.0153941,10.4334048 17.2408643,10.7464326 L17.5114285,11.1041786 C18.187839,12.0879802 18.9995317,12.9823453 19.8112244,13.8319921 C20.0817886,14.1450199 20.532729,14.1450199 20.7581992,13.8319921 C21.6149859,12.9823453 22.3815846,12.0432619 23.0579951,11.1041786 L23.3285594,10.7464326 C23.5991236,10.4334048 23.3736534,9.98622225 22.9678071,9.98622225 L21.5247978,9.98622225 C21.4346098,4.75418652 17.1055821,0.505952381 11.8295797,0.505952381 C9.93563014,0.505952381 8.2220567,1.04257143 6.73395346,1.93693651 C6.05754289,2.42883731 5.96735481,3.36792064 6.5535773,3.94925795 Z" id="Shape"></path>
            </g>
        </g>
    </g>
</svg>