
<svg width="11px" height="11px" viewBox="0 0 11 11" version="1.1" xmlns="http://www.w3.org/2000/svg" xmlns:xlink="http://www.w3.org/1999/xlink">
    <!-- Generator: Sketch 48.1 (47250) - http://www.bohemiancoding.com/sketch -->
    <desc>Created with Sketch.</desc>
    <defs>
        <path d="M33.4218299,29.9882678 C33.237214,30.1728837 32.9307996,30.168568 32.7409089,29.9786773 L30.0939486,27.331717 L27.5205149,29.9051507 C27.335899,30.0897666 27.0294846,30.0854509 26.8395939,29.8955602 L25.2284007,28.284367 C25.0385101,28.0944763 25.0341944,27.7880619 25.2188102,27.603446 L27.7922439,25.0300123 L25.1452836,22.383052 C24.9553929,22.1931614 24.9510772,21.8867469 25.1356931,21.702131 L26.702131,20.1356931 C26.8867469,19.9510772 27.1931614,19.9553929 27.383052,20.1452836 L30.0300123,22.7922439 L32.603446,20.2188102 C32.7880619,20.0341944 33.0944763,20.0385101 33.284367,20.2284007 L34.8955602,21.8395939 C35.0854509,22.0294846 35.0897666,22.335899 34.9051507,22.5205149 L32.331717,25.0939486 L34.9786773,27.7409089 C35.168568,27.9307996 35.1728837,28.237214 34.9882678,28.4218299 L33.4218299,29.9882678 Z" id="path-1"></path>
    </defs>
    <g id="*FEEDBACK" stroke="none" stroke-width="1" fill="none" fill-rule="evenodd">
        <g id="multiplefeedback" transform="translate(-711.000000, -469.000000)">
            <g id="Group-3" transform="translate(234.000000, 449.000000)">
                <g id="Group-4">
                    <g id="Group-11" transform="translate(452.000000, 0.000000)">
                        <mask id="mask-2" fill="white">
                            <use xlink:href="#path-1"></use>
                        </mask>
                        <use id="plus-square" fill="#FFFFFF" fill-rule="nonzero" xlink:href="#path-1"></use>
                    </g>
                </g>
            </g>
        </g>
    </g>
</svg>