<svg width="41" height="40" viewBox="0 0 41 40" fill="none" xmlns="http://www.w3.org/2000/svg">
<path fill-rule="evenodd" clip-rule="evenodd" d="M28.2292 25.4886C32.1083 20.5067 31.7579 13.2992 27.1781 8.71938C22.219 3.76021 14.1785 3.76021 9.21938 8.71938C4.26021 13.6785 4.26021 21.719 9.21938 26.6781C13.7992 31.2579 21.0067 31.6083 25.9886 27.7292C26.0101 27.7535 26.0325 27.7773 26.0557 27.8005L32.7902 34.5351C33.4101 35.155 34.4152 35.155 35.0351 34.5351C35.655 33.9152 35.655 32.9101 35.0351 32.2902L28.3005 25.5557C28.2773 25.5325 28.2535 25.5101 28.2292 25.4886ZM24.9333 10.9642C28.6527 14.6836 28.6527 20.7139 24.9333 24.4333C21.2139 28.1527 15.1836 28.1527 11.4642 24.4333C7.74484 20.7139 7.74484 14.6836 11.4642 10.9642C15.1836 7.24484 21.2139 7.24484 24.9333 10.9642Z" fill="black"/>
</svg>
