<svg width="40" height="40" viewBox="0 0 40 40" fill="none" xmlns="http://www.w3.org/2000/svg">
<path d="M22.3667 35H17.6333C16.6777 35 15.9 34.2223 15.9 33.2667V32.562C15.9 32.4523 15.8363 32.3507 15.7487 32.3203C15.2547 32.15 14.7637 31.9463 14.2903 31.715C14.2083 31.6757 14.0983 31.6997 14.023 31.775L13.5177 32.2803C13.1907 32.6077 12.755 32.788 12.292 32.788C11.829 32.788 11.3937 32.6077 11.0663 32.28L7.72 28.933C7.04433 28.2573 7.04433 27.1577 7.72 26.4817L8.22533 25.9763C8.29967 25.902 8.325 25.7897 8.28567 25.7097C8.054 25.2353 7.85 24.7447 7.67967 24.2507C7.649 24.1633 7.54767 24.1 7.438 24.1H6.73333C5.77767 24.1 5 23.3223 5 22.3667V17.6333C5 16.6777 5.77767 15.9 6.73333 15.9H7.43833C7.548 15.9 7.64933 15.8367 7.67967 15.7487C7.85067 15.2543 8.05433 14.7633 8.28533 14.2907C8.32533 14.2087 8.30067 14.0987 8.225 14.0233L7.72 13.5183C7.04433 12.8423 7.04433 11.7427 7.72 11.067L11.067 7.71967C11.3943 7.39233 11.8297 7.21233 12.2927 7.21233C12.7557 7.21233 13.191 7.39267 13.5183 7.71967L14.0237 8.22533C14.0983 8.29967 14.21 8.32533 14.2907 8.28533C14.7633 8.05433 15.2543 7.85033 15.749 7.67933C15.8367 7.649 15.9 7.54767 15.9 7.438V6.73333C15.9 5.77767 16.6777 5 17.6333 5H22.3667C23.3223 5 24.1 5.77767 24.1 6.73333V7.43833C24.1 7.548 24.1633 7.64933 24.251 7.67967C24.745 7.85033 25.2357 8.05433 25.7093 8.28567C25.7917 8.325 25.901 8.30067 25.9767 8.22533L26.482 7.72C27.1577 7.04433 28.2573 7.04433 28.9333 7.72L32.28 11.0667C32.9557 11.7427 32.9557 12.8423 32.28 13.518L31.7747 14.0233C31.699 14.099 31.6743 14.2087 31.7143 14.2907C31.946 14.764 32.15 15.255 32.3203 15.7493C32.3503 15.8367 32.452 15.9 32.5617 15.9H33.2667C34.2223 15.9 35 16.6777 35 17.6333V22.3667C35 23.3223 34.2223 24.1 33.2667 24.1H32.562C32.4523 24.1 32.3507 24.1633 32.3203 24.2513C32.1503 24.744 31.9467 25.2347 31.7153 25.709C31.6757 25.7903 31.7007 25.9023 31.775 25.9767L32.2803 26.482C32.956 27.1577 32.956 28.2573 32.2803 28.9333L28.933 32.28C28.6057 32.6073 28.1703 32.7877 27.7073 32.7877C27.244 32.7877 26.8087 32.607 26.4813 32.2793L25.9767 31.775C25.9007 31.6997 25.791 31.6743 25.709 31.7143C25.2357 31.946 24.7447 32.15 24.2503 32.3203C24.163 32.3503 24.0997 32.452 24.0997 32.5617V33.2667C24.1 34.2223 23.3223 35 22.3667 35ZM18.2333 32.6667H21.7667V32.562C21.7667 31.4547 22.4587 30.4713 23.489 30.1153C23.8943 29.9753 24.2963 29.8083 24.685 29.6183C25.6637 29.1403 26.8453 29.3443 27.6263 30.1253L27.7073 30.206L30.2057 27.7077L30.125 27.6267C29.3433 26.8453 29.14 25.663 29.6187 24.685C29.8083 24.2963 29.9753 23.894 30.1147 23.49C30.4707 22.459 31.4543 21.767 32.5617 21.767H32.6667V18.2333H32.562C31.4547 18.2333 30.4713 17.5413 30.1153 16.511C29.9753 16.1057 29.8083 15.7037 29.6183 15.315C29.1403 14.3363 29.344 13.1543 30.1253 12.3733L30.206 12.2923L27.7077 9.794L27.6267 9.875C26.8453 10.6563 25.6633 10.8593 24.6853 10.3817C24.2967 10.1917 23.8943 10.0247 23.4897 9.88467C22.4593 9.529 21.767 8.54567 21.767 7.438V7.33333H18.2333V7.438C18.2333 8.54567 17.541 9.52867 16.5107 9.88467C16.105 10.0247 15.7027 10.192 15.315 10.3817C14.3363 10.8597 13.1547 10.656 12.3733 9.875L12.2923 9.794L9.794 12.2923L9.875 12.3733C10.656 13.1547 10.8597 14.3367 10.3817 15.315C10.1923 15.7027 10.025 16.105 9.885 16.5107C9.529 17.5413 8.54567 18.2333 7.43833 18.2333H7.33333V21.7667H7.438C8.54567 21.7667 9.52867 22.459 9.88467 23.4893C10.0243 23.894 10.1917 24.2963 10.3817 24.6853C10.86 25.663 10.6563 26.845 9.875 27.6263L9.794 27.7073L12.2927 30.2057L12.3733 30.125C13.1547 29.343 14.337 29.1403 15.3153 29.6183C15.7033 29.8077 16.1053 29.975 16.5103 30.1147C17.541 30.4707 18.233 31.4543 18.233 32.5617L18.2333 32.6667ZM20.0093 28.4673C17.7633 28.4673 15.608 27.5833 14.0123 25.9877C12.2573 24.2327 11.3633 21.8007 11.5593 19.3157C11.8827 15.217 15.2173 11.8823 19.316 11.559C21.8017 11.363 24.233 12.2573 25.988 14.012C27.743 15.7673 28.637 18.199 28.4413 20.6843C28.1177 24.7833 24.783 28.1177 20.6843 28.441C20.4587 28.4587 20.2337 28.4673 20.0093 28.4673ZM19.9897 13.866C19.8267 13.866 19.6633 13.8727 19.4993 13.8853C16.533 14.1193 14.1193 16.533 13.8853 19.4997C13.743 21.303 14.3907 23.0663 15.6623 24.338C16.934 25.6097 18.6957 26.2583 20.501 26.115C23.4673 25.8813 25.8813 23.468 26.1153 20.501C26.2577 18.6977 25.6097 16.934 24.3383 15.6623C23.182 14.5063 21.619 13.866 19.9897 13.866Z" fill="black"/>
</svg>
