<svg width="24" height="16" viewBox="0 0 24 16" fill="none" xmlns="http://www.w3.org/2000/svg">
<path fill-rule="evenodd" clip-rule="evenodd" d="M11.3521 12.2672C11.5823 12.5111 11.8281 12.7324 12.0865 12.9309C12.1937 12.8474 12.2987 12.7597 12.4012 12.6676C12.5699 12.5161 12.7273 12.3571 12.8735 12.1914L11.3013 12.2127C11.3181 12.2309 11.3351 12.2491 11.3521 12.2672ZM10.0901 10.2532L14.0079 10.2003C14.1312 9.81836 14.213 9.42514 14.2532 9.02744L9.82835 9.33422C9.88988 9.64476 9.97709 9.95217 10.0901 10.2532ZM13.8368 6.21977C13.9504 6.4938 14.0422 6.77378 14.1123 7.05719L9.78103 7.35747C9.83464 7.00019 9.92225 6.64784 10.0437 6.30542L13.8368 6.21977ZM11.2776 4.30201L12.5343 4.27363C12.3374 4.07554 12.1299 3.89335 11.9135 3.72718C11.8062 3.81066 11.7013 3.89841 11.5988 3.99044C11.4867 4.09105 11.3797 4.195 11.2776 4.30201ZM13.7381 3.41193C16.5682 6.41178 16.4412 11.0217 13.4616 13.729C15.567 14.6116 18.0671 14.2925 19.8271 12.712C22.2355 10.5493 22.3459 6.84373 20.0737 4.43533C18.2749 2.52862 15.522 2.00659 13.258 2.94498C13.4233 3.09243 13.5835 3.24809 13.7381 3.41193ZM20.8556 13.8022C18.434 15.9768 14.8915 16.2411 12.1199 14.6944C9.16914 16.3431 5.29153 15.8044 2.83605 13.2017C-0.0041795 10.1912 0.133855 5.5592 3.14436 2.85582C5.56596 0.681274 9.1085 0.416991 11.88 1.96365C14.8308 0.314993 18.7085 0.853661 21.1639 3.45635C24.0042 6.46685 23.8661 11.0989 20.8556 13.8022ZM10.2619 13.2461C10.4165 13.41 10.5767 13.5656 10.742 13.7131C8.47803 14.6515 5.72511 14.1294 3.92625 12.2227C1.65407 9.81433 1.7645 6.10872 4.1729 3.94602C5.93288 2.36559 8.43299 2.04646 10.5383 2.92903C7.55878 5.6364 7.43175 10.2463 10.2619 13.2461Z" fill="url(#paint0_linear_1158_16406)"/>
<defs>
<linearGradient id="paint0_linear_1158_16406" x1="19.4497" y1="1.63935" x2="4.88838" y2="15.3771" gradientUnits="userSpaceOnUse">
<stop stop-color="#FFB097"/>
<stop offset="1" stop-color="#F73D3D"/>
</linearGradient>
</defs>
</svg>
