
<svg width="14px" height="12px" viewBox="0 0 14 12" version="1.1" xmlns="http://www.w3.org/2000/svg" xmlns:xlink="http://www.w3.org/1999/xlink">
    <defs></defs>
    <g id="Rubrix" stroke="none" stroke-width="1" fill="none" fill-rule="evenodd">
        <g id="Sort-2" transform="translate(-856.000000, -115.000000)" fill="#4C4EA3" fill-rule="nonzero">
            <g id="Group-10" transform="translate(333.000000, 99.000000)">
                <g id="noun_sort-by_3323467" transform="translate(523.000000, 16.000000)">
                    <path d="M6.88195455,3.74213636 C6.69879275,3.93144495 6.39689278,3.93657156 6.20740909,3.75359091 L4.13636364,1.75190909 L4.13636364,9.87318182 C4.13636364,10.1367723 3.92268136,10.3504545 3.65909091,10.3504545 C3.39550046,10.3504545 3.18181818,10.1367723 3.18181818,9.87318182 L3.18181818,1.75190909 L1.11077273,3.75454545 C0.92023305,3.93075328 0.623812708,3.92241135 0.443484514,3.73576648 C0.263156319,3.54912161 0.26502083,3.25258977 0.447681818,3.06822727 L3.3215,0.2905 L3.32722727,0.285090909 L3.33168182,0.282227273 C3.37226262,0.243242485 3.41945149,0.211783239 3.47104545,0.189318182 C3.47454545,0.189318182 3.47868182,0.187090909 3.48218182,0.1855 C3.48568182,0.183909091 3.49077273,0.183272727 3.49490909,0.181681818 C3.54286812,0.163978052 3.59336002,0.154094531 3.64445455,0.152409091 L3.65177273,0.152409091 L3.65781818,0.152409091 L3.66354545,0.152409091 C3.66672727,0.152409091 3.66959091,0.152409091 3.67245455,0.152409091 C3.72344994,0.154056666 3.77384313,0.163941896 3.82168182,0.181681818 C3.8255,0.181681818 3.82931818,0.183590909 3.83313636,0.185181818 C3.83695455,0.186772727 3.84077273,0.187409091 3.84427273,0.188681818 L3.8465,0.188681818 C3.89768205,0.211100162 3.94452983,0.242332013 3.98490909,0.280954545 L3.98936364,0.283818182 L3.99509091,0.289227273 L6.86890909,3.06695455 C6.96023243,3.15472664 7.01291999,3.27520086 7.01536687,3.40184171 C7.01781375,3.52848256 6.96981923,3.65090211 6.88195455,3.74213636 Z M13.5637727,8.34877273 C13.3806109,8.15946414 13.078711,8.15433753 12.8892273,8.33731818 L10.8181818,10.339 L10.8181818,2.21772727 C10.8181818,1.95413682 10.6044995,1.74045455 10.3409091,1.74045455 C10.0773186,1.74045455 9.86363636,1.95413682 9.86363636,2.21772727 L9.86363636,10.339 L7.79259091,8.33636364 C7.60205123,8.16015581 7.30563089,8.16849774 7.1253027,8.35514261 C6.9449745,8.54178748 6.94683901,8.83831932 7.1295,9.02268182 L10.0033182,11.8004091 L10.0090455,11.8058182 C10.0090455,11.8074091 10.0122273,11.8077273 10.0135,11.809 C10.0290957,11.8236937 10.04568,11.8373013 10.0631364,11.8497273 C10.0669545,11.8522727 10.0698182,11.8560909 10.0736364,11.8583182 C10.0995461,11.875887 10.1271543,11.8908104 10.1560455,11.9028636 L10.1627273,11.9050909 C10.1654239,11.9061262 10.1681879,11.9069766 10.171,11.9076364 C10.1802273,11.9111364 10.1900909,11.9133636 10.1993182,11.9162273 C10.2145998,11.9219574 10.2302204,11.9267392 10.2460909,11.9305455 C10.308448,11.943274 10.3727338,11.943274 10.4350909,11.9305455 C10.4529793,11.926102 10.4706116,11.9206848 10.4879091,11.9143182 C10.4952273,11.9120909 10.5025455,11.9105 10.5098636,11.9076364 C10.5127687,11.9069346 10.5156361,11.906085 10.5184545,11.9050909 L10.5248182,11.9028636 C10.5539134,11.8908158 10.5817332,11.8758933 10.6078636,11.8583182 L10.6142273,11.8529091 C10.6329583,11.8394207 10.6508125,11.8247548 10.6676818,11.809 L10.6721364,11.8058182 L10.6778636,11.8004091 L13.5516818,9.02268182 C13.740749,8.83976634 13.7461568,8.53835258 13.5637727,8.34877273 Z" id="Shape"></path>
                </g>
            </g>
        </g>
    </g>
</svg>