<svg width="40" height="40" viewBox="0 0 40 40" fill="none" xmlns="http://www.w3.org/2000/svg">
<path fill-rule="evenodd" clip-rule="evenodd" d="M9.3934 9.3934C3.53553 15.2513 3.53553 24.7487 9.3934 30.6066C15.2513 36.4645 24.7487 36.4645 30.6066 30.6066C36.4645 24.7487 36.4645 15.2513 30.6066 9.3934C24.7487 3.53553 15.2513 3.53553 9.3934 9.3934ZM13.0125 29.3445L29.3445 13.0125C32.7706 17.5822 32.4056 24.0936 28.2496 28.2496C24.0936 32.4056 17.5822 32.7706 13.0125 29.3445ZM11.7504 11.7504C7.59443 15.9064 7.22944 22.4178 10.6555 26.9875L26.9875 10.6555C22.4178 7.22944 15.9064 7.59443 11.7504 11.7504Z" fill="black"/>
</svg>
