
<svg width="11px" height="11px" viewBox="0 0 11 11" version="1.1" xmlns="http://www.w3.org/2000/svg" xmlns:xlink="http://www.w3.org/1999/xlink">
    <!-- Generator: Sketch 48.1 (47250) - http://www.bohemiancoding.com/sketch -->
    <desc>Created with Sketch.</desc>
    <defs></defs>
    <g id="B.-Feedback" stroke="none" stroke-width="1" fill="none" fill-rule="evenodd">
        <g id="Test-Explore" transform="translate(-1035.000000, -230.000000)" fill="#000000" fill-rule="nonzero">
            <g id="noun_expand_132919" transform="translate(1035.000000, 230.000000)">
                <path d="M6.13711268,4.4149771 C6.13711268,4.47292424 6.15137639,4.52700823 6.17128617,4.5778234 C6.17247481,4.58049789 6.17336629,4.58317237 6.17455493,4.58584685 C6.19743631,4.63993084 6.22893535,4.6883687 6.26964638,4.72878311 C6.26994354,4.72908028 6.26994354,4.72937744 6.2702407,4.7296746 C6.27083502,4.73026893 6.27142934,4.73026893 6.27202366,4.73086326 C6.29133911,4.74988181 6.31095172,4.76890036 6.33353594,4.78405576 C6.35404004,4.7980225 6.37811006,4.80604595 6.4012886,4.81644672 C6.41050058,4.82060703 6.41911824,4.82595599 6.42862739,4.82952197 C6.47706459,4.84764902 6.52817624,4.86012994 6.58315098,4.86012994 L10.191277,4.86012994 C10.4373261,4.86012994 10.6370181,4.66073238 10.6370181,4.41438278 C10.6370181,4.16803317 10.4373261,3.96863561 10.191277,3.96863561 L7.66184456,3.96863561 L10.8693978,0.760741831 C11.0435341,0.586603272 11.0435341,0.304296733 10.8693978,0.130455337 C10.7823297,0.0433860576 10.66822,0 10.5541103,0 C10.4400005,0 10.3258908,0.0433860576 10.2388227,0.130455337 L7.02829781,3.34132076 L7.02770349,0.805019383 C7.02770349,0.558966947 6.82801145,0.359272216 6.58196234,0.359272216 C6.33561607,0.359272216 6.1362212,0.558966947 6.1362212,0.805019383 L6.13711268,4.4149771 Z M0.760880136,10.8693961 L3.97110787,7.65823349 L3.97140503,10.1945349 C3.97140503,10.4408845 4.17109706,10.640282 4.41714618,10.640282 C4.66349245,10.640282 4.86288732,10.4405873 4.86288732,10.1945349 L4.862293,6.58517148 C4.862293,6.55426634 4.85902423,6.5242527 4.85337818,6.49513055 C4.84921793,6.47462618 4.83762866,6.45709346 4.83079396,6.43777775 C4.82663371,6.42559399 4.82247346,6.41430173 4.81712456,6.4027123 C4.79780911,6.36021774 4.77255045,6.32247781 4.74134857,6.28860103 C4.73629684,6.28265773 4.73481103,6.27552578 4.72916498,6.27017681 C4.72649053,6.26750233 4.7229246,6.266908 4.72025016,6.26423352 C4.68310506,6.22887091 4.64061107,6.20034309 4.59276819,6.17954156 C4.58801362,6.1774614 4.58385336,6.1733011 4.57909879,6.17181527 C4.52887862,6.15190523 4.4744982,6.13972148 4.41714618,6.13972148 L0.808425858,6.13972148 C0.562079585,6.13972148 0.362684712,6.33941621 0.362684712,6.58546864 C0.362684712,6.83152108 0.562079585,7.03121581 0.808425858,7.03121581 L3.33785828,7.03121581 L0.130602156,10.2391096 C-0.0435340519,10.4132481 -0.0435340519,10.6952575 0.130602156,10.8693961 C0.304738363,11.0435346 0.587041089,11.0435346 0.760880136,10.8693961 Z" id="Shape"></path>
            </g>
        </g>
    </g>
</svg>