
<svg width="10px" height="10px" viewBox="0 0 10 10" version="1.1" xmlns="http://www.w3.org/2000/svg" xmlns:xlink="http://www.w3.org/1999/xlink">
    <!-- Generator: Sketch 48.1 (47250) - http://www.bohemiancoding.com/sketch -->
    <desc>Created with Sketch.</desc>
    <defs></defs>
    <g id="B.-Feedback" stroke="none" stroke-width="1" fill="none" fill-rule="evenodd">
        <g id="Test-Explore" transform="translate(-1057.000000, -231.000000)" fill="#000000" fill-rule="nonzero">
            <g id="maximize" transform="translate(1057.000000, 231.000000)">
                <path d="M9.58269397,0 L6.41730603,0 C6.18682122,0 6,0.186841402 6,0.417306034 C6,0.647770665 6.18682122,0.834612067 6.41730603,0.834612067 L9.16538793,0.834612067 L9.16538793,3.58269397 C9.16538793,3.8131586 9.35220916,4 9.58269397,4 C9.81317878,4 10,3.8131586 10,3.58269397 L10,0.417306034 C10,0.186841402 9.81317878,0 9.58269397,0 Z" id="Shape"></path>
                <path d="M3.58269397,9.16538793 L0.834632244,9.16538793 L0.834632244,6.41730603 C0.834632244,6.18682122 0.647790843,6 0.417326211,6 C0.186841402,6 0,6.18682122 0,6.41730603 L0,9.58269397 C0,9.81317878 0.186841402,10 0.417306034,10 L3.58269397,10 C3.8131586,10 4,9.81317878 4,9.58269397 C4.00002018,9.35220916 3.8131586,9.16538793 3.58269397,9.16538793 Z" id="Shape"></path>
                <path d="M9.89202631,0.107986216 C9.74804357,-0.0359954053 9.51460862,-0.0359954053 9.37062588,0.107986216 L6.10797369,3.37061296 C5.96400877,3.51459458 5.96400877,3.74802771 6.10797369,3.89200933 C6.17995615,3.96399123 6.2743284,4 6.36868282,4 C6.46301941,4 6.55739166,3.96400905 6.62939195,3.89200933 L9.89202631,0.629382581 C10.0359912,0.48540096 10.0359912,0.251967837 9.89202631,0.107986216 Z" id="Shape"></path>
                <path d="M3.89201366,6.1079867 C3.74804971,5.96400443 3.5145985,5.96400443 3.37061672,6.1079867 L0.107986336,9.37061016 C-0.0359954454,9.51459242 -0.0359954454,9.74802658 0.107986336,9.89200885 C0.179968314,9.96402672 0.274339931,10 0.368675896,10 C0.463029687,10 0.557383478,9.96400889 0.629383282,9.89200885 L3.89201366,6.62936756 C4.03599545,6.48540312 4.03599545,6.25196896 3.89201366,6.1079867 Z" id="Shape"></path>
            </g>
        </g>
    </g>
</svg>