<svg width="10" height="10" viewBox="0 0 10 10" fill="none" xmlns="http://www.w3.org/2000/svg">
<path d="M1.625 2.75C2.04141 2.75 2.40498 2.52376 2.59949 2.1875H6.125C6.74632 2.1875 7.25 2.69118 7.25 3.3125C7.25 3.93382 6.74632 4.4375 6.125 4.4375H3.875C2.63236 4.4375 1.625 5.44486 1.625 6.6875C1.625 7.93014 2.63236 8.9375 3.875 8.9375H7.40051C7.59502 9.27376 7.95859 9.5 8.375 9.5C8.99632 9.5 9.5 8.99632 9.5 8.375C9.5 7.75368 8.99632 7.25 8.375 7.25C7.95859 7.25 7.59502 7.47624 7.40051 7.8125H3.875C3.25368 7.8125 2.75 7.30882 2.75 6.6875C2.75 6.06618 3.25368 5.5625 3.875 5.5625H6.125C7.36764 5.5625 8.375 4.55514 8.375 3.3125C8.375 2.06986 7.36764 1.0625 6.125 1.0625H2.5995C2.40498 0.726237 2.04141 0.5 1.625 0.5C1.00368 0.5 0.5 1.00368 0.5 1.625C0.5 2.24632 1.00368 2.75 1.625 2.75Z" />
</svg>
