<svg width="30" height="18" viewBox="0 0 30 18" fill="none" xmlns="http://www.w3.org/2000/svg">
<path fill-rule="evenodd" clip-rule="evenodd" d="M12.5 4C11.8096 4 11.25 3.55228 11.25 3C11.25 2.44772 11.8096 2 12.5 2H28.75C29.4404 2 30 2.44772 30 3C30 3.55228 29.4404 4 28.75 4H12.5Z" />
<path fill-rule="evenodd" clip-rule="evenodd" d="M12.5 10C11.8096 10 11.25 9.55228 11.25 9C11.25 8.44772 11.8096 8 12.5 8H28.75C29.4404 8 30 8.44772 30 9C30 9.55228 29.4404 10 28.75 10H12.5Z" />
<path fill-rule="evenodd" clip-rule="evenodd" d="M12.5 16C11.8096 16 11.25 15.5523 11.25 15C11.25 14.4477 11.8096 14 12.5 14H28.75C29.4404 14 30 14.4477 30 15C30 15.5523 29.4404 16 28.75 16H12.5Z" />
<path fill-rule="evenodd" clip-rule="evenodd" d="M4.38462 0H4.36538C4.221 0.00163636 4.0845 0.0360001 3.96462 0.0957274L3.95325 0.101455C3.91737 0.119455 3.88324 0.140727 3.84999 0.163636L0.34996 2.61818C-0.0367936 2.889 -0.11467 3.402 0.174958 3.76364C0.464586 4.12527 1.01322 4.19809 1.39997 3.92727L3.49999 2.45455V15.5455L1.39997 14.0727C1.01322 13.8019 0.464586 13.8747 0.174958 14.2364C-0.11467 14.598 -0.0367936 15.111 0.34996 15.3818L3.84999 17.8364C3.88324 17.8593 3.91737 17.8805 3.95325 17.8985L3.96462 17.9043C4.0845 17.964 4.221 17.9984 4.36538 18H4.38462C4.529 17.9984 4.6655 17.964 4.78538 17.9043L4.79675 17.8985C4.83263 17.8805 4.86676 17.8593 4.90001 17.8364L8.40004 15.3818C8.78679 15.111 8.86467 14.598 8.57504 14.2364C8.28541 13.8747 7.73678 13.8019 7.35003 14.0727L5.25001 15.5455V2.45455L7.35003 3.92727C7.73678 4.19809 8.28541 4.12527 8.57504 3.76364C8.86467 3.402 8.78679 2.889 8.40004 2.61818L4.90001 0.163636C4.86676 0.140727 4.83263 0.119455 4.79675 0.101455L4.78538 0.0957274C4.6655 0.0360001 4.529 0.00163636 4.38462 0Z" />
</svg>
