<svg width="18" height="18" viewBox="0 0 18 18" fill="none" xmlns="http://www.w3.org/2000/svg">
<path fill-rule="evenodd" clip-rule="evenodd" d="M1.01944 9.84452C0.286123 10.5778 0.286122 11.7668 1.01944 12.5001L4.64156 16.1222H1.56943C1.05089 16.1222 0.63054 16.5426 0.63054 17.0611C0.63054 17.5796 1.05089 18 1.56943 18H16.5917C17.1102 18 17.5305 17.5796 17.5305 17.0611C17.5305 16.5426 17.1102 16.1222 16.5917 16.1222H8.01964L16.9529 7.18894C17.6862 6.45562 17.6862 5.26668 16.9529 4.53336L12.9696 0.549989C12.2362 -0.183329 11.0473 -0.18333 10.314 0.549989L1.01944 9.84452ZM5.0809 8.43864L2.34723 11.1723L6.3306 15.1557L9.06427 12.422L5.0809 8.43864ZM6.40869 7.11085L10.3921 11.0942L15.6251 5.86115L11.6418 1.87778L6.40869 7.11085Z" fill="#52A3ED"/>
</svg>
