<svg width="90" height="82" viewBox="0 0 90 82" fill="none" xmlns="http://www.w3.org/2000/svg">
<path d="M53.3193 5.55827C52.4762 4.09793 51.2635 2.88525 49.8032 2.04213C48.3428 1.199 46.6863 0.755127 45 0.755127C43.3137 0.755127 41.6572 1.199 40.1968 2.04213C38.7365 2.88525 37.5238 4.09793 36.6807 5.55827L1.3021 66.8361C0.458982 68.2964 0.0151244 69.9529 0.0151367 71.6392C0.015149 73.3254 0.459031 74.9819 1.30217 76.4422C2.1453 77.9025 3.35798 79.1151 4.81832 79.9582C6.27865 80.8013 7.93519 81.2451 9.62142 81.2451H80.3786C82.0648 81.2451 83.7214 80.8013 85.1817 79.9582C86.642 79.1151 87.8547 77.9025 88.6978 76.4422C89.541 74.9819 89.9849 73.3254 89.9849 71.6392C89.9849 69.9529 89.541 68.2964 88.6979 66.8361L53.3193 5.55827ZM83.5023 73.4423C83.1908 73.9951 82.7366 74.4541 82.1871 74.7713C81.6376 75.0886 81.0131 75.2524 80.3786 75.2458H9.62142C8.98831 75.2458 8.36635 75.0791 7.81806 74.7626C7.26977 74.4461 6.81445 73.9908 6.49788 73.4425C6.18132 72.8942 6.01465 72.2723 6.01463 71.6391C6.0146 71.006 6.18123 70.3841 6.49777 69.8358L41.8764 8.55791C42.1929 8.00958 42.6482 7.55424 43.1966 7.23766C43.7449 6.92108 44.3669 6.75441 45 6.75441C45.6332 6.75441 46.2551 6.92108 46.8035 7.23766C47.3518 7.55424 47.8071 8.00958 48.1237 8.55791L83.5023 69.8358C83.8252 70.3818 83.9955 71.0046 83.9955 71.639C83.9955 72.2734 83.8252 72.8962 83.5023 73.4423Z" fill="black"/>
<path d="M45 54.8843C45.7955 54.8843 46.5585 54.5682 47.121 54.0057C47.6836 53.4432 47.9996 52.6802 47.9996 51.8847V25.4288C47.9996 24.6333 47.6836 23.8703 47.1211 23.3078C46.5585 22.7452 45.7956 22.4292 45 22.4292C44.2045 22.4292 43.4415 22.7452 42.8789 23.3078C42.3164 23.8703 42.0004 24.6333 42.0004 25.4288V51.8847C42.0004 52.6802 42.3165 53.4432 42.879 54.0057C43.4415 54.5682 44.2045 54.8843 45 54.8843Z" fill="black"/>
<path d="M45 60.917C44.3721 60.917 43.7583 61.1032 43.2362 61.452C42.7142 61.8009 42.3072 62.2967 42.067 62.8768C41.8267 63.4569 41.7638 64.0952 41.8863 64.7111C42.0088 65.3269 42.3112 65.8926 42.7552 66.3366C43.1992 66.7805 43.7649 67.0829 44.3807 67.2054C44.9965 67.3279 45.6349 67.265 46.215 67.0247C46.795 66.7844 47.2909 66.3775 47.6397 65.8554C47.9885 65.3334 48.1747 64.7196 48.1747 64.0917C48.1747 63.6748 48.0926 63.2619 47.9331 62.8768C47.7735 62.4916 47.5397 62.1416 47.2449 61.8468C46.9501 61.552 46.6001 61.3182 46.2149 61.1586C45.8297 60.9991 45.4169 60.917 45 60.917Z" fill="black"/>
</svg>
