<svg width="18" height="18" viewBox="0 0 18 18" fill="none" xmlns="http://www.w3.org/2000/svg">
<path fill-rule="evenodd" clip-rule="evenodd" d="M9.20306 0.002277C6.83255 -0.0508899 4.44505 0.827012 2.63604 2.63602C-0.87868 6.15074 -0.87868 11.8492 2.63604 15.3639C6.15076 18.8787 11.8492 18.8787 15.364 15.3639C17.173 13.5549 18.0509 11.1674 17.9977 8.79691C17.9816 8.07947 17.8802 7.36361 17.6936 6.66579C17.184 7.15392 16.657 7.58483 16.1247 7.95827C14.9084 8.81151 13.6644 9.36479 12.5371 9.6153C10.8217 9.99649 9.64406 9.64405 9.00001 9C8.35597 8.35595 8.00352 7.17829 8.38472 5.46291C8.63522 4.33564 9.18849 3.0916 10.0418 1.87531C10.4152 1.34299 10.8461 0.81598 11.3342 0.30641C10.6364 0.119746 9.92049 0.0183687 9.20306 0.002277ZM14.0912 14.0912C15.2172 12.9651 15.8923 11.5588 16.1165 10.0967C12.925 11.9379 9.5742 12.1198 7.72722 10.2728C5.88025 8.42581 6.06211 5.07506 7.90325 1.88353C6.44121 2.10765 5.03491 2.78274 3.90883 3.90881C1.09706 6.72059 1.09706 11.2794 3.90883 14.0912C6.72061 16.9029 11.2794 16.9029 14.0912 14.0912Z" fill="black" />
</svg>
