<svg width="6" height="10" viewBox="0 0 6 10" fill="none" xmlns="http://www.w3.org/2000/svg">
<path d="M2.54999 1.625C2.54999 2.24632 2.04631 2.75 1.42499 2.75C0.803667 2.75 0.299988 2.24632 0.299988 1.625C0.299988 1.00368 0.803667 0.5 1.42499 0.5C2.04631 0.5 2.54999 1.00368 2.54999 1.625Z" fill="#4C4EA3"/>
<path d="M2.54999 5C2.54999 5.62132 2.04631 6.125 1.42499 6.125C0.803667 6.125 0.299988 5.62132 0.299988 5C0.299988 4.37868 0.803667 3.875 1.42499 3.875C2.04631 3.875 2.54999 4.37868 2.54999 5Z" fill="#4C4EA3"/>
<path d="M1.42499 9.5C2.04631 9.5 2.54999 8.99632 2.54999 8.375C2.54999 7.75368 2.04631 7.25 1.42499 7.25C0.803667 7.25 0.299988 7.75368 0.299988 8.375C0.299988 8.99632 0.803667 9.5 1.42499 9.5Z" fill="#4C4EA3"/>
<path d="M5.92499 1.625C5.92499 2.24632 5.42131 2.75 4.79999 2.75C4.17867 2.75 3.67499 2.24632 3.67499 1.625C3.67499 1.00368 4.17867 0.5 4.79999 0.5C5.42131 0.5 5.92499 1.00368 5.92499 1.625Z" fill="#4C4EA3"/>
<path d="M4.79999 6.125C5.42131 6.125 5.92499 5.62132 5.92499 5C5.92499 4.37868 5.42131 3.875 4.79999 3.875C4.17867 3.875 3.67499 4.37868 3.67499 5C3.67499 5.62132 4.17867 6.125 4.79999 6.125Z" fill="#4C4EA3"/>
<path d="M5.92499 8.375C5.92499 8.99632 5.42131 9.5 4.79999 9.5C4.17867 9.5 3.67499 8.99632 3.67499 8.375C3.67499 7.75368 4.17867 7.25 4.79999 7.25C5.42131 7.25 5.92499 7.75368 5.92499 8.375Z" fill="#4C4EA3"/>
</svg>
