<svg width="40" height="40" viewBox="0 0 40 40" fill="none" xmlns="http://www.w3.org/2000/svg">
<path fill-rule="evenodd" clip-rule="evenodd" d="M25.1626 20C25.1626 22.8512 22.8513 25.1626 20 25.1626C17.1488 25.1626 14.8374 22.8512 14.8374 20C14.8374 17.1487 17.1488 14.8373 20 14.8373C22.8513 14.8373 25.1626 17.1487 25.1626 20ZM22.5813 20C22.5813 21.4256 21.4256 22.5813 20 22.5813C18.5744 22.5813 17.4187 21.4256 17.4187 20C17.4187 18.5744 18.5744 17.4187 20 17.4187C21.4256 17.4187 22.5813 18.5744 22.5813 20Z" fill="black"/>
<path fill-rule="evenodd" clip-rule="evenodd" d="M20 8.38403C27.2168 8.38403 33.2807 13.3199 35 20C33.2807 26.68 27.2168 31.6159 20 31.6159C12.7832 31.6159 6.71933 26.68 5 20C6.71933 13.3199 12.7832 8.38403 20 8.38403ZM20 29.0346C14.2236 29.0346 9.32793 25.2377 7.68352 20C9.32793 14.7623 14.2236 10.9654 20 10.9654C25.7764 10.9654 30.6721 14.7623 32.3165 20C30.6721 25.2377 25.7764 29.0346 20 29.0346Z" fill="black"/>
</svg>
