<svg width="41" height="40" viewBox="0 0 41 40" fill="none" xmlns="http://www.w3.org/2000/svg">
<path d="M35.5 10C35.5 8.61929 34.3807 7.5 33 7.5H8C6.61929 7.5 5.5 8.61929 5.5 10C5.5 11.3807 6.61929 12.5 8 12.5H33C34.3807 12.5 35.5 11.3807 35.5 10Z" />
<path d="M30.5 20C30.5 18.6193 29.3807 17.5 28 17.5H13C11.6193 17.5 10.5 18.6193 10.5 20C10.5 21.3807 11.6193 22.5 13 22.5H28C29.3807 22.5 30.5 21.3807 30.5 20Z" />
<path d="M23 27.5C24.3807 27.5 25.5 28.6193 25.5 30C25.5 31.3807 24.3807 32.5 23 32.5H18C16.6193 32.5 15.5 31.3807 15.5 30C15.5 28.6193 16.6193 27.5 18 27.5H23Z" />
</svg>
