<svg width="40" height="40" viewBox="0 0 40 40" fill="none" xmlns="http://www.w3.org/2000/svg">
<path fill-rule="evenodd" clip-rule="evenodd" d="M20 35C28.2843 35 35 28.2843 35 20C35 11.7157 28.2843 5 20 5C11.7157 5 5 11.7157 5 20C5 28.2843 11.7157 35 20 35ZM28.2241 29.4138C30.8447 27.1224 32.5 23.7545 32.5 20C32.5 13.0964 26.9036 7.5 20 7.5C13.0964 7.5 7.5 13.0964 7.5 20C7.5 23.702 9.10929 27.0281 11.6665 29.3169L13.75 18.7172H16.4628L20 12.5906L23.5372 18.7172H26.25L28.2241 29.4138ZM25.1148 31.409L24.007 21.2172H15.993L14.8852 31.409C16.4464 32.11 18.1777 32.5 20 32.5C21.8223 32.5 23.5535 32.11 25.1148 31.409Z" fill="black"/>
</svg>
