<svg width="20" height="21" viewBox="0 0 20 21" fill="none" xmlns="http://www.w3.org/2000/svg">
<path d="M11.875 4.875C11.875 5.91053 11.0356 6.75 10 6.75C8.9645 6.75 8.12503 5.91053 8.12503 4.875C8.12503 3.83947 8.9645 3 10 3C11.0356 3 11.875 3.83947 11.875 4.875Z" fill="black"/>
<path d="M11.875 10.5C11.875 11.5355 11.0356 12.375 10 12.375C8.9645 12.375 8.12503 11.5355 8.12503 10.5C8.12503 9.46447 8.9645 8.625 10 8.625C11.0356 8.625 11.875 9.46447 11.875 10.5Z" fill="black"/>
<path d="M11.875 16.125C11.875 17.1605 11.0356 18 10 18C8.9645 18 8.12503 17.1605 8.12503 16.125C8.12503 15.0895 8.9645 14.25 10 14.25C11.0356 14.25 11.875 15.0895 11.875 16.125Z" fill="black"/>
</svg>
