<svg width="18" height="18" viewBox="0 0 18 18" fill="none" xmlns="http://www.w3.org/2000/svg">
<path fill-rule="evenodd" clip-rule="evenodd" d="M9 12C10.6569 12 12 10.6569 12 9C12 7.34315 10.6569 6 9 6C7.34315 6 6 7.34315 6 9C6 10.6569 7.34315 12 9 12ZM9 13.5C11.4853 13.5 13.5 11.4853 13.5 9C13.5 6.51472 11.4853 4.5 9 4.5C6.51472 4.5 4.5 6.51472 4.5 9C4.5 11.4853 6.51472 13.5 9 13.5Z" fill="black" />
<path fill-rule="evenodd" clip-rule="evenodd" d="M8.25 0H9.75V3.04642C9.5043 3.01578 9.254 3 9 3C8.746 3 8.4957 3.01578 8.25 3.04642V0ZM5.32073 4.26014L3.1663 2.10571L2.10564 3.16637L4.26008 5.32081C4.56803 4.92464 4.92456 4.5681 5.32073 4.26014ZM3.04642 8.25H0V9.75H3.04642C3.01578 9.5043 3 9.254 3 9C3 8.746 3.01578 8.4957 3.04642 8.25ZM4.26008 12.6792L2.10564 14.8336L3.1663 15.8943L5.32073 13.7399C4.92456 13.4319 4.56803 13.0754 4.26008 12.6792ZM8.25 14.9536V18H9.75V14.9536C9.5043 14.9842 9.254 15 9 15C8.746 15 8.4957 14.9842 8.25 14.9536ZM12.6792 13.7399L14.8336 15.8943L15.8942 14.8336L13.7399 12.6793C13.4319 13.0754 13.0754 13.432 12.6792 13.7399ZM14.9536 9.75H18V8.25H14.9536C14.9842 8.4957 15 8.746 15 9C15 9.254 14.9842 9.5043 14.9536 9.75ZM13.7399 5.32073L15.8942 3.16637L14.8336 2.10571L12.6792 4.26008C13.0754 4.56803 13.4319 4.92456 13.7399 5.32073Z" fill="black" />
</svg>
