<svg width="41" height="40" viewBox="0 0 41 40" fill="none" xmlns="http://www.w3.org/2000/svg">
<path d="M25.6471 19.9999L28.2207 22.5735L33.3679 17.4264C36.2106 14.5837 36.2106 9.97472 33.3679 7.13202C30.5252 4.28933 25.9162 4.28932 23.0735 7.13202L17.9264 12.2792L20.5 14.8528L25.6471 9.70561C27.0685 8.28426 29.3729 8.28426 30.7943 9.70561C32.2156 11.127 32.2156 13.4314 30.7943 14.8528L25.6471 19.9999Z" fill="black"/>
<path d="M20.5001 25.1472L23.0736 27.7208L17.9265 32.868C15.0838 35.7107 10.4748 35.7107 7.63215 32.868C4.78945 30.0253 4.78945 25.4164 7.63215 22.5737L12.7793 17.4265L15.3529 20.0001L10.2057 25.1472C8.78438 26.5686 8.78438 28.873 10.2057 30.2944C11.6271 31.7157 13.9315 31.7157 15.3529 30.2944L20.5001 25.1472Z" fill="black"/>
<path d="M25.6472 17.4262C26.3579 16.7155 26.3579 15.5633 25.6472 14.8526C24.9365 14.142 23.7843 14.142 23.0736 14.8526L15.3529 22.5734C14.6422 23.2841 14.6422 24.4363 15.3529 25.147C16.0636 25.8576 17.2158 25.8576 17.9265 25.147L25.6472 17.4262Z" fill="black"/>
</svg>
