<svg width="40" height="40" viewBox="0 0 40 40" fill="none" xmlns="http://www.w3.org/2000/svg">
<path d="M17.6036 25.8823L11.8182 20.0969L13.7467 18.1684L17.6036 22.0254L25.3175 14.3115L27.246 16.2399L17.6036 25.8823Z" fill="black"/>
<path fill-rule="evenodd" clip-rule="evenodd" d="M5 20C5 11.7157 11.7157 5 20 5C28.2843 5 35 11.7157 35 20C35 28.2843 28.2843 35 20 35C11.7157 35 5 28.2843 5 20ZM20 32.2727C13.222 32.2727 7.72727 26.778 7.72727 20C7.72727 13.222 13.222 7.72727 20 7.72727C26.778 7.72727 32.2727 13.222 32.2727 20C32.2727 26.778 26.778 32.2727 20 32.2727Z" fill="black"/>
</svg>
