<svg viewBox="0 0 30 8" fill="none" xmlns="http://www.w3.org/2000/svg">
<path d="M7.5 4C7.5 6.07107 5.82107 7.75 3.75 7.75C1.67893 7.75 0 6.07107 0 4C0 1.92893 1.67893 0.25 3.75 0.25C5.82107 0.25 7.5 1.92893 7.5 4Z" fill="black"/>
<path d="M18.75 4C18.75 6.07107 17.0711 7.75 15 7.75C12.9289 7.75 11.25 6.07107 11.25 4C11.25 1.92893 12.9289 0.25 15 0.25C17.0711 0.25 18.75 1.92893 18.75 4Z" fill="black"/>
<path d="M26.25 7.75C28.3211 7.75 30 6.07107 30 4C30 1.92893 28.3211 0.25 26.25 0.25C24.1789 0.25 22.5 1.92893 22.5 4C22.5 6.07107 24.1789 7.75 26.25 7.75Z" fill="black"/>
</svg>
