<svg width="40" height="40" viewBox="0 0 40 40" fill="none" xmlns="http://www.w3.org/2000/svg">
<path d="M25.9174 16.3488C26.4683 15.8353 26.4987 14.9724 25.9852 14.4215C25.4717 13.8706 24.6088 13.8402 24.0579 14.3537L20.0677 18.0726L16.3488 14.0825C15.8353 13.5315 14.9724 13.5012 14.4215 14.0147C13.8706 14.5281 13.8402 15.391 14.3537 15.9419L18.0727 19.9321L14.0825 23.6511C13.5315 24.1646 13.5012 25.0274 14.0147 25.5784C14.5281 26.1293 15.391 26.1596 15.9419 25.6462L19.9321 21.9272L23.6511 25.9174C24.1646 26.4683 25.0274 26.4987 25.5784 25.9852C26.1293 25.4717 26.1596 24.6088 25.6462 24.0579L21.9272 20.0677L25.9174 16.3488Z" fill="black"/>
<path fill-rule="evenodd" clip-rule="evenodd" d="M5 20C5 11.7157 11.7157 5 20 5C28.2843 5 35 11.7157 35 20C35 28.2843 28.2843 35 20 35C11.7157 35 5 28.2843 5 20ZM20 32.2727C13.222 32.2727 7.72727 26.778 7.72727 20C7.72727 13.222 13.222 7.72727 20 7.72727C26.778 7.72727 32.2727 13.222 32.2727 20C32.2727 26.778 26.778 32.2727 20 32.2727Z" fill="black"/>
</svg>
