<svg width="15" height="15" viewBox="0 0 15 15" fill="none" xmlns="http://www.w3.org/2000/svg">
<path d="M1.29883 4.62793H5.23633V1.56543H1.29883V4.62793ZM2.17383 2.44043H4.36133V3.75293H2.17383V2.44043Z" fill="#3B82F6"/>
<path d="M1.29883 9.00293H5.23633V5.94043H1.29883V9.00293ZM2.17383 6.81543H4.36133V8.12793H2.17383V6.81543Z" fill="#3B82F6"/>
<path d="M1.29883 13.3779H5.23633V10.3154H1.29883V13.3779ZM2.17383 11.1904H4.36133V12.5029H2.17383V11.1904Z" fill="#3B82F6"/>
<path d="M12.2363 4.62793H8.29883L9.7907 3.0573L9.17383 2.44043L6.54883 5.06543L9.17383 7.69043L9.7907 7.07355L8.29883 5.50293H12.2363C12.3524 5.50293 12.4636 5.54902 12.5457 5.63107C12.6277 5.71312 12.6738 5.8244 12.6738 5.94043V11.1904C12.6738 11.3065 12.6277 11.4177 12.5457 11.4998C12.4636 11.5818 12.3524 11.6279 12.2363 11.6279H6.98633V12.5029H12.2363C12.5844 12.5029 12.9183 12.3646 13.1644 12.1185C13.4105 11.8724 13.5488 11.5385 13.5488 11.1904V5.94043C13.5488 5.59233 13.4105 5.25849 13.1644 5.01235C12.9183 4.76621 12.5844 4.62793 12.2363 4.62793Z" fill="#3B82F6"/>
</svg>
