<svg width="10" height="9" viewBox="0 0 10 9" fill="none" xmlns="http://www.w3.org/2000/svg">
<path fill-rule="evenodd" clip-rule="evenodd" d="M8.99995 0.715137H1.31995C1.24038 0.715137 1.16408 0.746744 1.10781 0.803005C1.05155 0.859266 1.01995 0.935572 1.01995 1.01514V2.43614H9.29995V1.01514C9.29995 0.935572 9.26834 0.859266 9.21208 0.803005C9.15582 0.746744 9.07951 0.715137 8.99995 0.715137ZM1.01995 4.89414V3.13514H9.29995V4.89514L1.01995 4.89414ZM1.01995 5.59414V7.01514C1.01995 7.0947 1.05155 7.17101 1.10781 7.22727C1.16408 7.28353 1.24038 7.31514 1.31995 7.31514H8.99995C9.07951 7.31514 9.15582 7.28353 9.21208 7.22727C9.26834 7.17101 9.29995 7.0947 9.29995 7.01514V5.59414H1.01995ZM1.31995 0.0151367C1.05473 0.0151367 0.800376 0.120494 0.61284 0.30803C0.425303 0.495566 0.319946 0.74992 0.319946 1.01514V7.01514C0.319946 7.28035 0.425303 7.53471 0.61284 7.72224C0.800376 7.90978 1.05473 8.01514 1.31995 8.01514H8.99995C9.26516 8.01514 9.51952 7.90978 9.70705 7.72224C9.89459 7.53471 9.99995 7.28035 9.99995 7.01514V1.01514C9.99995 0.74992 9.89459 0.495566 9.70705 0.30803C9.51952 0.120494 9.26516 0.0151367 8.99995 0.0151367H1.31995Z" fill="black" />
</svg>
