<svg width="16" height="18" viewBox="0 0 16 18" fill="none" xmlns="http://www.w3.org/2000/svg">
<path d="M0.0412445 0H2.431V3.05542C3.85292 1.9381 5.64594 1.27171 7.5946 1.27171C12.214 1.27171 15.9587 5.01646 15.9587 9.63585C15.9587 14.2552 12.214 18 7.5946 18C5.02503 18 2.72609 16.8413 1.19178 15.0179L3.12668 13.6022C4.22106 14.8341 5.81719 15.6102 7.5946 15.6102C10.8942 15.6102 13.569 12.9354 13.569 9.63585C13.569 6.33629 10.8942 3.66146 7.5946 3.66146C6.29595 3.66146 5.09409 4.07581 4.11398 4.77951L7.21051 4.77951V7.16927H0.0412445V0Z" fill="black" />
</svg>
