<svg width="40" height="40" viewBox="0 0 40 40" fill="none" xmlns="http://www.w3.org/2000/svg">
<g opacity="0.5">
<path d="M7.14286 22.1428C5.95939 22.1428 5 21.1834 5 19.9999C5 18.8165 5.95939 17.8571 7.14286 17.8571H24.2857C25.4692 17.8571 26.4286 18.8165 26.4286 19.9999C26.4286 21.1834 25.4692 22.1428 24.2857 22.1428H7.14286Z" fill="black"/>
<path d="M7.14286 13.5714C5.95939 13.5714 5 12.612 5 11.4285C5 10.245 5.95939 9.28564 7.14286 9.28564H24.2857C25.4692 9.28564 26.4286 10.245 26.4286 11.4285C26.4286 12.612 25.4692 13.5714 24.2857 13.5714H7.14286Z" fill="black"/>
</g>
<path d="M5 28.5713C5 29.7548 5.95939 30.7142 7.14286 30.7142H32.8571C34.0406 30.7142 35 29.7548 35 28.5713C35 27.3879 34.0406 26.4285 32.8571 26.4285H7.14286C5.95939 26.4285 5 27.3879 5 28.5713Z" fill="black"/>
</svg>
