<svg width="10" height="8" viewBox="0 0 10 8" fill="none" xmlns="http://www.w3.org/2000/svg">
<path fill-rule="evenodd" clip-rule="evenodd" d="M8.68 0.7H1C0.920435 0.7 0.844129 0.731607 0.787868 0.787868C0.731607 0.844129 0.7 0.920435 0.7 1V2.421H8.98V1C8.98 0.920435 8.94839 0.844129 8.89213 0.787868C8.83587 0.731607 8.75957 0.7 8.68 0.7ZM0.7 4.879V3.12H8.98V4.88L0.7 4.879ZM0.7 5.579V7C0.7 7.07957 0.731607 7.15587 0.787868 7.21213C0.844129 7.26839 0.920435 7.3 1 7.3H8.68C8.75957 7.3 8.83587 7.26839 8.89213 7.21213C8.94839 7.15587 8.98 7.07957 8.98 7V5.579H0.7ZM1 0C0.734784 0 0.48043 0.105357 0.292893 0.292893C0.105357 0.48043 0 0.734784 0 1V7C0 7.26522 0.105357 7.51957 0.292893 7.70711C0.48043 7.89464 0.734784 8 1 8H8.68C8.94522 8 9.19957 7.89464 9.38711 7.70711C9.57464 7.51957 9.68 7.26522 9.68 7V1C9.68 0.734784 9.57464 0.48043 9.38711 0.292893C9.19957 0.105357 8.94522 0 8.68 0H1Z" fill="black" fill-opacity="0.54"/>
</svg>
