<svg viewBox="0 0 32 32" fill="none" xmlns="http://www.w3.org/2000/svg">
<path d="M7 19H10V13H7C3.6865 13 1 10.3135 1 7C1 3.6865 3.6865 1 7 1C10.3139 1 13 3.6865 13 7V10H19V7C19 3.6865 21.6865 1 25 1C28.3135 1 31 3.6865 31 7C31 10.3135 28.3135 13 25 13H22V19H25C28.3135 19 31 21.6865 31 25C31 28.3135 28.3135 31 25 31C21.6861 31 19 28.3135 19 25V22H13V24.9925C13 24.9955 13.0004 24.9977 13.0004 25C13.0004 28.3135 10.3139 31 7.00037 31C3.68687 31 1.00037 28.3135 1.00037 25C1.00037 21.6865 3.6865 19.0008 7 19ZM7 4C5.34325 4 4 5.34325 4 7C4 8.65675 5.34325 10 7 10H10V7C10 5.34325 8.65675 4 7 4ZM28 7C28 5.34325 26.6568 4 25 4C23.3432 4 22 5.34325 22 7V10H25C26.6568 10 28 8.65637 28 7ZM25 28C26.6568 28 28 26.6568 28 25C28 23.3432 26.6568 22 25 22H22V25C22 26.6568 23.3432 28 25 28ZM19 19V13H13V19H19ZM7 28C8.65675 28 10 26.6568 10 25V22H7.00037C5.34362 22 4.00037 23.3432 4.00037 25C4.00037 26.6568 5.34325 28 7 28Z" fill="black" stroke="black" stroke-width="0.008"/>
</svg>
