<svg width="40" height="41" viewBox="0 0 40 41" fill="none" xmlns="http://www.w3.org/2000/svg">
<path fill-rule="evenodd" clip-rule="evenodd" d="M19.0402 26.9797C19.3812 27.3502 19.7453 27.6862 20.1281 27.9876C20.287 27.8608 20.4426 27.7276 20.5944 27.5878C20.8443 27.3578 21.0775 27.1163 21.294 26.8647L18.9649 26.8969C18.9898 26.9246 19.0149 26.9522 19.0402 26.9797ZM17.1705 23.9215L22.9746 23.8412C23.1573 23.2612 23.2786 22.664 23.3381 22.0601L16.7827 22.526C16.8739 22.9975 17.0031 23.4643 17.1705 23.9215ZM22.7212 17.7966C22.8895 18.2127 23.0255 18.6379 23.1293 19.0683L16.7126 19.5243C16.7921 18.9817 16.9218 18.4467 17.1018 17.9267L22.7212 17.7966ZM18.9297 14.8845L20.7915 14.8414C20.4998 14.5406 20.1924 14.2639 19.8719 14.0116C19.7129 14.1384 19.5574 14.2716 19.4056 14.4113C19.2396 14.5641 19.081 14.722 18.9297 14.8845ZM22.5749 13.5329C26.7678 18.0882 26.5796 25.0884 22.1654 29.1996C25.2844 30.5398 28.9883 30.0552 31.5957 27.6553C35.1637 24.3712 35.3273 18.7441 31.9611 15.0869C29.2961 12.1916 25.2177 11.3988 21.8637 12.8238C22.1086 13.0477 22.3459 13.2841 22.5749 13.5329ZM33.1194 29.3108C29.5319 32.6128 24.2837 33.0142 20.1777 30.6655C15.8061 33.1691 10.0615 32.3511 6.42378 28.3988C2.21602 23.8273 2.42052 16.7935 6.88053 12.6884C10.4681 9.38632 15.7163 8.985 19.8223 11.3336C24.1938 8.83012 29.9384 9.64809 33.5762 13.6003C37.7839 18.1718 37.5794 25.2056 33.1194 29.3108ZM17.4251 28.4663C17.6541 28.7151 17.8914 28.9515 18.1362 29.1754C14.7823 30.6003 10.7039 29.8076 8.03889 26.9123C4.67269 23.255 4.83628 17.628 8.40429 14.3439C11.0117 11.944 14.7155 11.4594 17.8346 12.7996C13.4204 16.9108 13.2322 23.911 17.4251 28.4663Z" fill="black"/>
</svg>
