<svg width="40" height="40" viewBox="0 0 40 40" fill="none" xmlns="http://www.w3.org/2000/svg">
<path d="M24.5 18.5C23.6716 18.5 23 17.8284 23 17C23 16.1716 23.6716 15.5 24.5 15.5C25.3284 15.5 26 16.1716 26 17C26 17.8284 25.3284 18.5 24.5 18.5Z" fill="black"/>
<path d="M17 27.5C17 25.8431 18.3431 24.5 20 24.5C21.6569 24.5 23 25.8431 23 27.5H26C26 24.1863 23.3137 21.5 20 21.5C16.6863 21.5 14 24.1863 14 27.5H17Z" fill="black"/>
<path d="M14 17C14 17.8284 14.6716 18.5 15.5 18.5C16.3284 18.5 17 17.8284 17 17C17 16.1716 16.3284 15.5 15.5 15.5C14.6716 15.5 14 16.1716 14 17Z" fill="black"/>
<path fill-rule="evenodd" clip-rule="evenodd" d="M5 20C5 28.2843 11.7157 35 20 35C28.2843 35 35 28.2843 35 20C35 11.7157 28.2843 5 20 5C11.7157 5 5 11.7157 5 20ZM8 20C8 26.6274 13.3726 32 20 32C26.6274 32 32 26.6274 32 20C32 13.3726 26.6274 8 20 8C13.3726 8 8 13.3726 8 20Z" fill="black"/>
</svg>
