<svg width="12" height="12" viewBox="0 0 12 12" fill="none" xmlns="http://www.w3.org/2000/svg">
<path d="M11.7875 6.65406L8.8922 5.62469L7.81104 2.22125C7.7694 2.09 7.64283 2 7.5 2C7.35717 2 7.23061 2.09 7.18896 2.22125L6.10813 5.62469L3.21246 6.65406C3.08459 6.69969 3 6.81625 3 6.94719C3 7.07781 3.08459 7.195 3.21246 7.24031L6.1065 8.26938L7.18799 11.7766C7.22898 11.9091 7.35587 12 7.5 12C7.64381 12 7.77102 11.9091 7.81202 11.7763L8.8935 8.26906L11.7879 7.24C11.9151 7.195 12 7.07812 12 6.94719C12 6.81656 11.9151 6.69969 11.7875 6.65406Z" fill="#ffffff"/>
<path d="M4.44834 1.76933L3.39767 1.38044L3.00834 0.329333C2.94389 0.154667 2.77767 0.0391111 2.59145 0.0391111C2.40567 0.0391111 2.23945 0.154667 2.17456 0.329333L1.78567 1.38044L0.734558 1.76933C0.559891 1.83422 0.444336 2.00044 0.444336 2.18622C0.444336 2.372 0.559891 2.53867 0.734558 2.60311L1.78567 2.992L2.17456 4.04311C2.23945 4.21778 2.40567 4.33333 2.59145 4.33333C2.77723 4.33333 2.94345 4.21778 3.00834 4.04311L3.39723 2.992L4.44834 2.60311C4.623 2.53822 4.73856 2.372 4.73856 2.18622C4.73856 2.00044 4.623 1.83422 4.44834 1.76933Z" fill="#ffffff"/>
</svg>
