<svg width="41" height="40" viewBox="0 0 41 40" fill="none" xmlns="http://www.w3.org/2000/svg">
<path fill-rule="evenodd" clip-rule="evenodd" d="M20.109 34.995C20.2389 34.9983 20.3693 35 20.5 35C20.6307 35 20.7611 34.9983 20.891 34.995C26.9752 34.8393 32.1586 31.0608 34.3641 25.7363C35.8871 22.0511 35.8786 17.882 34.3385 14.2022C33.5847 12.4051 32.491 10.7858 31.1379 9.42469L31.0753 9.36206C29.7211 8.01584 28.1114 6.92644 26.3252 6.17303C22.6159 4.61184 18.4062 4.609 14.695 6.1645C12.8968 6.91989 11.2768 8.01563 9.91567 9.37111L9.87118 9.4156C8.50168 10.7908 7.39732 12.4303 6.64124 14.2508C5.90815 16.0199 5.52824 17.9009 5.5015 19.7859C5.5005 19.8571 5.5 19.9285 5.5 19.9999C5.5 20.0759 5.50057 20.1518 5.50169 20.2275C5.59365 26.4115 9.42782 31.6888 14.8404 33.8956C16.5279 34.582 18.3151 34.9485 20.109 34.995ZM17.4517 25.1697L13.141 29.4803C17.4579 32.8399 23.5421 32.8399 27.859 29.4803L23.5483 25.1697C21.6737 26.2768 19.3263 26.2768 17.4517 25.1697ZM25.6696 23.0483L29.9803 27.359C33.3399 23.0421 33.3399 16.9579 29.9803 12.641L25.6696 16.9517C26.7768 18.8263 26.7768 21.1737 25.6696 23.0483ZM23.3764 20.8542C23.384 20.8285 23.3913 20.8027 23.3982 20.7769C23.5339 20.2685 23.5339 19.7315 23.3982 19.2231C23.2666 18.7306 23.0077 18.2651 22.6213 17.8787C22.2552 17.5126 21.818 17.2609 21.3541 17.1236C21.3285 17.116 21.3027 17.1087 21.2769 17.1018C20.7685 16.9661 20.2315 16.9661 19.7231 17.1018C19.2306 17.2333 18.7651 17.4923 18.3787 17.8787C18.0126 18.2448 17.7608 18.682 17.6236 19.1459C17.6159 19.1715 17.6087 19.1973 17.6018 19.2231C17.466 19.7315 17.466 20.2685 17.6018 20.7769C17.7333 21.2694 17.9923 21.7349 18.3787 22.1213C18.7448 22.4874 19.182 22.7392 19.6458 22.8764C19.6715 22.884 19.6973 22.8913 19.7231 22.8982C20.2315 23.034 20.7685 23.034 21.2769 22.8982C21.7694 22.7667 22.2349 22.5077 22.6213 22.1213C22.9874 21.7552 23.2391 21.318 23.3764 20.8542ZM17.4517 14.8304C19.3263 13.7232 21.6737 13.7232 23.5483 14.8304L27.859 10.5197C23.5421 7.1601 17.4579 7.1601 13.141 10.5197L17.4517 14.8304ZM11.0197 27.359C7.66008 23.0421 7.66008 16.9579 11.0197 12.641L15.3303 16.9517C14.2232 18.8263 14.2232 21.1737 15.3303 23.0483L11.0197 27.359Z" fill="black"/>
</svg>
