<svg width="18" height="18" viewBox="0 0 18 18" fill="none" xmlns="http://www.w3.org/2000/svg">
<path d="M9 12.6C10.9882 12.6 12.6 10.9882 12.6 9C12.6 7.01177 10.9882 5.4 9 5.4V12.6Z" fill="black" />
<path fill-rule="evenodd" clip-rule="evenodd" d="M9 0C4.02944 0 0 4.02944 0 9C0 13.9706 4.02944 18 9 18C13.9706 18 18 13.9706 18 9C18 4.02944 13.9706 0 9 0ZM9 1.8V5.4C7.01177 5.4 5.4 7.01177 5.4 9C5.4 10.9882 7.01177 12.6 9 12.6V16.2C12.9764 16.2 16.2 12.9764 16.2 9C16.2 5.02355 12.9764 1.8 9 1.8Z" fill="black" />
</svg>
