<svg width="15" height="15" viewBox="0 0 15 15" fill="none" xmlns="http://www.w3.org/2000/svg">
<path d="M12.9864 6.71046L11.544 5.26802C11.4139 5.13828 11.2377 5.06543 11.054 5.06543C10.8703 5.06543 10.694 5.13828 10.564 5.26802L4.43896 11.3948V13.8155H6.85965L12.9864 7.69046C13.1161 7.56038 13.189 7.38417 13.189 7.20046C13.189 7.01674 13.1161 6.84053 12.9864 6.71046ZM6.49696 12.9405H5.31396V11.7575L9.44396 7.62702L10.6274 8.81002L6.49696 12.9405ZM11.2465 8.19139L10.0635 7.00839L11.0553 6.01658L12.2383 7.19958L11.2465 8.19139Z" fill="#F59E0B"/>
<path d="M4.87646 8.12793H5.75146V5.06543H7.06396V4.19043H3.56396V5.06543H4.87646V8.12793Z" fill="#F59E0B"/>
<path d="M3.56396 9.44043H1.81396V2.44043H8.81396V4.19043H9.68896V2.44043C9.68896 2.20837 9.59678 1.98581 9.43268 1.82171C9.26859 1.65762 9.04603 1.56543 8.81396 1.56543H1.81396C1.5819 1.56543 1.35934 1.65762 1.19525 1.82171C1.03115 1.98581 0.938965 2.20837 0.938965 2.44043V9.44043C0.938965 9.67249 1.03115 9.89505 1.19525 10.0591C1.35934 10.2232 1.5819 10.3154 1.81396 10.3154H3.56396V9.44043Z" fill="#F59E0B"/>
</svg>
