<svg width="15" height="15" viewBox="0 0 15 15" fill="none" xmlns="http://www.w3.org/2000/svg">
<path d="M4.43896 10.3154C4.92221 10.3154 5.31396 9.92368 5.31396 9.44043C5.31396 8.95718 4.92221 8.56543 4.43896 8.56543C3.95572 8.56543 3.56396 8.95718 3.56396 9.44043C3.56396 9.92368 3.95572 10.3154 4.43896 10.3154Z" fill="#F97316"/>
<path d="M4.43896 13.8154C4.92221 13.8154 5.31396 13.4237 5.31396 12.9404C5.31396 12.4572 4.92221 12.0654 4.43896 12.0654C3.95572 12.0654 3.56396 12.4572 3.56396 12.9404C3.56396 13.4237 3.95572 13.8154 4.43896 13.8154Z" fill="#F97316"/>
<path d="M4.43896 7.69043C4.92221 7.69043 5.31396 7.29868 5.31396 6.81543C5.31396 6.33218 4.92221 5.94043 4.43896 5.94043C3.95572 5.94043 3.56396 6.33218 3.56396 6.81543C3.56396 7.29868 3.95572 7.69043 4.43896 7.69043Z" fill="#F97316"/>
<path d="M12.314 3.31543C12.7972 3.31543 13.189 2.92368 13.189 2.44043C13.189 1.95718 12.7972 1.56543 12.314 1.56543C11.8307 1.56543 11.439 1.95718 11.439 2.44043C11.439 2.92368 11.8307 3.31543 12.314 3.31543Z" fill="#F97316"/>
<path d="M9.68896 4.19043C10.1722 4.19043 10.564 3.79868 10.564 3.31543C10.564 2.83218 10.1722 2.44043 9.68896 2.44043C9.20572 2.44043 8.81396 2.83218 8.81396 3.31543C8.81396 3.79868 9.20572 4.19043 9.68896 4.19043Z" fill="#F97316"/>
<path d="M12.314 5.94043C12.7972 5.94043 13.189 5.54868 13.189 5.06543C13.189 4.58218 12.7972 4.19043 12.314 4.19043C11.8307 4.19043 11.439 4.58218 11.439 5.06543C11.439 5.54868 11.8307 5.94043 12.314 5.94043Z" fill="#F97316"/>
<path d="M8.81396 6.81543C9.29721 6.81543 9.68896 6.42368 9.68896 5.94043C9.68896 5.45718 9.29721 5.06543 8.81396 5.06543C8.33072 5.06543 7.93896 5.45718 7.93896 5.94043C7.93896 6.42368 8.33072 6.81543 8.81396 6.81543Z" fill="#F97316"/>
<path d="M12.314 11.1904C12.7972 11.1904 13.189 10.7987 13.189 10.3154C13.189 9.83218 12.7972 9.44043 12.314 9.44043C11.8307 9.44043 11.439 9.83218 11.439 10.3154C11.439 10.7987 11.8307 11.1904 12.314 11.1904Z" fill="#F97316"/>
<path d="M11.439 13.8154C11.9222 13.8154 12.314 13.4237 12.314 12.9404C12.314 12.4572 11.9222 12.0654 11.439 12.0654C10.9557 12.0654 10.564 12.4572 10.564 12.9404C10.564 13.4237 10.9557 13.8154 11.439 13.8154Z" fill="#F97316"/>
<path d="M8.81396 12.9404C9.29721 12.9404 9.68896 12.5487 9.68896 12.0654C9.68896 11.5822 9.29721 11.1904 8.81396 11.1904C8.33072 11.1904 7.93896 11.5822 7.93896 12.0654C7.93896 12.5487 8.33072 12.9404 8.81396 12.9404Z" fill="#F97316"/>
<path d="M9.68896 10.3154C10.1722 10.3154 10.564 9.92368 10.564 9.44043C10.564 8.95718 10.1722 8.56543 9.68896 8.56543C9.20572 8.56543 8.81396 8.95718 8.81396 9.44043C8.81396 9.92368 9.20572 10.3154 9.68896 10.3154Z" fill="#F97316"/>
<path d="M7.06396 3.31543C7.54721 3.31543 7.93896 2.92368 7.93896 2.44043C7.93896 1.95718 7.54721 1.56543 7.06396 1.56543C6.58072 1.56543 6.18896 1.95718 6.18896 2.44043C6.18896 2.92368 6.58072 3.31543 7.06396 3.31543Z" fill="#F97316"/>
<path d="M1.81396 12.0654C2.29721 12.0654 2.68896 11.6737 2.68896 11.1904C2.68896 10.7072 2.29721 10.3154 1.81396 10.3154C1.33072 10.3154 0.938965 10.7072 0.938965 11.1904C0.938965 11.6737 1.33072 12.0654 1.81396 12.0654Z" fill="#F97316"/>
<path d="M1.81396 8.56543C2.29721 8.56543 2.68896 8.17368 2.68896 7.69043C2.68896 7.20718 2.29721 6.81543 1.81396 6.81543C1.33072 6.81543 0.938965 7.20718 0.938965 7.69043C0.938965 8.17368 1.33072 8.56543 1.81396 8.56543Z" fill="#F97316"/>
</svg>
