<svg width="41" height="40" viewBox="0 0 41 40" fill="none" xmlns="http://www.w3.org/2000/svg">
<path fill-rule="evenodd" clip-rule="evenodd" d="M12.6052 9.73684V8.15789C12.6052 6.41384 14.0191 5 15.7631 5H25.2368C26.9809 5 28.3947 6.41384 28.3947 8.15789V9.73684H33.1316C34.0036 9.73684 34.7105 10.4438 34.7105 11.3158C34.7105 12.1878 34.0036 12.8947 33.1316 12.8947H31.5526V30.2632C31.5526 32.8792 29.4319 35 26.8158 35H14.1842C11.5681 35 9.44735 32.8792 9.44735 30.2632V12.8947H7.8684C6.99638 12.8947 6.28946 12.1878 6.28946 11.3158C6.28946 10.4438 6.99638 9.73684 7.8684 9.73684H12.6052ZM15.7631 8.15789H25.2368V9.73684H15.7631V8.15789ZM12.6052 12.8947H28.3947V30.2632C28.3947 31.1352 27.6878 31.8421 26.8158 31.8421H14.1842C13.3122 31.8421 12.6052 31.1352 12.6052 30.2632V12.8947Z" fill="black"/>
</svg>
