<svg width="12" height="13" viewBox="0 0 12 13" fill="none" xmlns="http://www.w3.org/2000/svg">
<path d="M6.69219 5.45638L6.5869 4.25296L8.02118 4.12748C7.47811 3.60408 6.73948 3.28219 5.92568 3.28219C4.25776 3.28219 2.90565 4.63431 2.90565 6.30223C2.90565 7.97015 4.25776 9.32226 5.92568 9.32226C7.02544 9.32226 7.9879 8.73442 8.51599 7.85581L9.72564 8.15823C9.03826 9.56292 7.59494 10.5303 5.92568 10.5303C3.59059 10.5303 1.69763 8.63731 1.69763 6.30223C1.69763 3.96714 3.59059 2.07418 5.92568 2.07418C7.10134 2.07418 8.16494 2.55403 8.93129 3.32855L8.78317 1.63556L9.98658 1.53027L10.3024 5.14052L6.69219 5.45638Z"/>
</svg>
