

<svg width="40" height="40" viewBox="0 0 40 40" fill="none" xmlns="http://www.w3.org/2000/svg">
<path fill-rule="evenodd" clip-rule="evenodd" d="M32.3968 14.7937V25.2064C32.3968 25.9252 31.8141 26.508 31.0952 26.508H13.3674C12.9874 26.508 12.6264 26.3419 12.3791 26.0534L7.91653 20.8471C7.49873 20.3597 7.49873 19.6404 7.91653 19.153L12.3791 13.9466C12.6264 13.6581 12.9874 13.4921 13.3674 13.4921H31.0952C31.8141 13.4921 32.3968 14.0748 32.3968 14.7937ZM35 14.7937V25.2064C35 27.3629 33.2518 29.1111 31.0952 29.1111H13.3674C12.2275 29.1111 11.1445 28.613 10.4026 27.7476L5.94005 22.5412C4.68665 21.0789 4.68665 18.9211 5.94005 17.4588L10.4026 12.2525C11.1445 11.387 12.2275 10.8889 13.3674 10.8889H31.0952C33.2518 10.8889 35 12.6371 35 14.7937Z" fill="black"/>
<path fill-rule="evenodd" clip-rule="evenodd" d="M15.4762 21.3016C14.7573 21.3016 14.1746 20.7189 14.1746 20C14.1746 19.2812 14.7573 18.6984 15.4762 18.6984C16.195 18.6984 16.7778 19.2812 16.7778 20C16.7778 20.7189 16.195 21.3016 15.4762 21.3016ZM15.4762 23.9048C13.3196 23.9048 11.5714 22.1566 11.5714 20C11.5714 17.8435 13.3196 16.0953 15.4762 16.0953C17.6327 16.0953 19.3809 17.8435 19.3809 20C19.3809 22.1566 17.6327 23.9048 15.4762 23.9048Z" fill="black"/>
</svg>
