<svg width="246" height="36" viewBox="0 0 246 36" fill="none" xmlns="http://www.w3.org/2000/svg">
<path d="M16.72 0.5H228.951C237.875 0.5 245.171 8.29964 245.171 18C245.171 27.7004 237.875 35.5 228.951 35.5H16.72C7.79603 35.5 0.5 27.7004 0.5 18C0.5 8.29964 7.79604 0.5 16.72 0.5Z" fill="url(#paint0_linear_202_232)"/>
<path d="M16.72 0.5H228.951C237.875 0.5 245.171 8.29964 245.171 18C245.171 27.7004 237.875 35.5 228.951 35.5H16.72C7.79603 35.5 0.5 27.7004 0.5 18C0.5 8.29964 7.79604 0.5 16.72 0.5Z" fill="url(#paint1_linear_202_232)"/>
<path d="M16.72 0.5H228.951C237.875 0.5 245.171 8.29964 245.171 18C245.171 27.7004 237.875 35.5 228.951 35.5H16.72C7.79603 35.5 0.5 27.7004 0.5 18C0.5 8.29964 7.79604 0.5 16.72 0.5Z" stroke="#EFEFEF"/>
<path d="M16.72 0.5H228.951C237.875 0.5 245.171 8.29964 245.171 18C245.171 27.7004 237.875 35.5 228.951 35.5H16.72C7.79603 35.5 0.5 27.7004 0.5 18C0.5 8.29964 7.79604 0.5 16.72 0.5Z" stroke="#141C2E"/>
<g filter="url(#filter0_d_202_232)">
<path d="M24.8916 23.9983C28.3993 23.9983 31.2429 21.1413 31.2429 17.617C31.2429 14.0927 28.3993 11.2357 24.8916 11.2357C21.3839 11.2357 18.5403 14.0927 18.5403 17.617C18.5403 21.1413 21.3839 23.9983 24.8916 23.9983Z" fill="#FFD21E"/>
<path d="M31.243 17.617C31.243 14.0927 28.3995 11.2357 24.8917 11.2357C21.384 11.2357 18.5404 14.0927 18.5404 17.617C18.5404 21.1413 21.384 23.9983 24.8917 23.9983C28.3995 23.9983 31.243 21.1413 31.243 17.617ZM17.8093 17.617C17.8093 13.6871 20.9802 10.5012 24.8917 10.5012C28.8032 10.5012 31.9741 13.6871 31.9741 17.617C31.9741 21.547 28.8032 24.7329 24.8917 24.7329C20.9802 24.7329 17.8093 21.547 17.8093 17.617Z" fill="#FF9D00"/>
<path d="M26.9556 15.8802C27.1886 15.9629 27.2813 16.4441 27.5167 16.3184C27.9624 16.0803 28.1316 15.5242 27.8946 15.0764C27.6576 14.6285 27.1041 14.4585 26.6584 14.6966C26.2127 14.9347 26.0434 15.4908 26.2805 15.9387C26.3923 16.1501 26.7474 15.8064 26.9556 15.8802Z" fill="#32343D"/>
<path d="M22.6493 15.8802C22.4164 15.9629 22.3237 16.4441 22.0883 16.3184C21.6426 16.0803 21.4734 15.5242 21.7104 15.0764C21.9474 14.6285 22.5008 14.4585 22.9466 14.6966C23.3923 14.9347 23.5615 15.4908 23.3245 15.9387C23.2127 16.1501 22.8576 15.8064 22.6493 15.8802Z" fill="#32343D"/>
<path d="M24.846 20.2869C26.6424 20.2869 27.222 18.6777 27.222 17.8514C27.222 17.4219 26.9347 17.5571 26.4745 17.786C26.0492 17.9975 25.4763 18.2891 24.846 18.2891C23.5338 18.2891 22.47 17.025 22.47 17.8514C22.47 18.6777 23.0496 20.2869 24.846 20.2869Z" fill="#32343D"/>
<mask id="mask0_202_232" style="mask-type:alpha" maskUnits="userSpaceOnUse" x="22" y="17" width="6" height="4">
<path d="M24.846 20.2869C26.6424 20.2869 27.222 18.6777 27.222 17.8514C27.222 17.4219 26.9347 17.5571 26.4745 17.786C26.0492 17.9975 25.4763 18.2891 24.846 18.2891C23.5338 18.2891 22.47 17.025 22.47 17.8514C22.47 18.6777 23.0496 20.2869 24.846 20.2869Z" fill="white"/>
</mask>
<g mask="url(#mask0_202_232)">
<path d="M24.8919 22.1627C25.7676 22.1627 26.4775 21.4495 26.4775 20.5697C26.4775 19.8844 26.0468 19.3002 25.4426 19.0753C25.4204 19.0671 25.3979 19.0593 25.3752 19.052C25.2228 19.003 25.0605 19.5292 24.8919 19.5292C24.7345 19.5292 24.5824 18.9997 24.4388 19.0426C23.7839 19.2385 23.3064 19.8481 23.3064 20.5697C23.3064 21.4495 24.0163 22.1627 24.8919 22.1627Z" fill="#FF323D"/>
</g>
<g style="mix-blend-mode:multiply">
<path d="M29.1864 16.7451C29.5146 16.7451 29.7806 16.4778 29.7806 16.1481C29.7806 15.8184 29.5146 15.5511 29.1864 15.5511C28.8583 15.5511 28.5923 15.8184 28.5923 16.1481C28.5923 16.4778 28.8583 16.7451 29.1864 16.7451Z" fill="#FFD21E"/>
</g>
<g style="mix-blend-mode:multiply">
<path d="M20.6881 16.7451C21.0163 16.7451 21.2823 16.4778 21.2823 16.1481C21.2823 15.8184 21.0163 15.5511 20.6881 15.5511C20.36 15.5511 20.094 15.8184 20.094 16.1481C20.094 16.4778 20.36 16.7451 20.6881 16.7451Z" fill="#FFD21E"/>
</g>
<path d="M19.4659 18.7647C19.17 18.7647 18.9055 18.8869 18.7211 19.1083C18.607 19.2455 18.4879 19.4666 18.4782 19.7977C18.3541 19.7619 18.2347 19.7419 18.1232 19.7419C17.8399 19.7419 17.5841 19.8509 17.4031 20.0491C17.1706 20.3034 17.0674 20.616 17.1123 20.9287C17.1337 21.0776 17.1832 21.2111 17.2573 21.3347C17.1012 21.4616 16.9862 21.6383 16.9307 21.8507C16.8872 22.0173 16.8426 22.3642 17.0754 22.7215C17.0606 22.7448 17.0467 22.7691 17.0337 22.7939C16.8937 23.0609 16.8848 23.3626 17.0083 23.6435C17.1957 24.0694 17.6612 24.4049 18.5652 24.765C19.1276 24.989 19.6421 25.1323 19.6466 25.1336C20.3902 25.3273 21.0626 25.4257 21.6447 25.4257C22.7146 25.4257 23.4806 25.0965 23.9215 24.4471C24.631 23.4015 24.5296 22.4451 23.6115 21.5233C23.1034 21.0132 22.7656 20.261 22.6953 20.0959C22.5534 19.6071 22.1784 19.0637 21.555 19.0637H21.5548C21.5023 19.0637 21.4493 19.0679 21.397 19.0762C21.124 19.1193 20.8853 19.2773 20.7148 19.5149C20.5307 19.285 20.352 19.1021 20.1902 18.9989C19.9464 18.8435 19.7027 18.7647 19.4659 18.7647ZM19.4659 19.4993C19.5591 19.4993 19.673 19.5391 19.7985 19.6192C20.1884 19.8677 20.9407 21.1669 21.2161 21.6722C21.3084 21.8415 21.4661 21.9132 21.6081 21.9132C21.89 21.9132 22.11 21.6316 21.6339 21.2739C20.918 20.7357 21.1691 19.8559 21.5109 19.8017C21.5259 19.7993 21.5407 19.7982 21.555 19.7982C21.8657 19.7982 22.0027 20.3363 22.0027 20.3363C22.0027 20.3363 22.4045 21.35 23.0946 22.0428C23.7848 22.7358 23.8204 23.2921 23.3174 24.0332C22.9744 24.5386 22.3177 24.6912 21.6447 24.6912C20.9467 24.6912 20.2311 24.527 19.8301 24.4225C19.8104 24.4174 17.3717 23.7253 17.6806 23.1362C17.7325 23.0372 17.818 22.9975 17.9257 22.9975C18.3607 22.9975 19.1519 23.648 19.492 23.648C19.568 23.648 19.6216 23.6155 19.6435 23.5361C19.7885 23.0137 17.4399 22.7941 17.6378 22.0373C17.6727 21.9034 17.7674 21.8491 17.9004 21.8493C18.4753 21.8493 19.7649 22.8649 20.0352 22.8649C20.0559 22.8649 20.0707 22.8589 20.0787 22.846C20.2141 22.6264 20.1399 22.4731 19.1853 21.8926C18.2307 21.3119 17.5607 20.9627 17.9417 20.5458C17.9856 20.4977 18.0478 20.4764 18.1232 20.4764C18.7028 20.4766 20.0721 21.7286 20.0721 21.7286C20.0721 21.7286 20.4417 22.1148 20.6652 22.1148C20.7166 22.1148 20.7603 22.0944 20.7899 22.0441C20.9483 21.7756 19.318 20.5342 19.2261 20.0221C19.1638 19.675 19.2698 19.4993 19.4659 19.4993Z" fill="#FF9D00"/>
<path d="M23.3167 24.0332C23.8197 23.2921 23.784 22.7358 23.0939 22.0428C22.4038 21.3499 22.002 20.3363 22.002 20.3363C22.002 20.3363 21.852 19.7475 21.5102 19.8017C21.1684 19.8559 20.9175 20.7357 21.6334 21.2739C22.3493 21.812 21.4908 22.1776 21.2154 21.6722C20.9399 21.1669 20.1878 19.8676 19.7978 19.6192C19.408 19.3707 19.1334 19.5099 19.2254 20.0221C19.3173 20.5342 20.9478 21.7756 20.7892 22.0443C20.6305 22.3127 20.0714 21.7286 20.0714 21.7286C20.0714 21.7286 18.3219 20.129 17.941 20.5458C17.5601 20.9627 18.23 21.3119 19.1846 21.8926C20.1394 22.4731 20.2134 22.6264 20.078 22.846C19.9424 23.0656 17.835 21.2805 17.6371 22.0373C17.4393 22.7941 19.7877 23.0137 19.6428 23.5361C19.4979 24.0587 17.9885 22.5472 17.6798 23.1362C17.371 23.7253 19.8097 24.4174 19.8294 24.4225C20.6172 24.6278 22.6178 25.0629 23.3167 24.0332Z" fill="#FFD21E"/>
<path d="M30.4094 18.7647C30.7053 18.7647 30.9697 18.8869 31.1542 19.1083C31.2682 19.2455 31.3874 19.4666 31.3971 19.7977C31.5212 19.7619 31.6405 19.7419 31.752 19.7419C32.0353 19.7419 32.2912 19.8509 32.4721 20.0491C32.7046 20.3034 32.8079 20.616 32.7629 20.9287C32.7415 21.0776 32.692 21.2111 32.618 21.3347C32.7741 21.4616 32.889 21.6383 32.9446 21.8507C32.9881 22.0173 33.0327 22.3642 32.7998 22.7215C32.8146 22.7448 32.8285 22.7691 32.8415 22.7939C32.9815 23.0609 32.9905 23.3626 32.8669 23.6435C32.6796 24.0694 32.2141 24.4049 31.3101 24.765C30.7477 24.989 30.2332 25.1323 30.2286 25.1336C29.4851 25.3273 28.8127 25.4257 28.2306 25.4257C27.1606 25.4257 26.3946 25.0965 25.9538 24.4471C25.2442 23.4015 25.3457 22.4451 26.2637 21.5233C26.7719 21.0132 27.1096 20.261 27.18 20.0959C27.3218 19.6071 27.6969 19.0637 28.3203 19.0637H28.3205C28.3729 19.0637 28.4259 19.0679 28.4782 19.0762C28.7513 19.1193 28.99 19.2773 29.1605 19.5149C29.3445 19.285 29.5233 19.1021 29.685 18.9989C29.9289 18.8435 30.1725 18.7647 30.4094 18.7647ZM30.4094 19.4993C30.3162 19.4993 30.2023 19.5391 30.0767 19.6192C29.6869 19.8677 28.9346 21.1669 28.6591 21.6722C28.5668 21.8415 28.4091 21.9132 28.2671 21.9132C27.9853 21.9132 27.7652 21.6316 28.2413 21.2739C28.9572 20.7357 28.7061 19.8559 28.3643 19.8017C28.3494 19.7993 28.3345 19.7982 28.3203 19.7982C28.0096 19.7982 27.8725 20.3363 27.8725 20.3363C27.8725 20.3363 27.4708 21.35 26.7806 22.0428C26.0905 22.7358 26.0548 23.2921 26.5578 24.0332C26.9009 24.5386 27.5576 24.6912 28.2306 24.6912C28.9286 24.6912 29.6441 24.527 30.0451 24.4225C30.0648 24.4174 32.5036 23.7253 32.1947 23.1362C32.1428 23.0372 32.0572 22.9975 31.9496 22.9975C31.5146 22.9975 30.7234 23.648 30.3832 23.648C30.3072 23.648 30.2536 23.6155 30.2317 23.5361C30.0868 23.0137 32.4354 22.7941 32.2374 22.0373C32.2025 21.9034 32.1079 21.8491 31.9748 21.8493C31.4 21.8493 30.1104 22.8649 29.84 22.8649C29.8194 22.8649 29.8046 22.8589 29.7965 22.846C29.6611 22.6264 29.7353 22.4731 30.6899 21.8926C31.6445 21.3119 32.3146 20.9627 31.9335 20.5458C31.8896 20.4977 31.8275 20.4764 31.752 20.4764C31.1724 20.4766 29.8031 21.7286 29.8031 21.7286C29.8031 21.7286 29.4336 22.1148 29.21 22.1148C29.1587 22.1148 29.115 22.0944 29.0854 22.0441C28.9269 21.7756 30.5572 20.5342 30.6492 20.0221C30.7115 19.675 30.6055 19.4993 30.4094 19.4993Z" fill="#FF9D00"/>
<path d="M26.5576 24.0332C26.0546 23.2921 26.0902 22.7358 26.7804 22.0428C27.4705 21.3499 27.8722 20.3363 27.8722 20.3363C27.8722 20.3363 28.0223 19.7475 28.3641 19.8017C28.7059 19.8559 28.9568 20.7357 28.2409 21.2739C27.525 21.812 28.3835 22.1776 28.6589 21.6722C28.9343 21.1669 29.6864 19.8676 30.0765 19.6192C30.4663 19.3707 30.7408 19.5099 30.6489 20.0221C30.557 20.5342 28.9265 21.7756 29.0851 22.0443C29.2438 22.3127 29.8029 21.7286 29.8029 21.7286C29.8029 21.7286 31.5523 20.129 31.9332 20.5458C32.3141 20.9627 31.6443 21.3119 30.6897 21.8926C29.7349 22.4731 29.6608 22.6264 29.7963 22.846C29.9319 23.0656 32.0392 21.2805 32.2372 22.0373C32.4349 22.7941 30.0865 23.0137 30.2315 23.5361C30.3764 24.0587 31.8857 22.5472 32.1944 23.1362C32.5033 23.7253 30.0646 24.4174 30.0448 24.4225C29.2571 24.6278 27.2565 25.0629 26.5576 24.0332Z" fill="#FFD21E"/>
</g>
<path d="M45.7288 24.2071C44.9694 24.2071 44.2331 24.0633 43.5197 23.7756C42.8179 23.488 42.1966 23.0796 41.6558 22.5503L42.8294 21.1869C43.2321 21.5666 43.6923 21.8772 44.21 22.1188C44.7278 22.349 45.2455 22.464 45.7633 22.464C46.4076 22.464 46.8966 22.3317 47.2303 22.0671C47.5639 21.8024 47.7307 21.4515 47.7307 21.0143C47.7307 20.5426 47.5639 20.2032 47.2303 19.9961C46.9081 19.789 46.4939 19.5761 45.9877 19.3575L44.4344 18.6844C44.0662 18.5234 43.7038 18.3163 43.3471 18.0631C43.002 17.81 42.7143 17.4879 42.4842 17.0967C42.2656 16.7055 42.1563 16.2338 42.1563 15.6815C42.1563 15.0832 42.3174 14.5482 42.6395 14.0765C42.9732 13.5932 43.4219 13.2136 43.9857 12.9374C44.561 12.6498 45.2168 12.506 45.9531 12.506C46.609 12.506 47.2418 12.6383 47.8516 12.9029C48.4613 13.156 48.9848 13.5012 49.4221 13.9384L48.4038 15.2155C48.0471 14.9164 47.6675 14.6805 47.2648 14.5079C46.8736 14.3353 46.4364 14.2491 45.9531 14.2491C45.4239 14.2491 44.9924 14.3699 44.6588 14.6115C44.3366 14.8416 44.1755 15.1637 44.1755 15.5779C44.1755 15.8656 44.2561 16.1072 44.4171 16.3028C44.5897 16.4869 44.8141 16.648 45.0902 16.786C45.3664 16.9126 45.6597 17.0391 45.9704 17.1657L47.5064 17.8043C48.1737 18.0919 48.7202 18.4716 49.1459 18.9433C49.5716 19.4035 49.7845 20.0421 49.7845 20.859C49.7845 21.4688 49.6234 22.0268 49.3012 22.533C48.9791 23.0393 48.5131 23.4477 47.9033 23.7584C47.305 24.0575 46.5802 24.2071 45.7288 24.2071ZM51.6643 24V15.5262H53.649V24H51.6643ZM52.6653 14.042C52.3086 14.042 52.021 13.9384 51.8024 13.7313C51.5838 13.5242 51.4744 13.2481 51.4744 12.9029C51.4744 12.5692 51.5838 12.2989 51.8024 12.0918C52.021 11.8847 52.3086 11.7811 52.6653 11.7811C53.0219 11.7811 53.3096 11.8847 53.5282 12.0918C53.7468 12.2989 53.8561 12.5692 53.8561 12.9029C53.8561 13.2481 53.7468 13.5242 53.5282 13.7313C53.3096 13.9384 53.0219 14.042 52.6653 14.042ZM59.1323 27.7451C58.465 27.7451 57.8609 27.6645 57.3202 27.5034C56.7909 27.3424 56.371 27.095 56.0603 26.7613C55.7612 26.4392 55.6116 26.0307 55.6116 25.536C55.6116 24.8342 56.0143 24.2301 56.8197 23.7239V23.6548C56.6011 23.5168 56.417 23.3327 56.2674 23.1026C56.1293 22.8725 56.0603 22.5848 56.0603 22.2397C56.0603 21.906 56.1524 21.6068 56.3364 21.3422C56.532 21.0661 56.7506 20.8417 56.9923 20.6691V20.6001C56.7046 20.3815 56.4457 20.0766 56.2156 19.6854C55.997 19.2942 55.8877 18.8513 55.8877 18.3565C55.8877 17.7007 56.043 17.1484 56.3537 16.6997C56.6643 16.251 57.0728 15.9116 57.579 15.6815C58.0968 15.4399 58.6491 15.3191 59.2358 15.3191C59.4659 15.3191 59.6846 15.3421 59.8917 15.3881C60.1103 15.4226 60.3059 15.4686 60.4784 15.5262H63.5159V16.9931H61.9626C62.1007 17.1542 62.2158 17.3613 62.3078 17.6144C62.3999 17.856 62.4459 18.1264 62.4459 18.4256C62.4459 19.0469 62.3021 19.5761 62.0144 20.0133C61.7268 20.439 61.3414 20.7612 60.8581 20.9798C60.3749 21.1984 59.8341 21.3077 59.2358 21.3077C59.0517 21.3077 58.8619 21.2904 58.6663 21.2559C58.4707 21.2214 58.2751 21.1639 58.0795 21.0833C57.953 21.1984 57.8494 21.3135 57.7689 21.4285C57.6998 21.5436 57.6653 21.6989 57.6653 21.8945C57.6653 22.1361 57.7631 22.3259 57.9587 22.464C58.1658 22.6021 58.5282 22.6711 59.046 22.6711H60.5475C61.5715 22.6711 62.3423 22.8379 62.8601 23.1716C63.3893 23.4938 63.654 24.023 63.654 24.7594C63.654 25.3116 63.4699 25.8121 63.1017 26.2608C62.7335 26.7211 62.21 27.0835 61.5312 27.3481C60.8524 27.6127 60.0527 27.7451 59.1323 27.7451ZM59.2358 20.0651C59.6385 20.0651 59.9837 19.9155 60.2713 19.6164C60.559 19.3172 60.7028 18.8973 60.7028 18.3565C60.7028 17.8273 60.559 17.4188 60.2713 17.1312C59.9952 16.832 59.65 16.6825 59.2358 16.6825C58.8216 16.6825 58.4707 16.8263 58.1831 17.1139C57.8954 17.4016 57.7516 17.8158 57.7516 18.3565C57.7516 18.8973 57.8954 19.3172 58.1831 19.6164C58.4707 19.9155 58.8216 20.0651 59.2358 20.0651ZM59.4429 26.4507C60.1218 26.4507 60.674 26.3126 61.0997 26.0365C61.5254 25.7603 61.7383 25.4439 61.7383 25.0873C61.7383 24.7536 61.606 24.5293 61.3414 24.4142C61.0882 24.2991 60.7201 24.2416 60.2368 24.2416H59.0805C58.6203 24.2416 58.2349 24.2013 57.9242 24.1208C57.487 24.4545 57.2684 24.8284 57.2684 25.2426C57.2684 25.6223 57.464 25.9157 57.8552 26.1228C58.2464 26.3414 58.7756 26.4507 59.4429 26.4507ZM65.1473 24V15.5262H66.7869L66.925 16.6652H66.994C67.3737 16.297 67.7879 15.9806 68.2366 15.716C68.6853 15.4514 69.1973 15.3191 69.7726 15.3191C70.6815 15.3191 71.3431 15.6125 71.7573 16.1992C72.1715 16.786 72.3786 17.6144 72.3786 18.6844V24H70.3939V18.9433C70.3939 18.2415 70.2903 17.7467 70.0832 17.4591C69.8761 17.1715 69.5367 17.0276 69.065 17.0276C68.6968 17.0276 68.3689 17.1197 68.0813 17.3038C67.8051 17.4764 67.4887 17.7352 67.1321 18.0804V24H65.1473ZM78.2596 24V15.5262H80.2443V24H78.2596ZM79.2606 14.042C78.9039 14.042 78.6163 13.9384 78.3977 13.7313C78.1791 13.5242 78.0698 13.2481 78.0698 12.9029C78.0698 12.5692 78.1791 12.2989 78.3977 12.0918C78.6163 11.8847 78.9039 11.7811 79.2606 11.7811C79.6173 11.7811 79.9049 11.8847 80.1235 12.0918C80.3421 12.2989 80.4514 12.5692 80.4514 12.9029C80.4514 13.2481 80.3421 13.5242 80.1235 13.7313C79.9049 13.9384 79.6173 14.042 79.2606 14.042ZM82.7764 24V15.5262H84.416L84.5541 16.6652H84.6231C85.0028 16.297 85.417 15.9806 85.8657 15.716C86.3144 15.4514 86.8264 15.3191 87.4017 15.3191C88.3106 15.3191 88.9722 15.6125 89.3864 16.1992C89.8006 16.786 90.0077 17.6144 90.0077 18.6844V24H88.023V18.9433C88.023 18.2415 87.9194 17.7467 87.7123 17.4591C87.5052 17.1715 87.1658 17.0276 86.6941 17.0276C86.3259 17.0276 85.998 17.1197 85.7104 17.3038C85.4342 17.4764 85.1178 17.7352 84.7612 18.0804V24H82.7764ZM97.2866 24L95.0431 15.5262H97.045L98.0633 19.927C98.1553 20.3297 98.2301 20.7324 98.2876 21.1351C98.3567 21.5378 98.4314 21.9463 98.512 22.3605H98.581C98.6616 21.9463 98.7421 21.5378 98.8226 21.1351C98.9147 20.7209 99.0125 20.3182 99.116 19.927L100.221 15.5262H102.033L103.154 19.927C103.258 20.3297 103.356 20.7324 103.448 21.1351C103.54 21.5378 103.632 21.9463 103.724 22.3605H103.793C103.874 21.9463 103.948 21.5378 104.017 21.1351C104.086 20.7324 104.161 20.3297 104.242 19.927L105.26 15.5262H107.124L104.967 24H102.602L101.618 20.0478C101.526 19.6452 101.44 19.2482 101.36 18.857C101.279 18.4543 101.193 18.0286 101.101 17.5799H101.032C100.951 18.0286 100.871 18.4543 100.79 18.857C100.71 19.2597 100.623 19.6624 100.531 20.0651L99.5647 24H97.2866ZM108.799 24V15.5262H110.783V24H108.799ZM109.8 14.042C109.443 14.042 109.155 13.9384 108.937 13.7313C108.718 13.5242 108.609 13.2481 108.609 12.9029C108.609 12.5692 108.718 12.2989 108.937 12.0918C109.155 11.8847 109.443 11.7811 109.8 11.7811C110.156 11.7811 110.444 11.8847 110.663 12.0918C110.881 12.2989 110.991 12.5692 110.991 12.9029C110.991 13.2481 110.881 13.5242 110.663 13.7313C110.444 13.9384 110.156 14.042 109.8 14.042ZM116.301 24.2071C115.323 24.2071 114.627 23.9252 114.213 23.3614C113.81 22.7862 113.609 22.0441 113.609 21.1351V17.0967H112.401V15.6125L113.713 15.5262L113.954 13.2136H115.611V15.5262H117.768V17.0967H115.611V21.1351C115.611 22.1246 116.008 22.6193 116.802 22.6193C116.951 22.6193 117.107 22.6021 117.268 22.5676C117.429 22.5215 117.567 22.4755 117.682 22.4295L118.027 23.8965C117.797 23.977 117.532 24.046 117.233 24.1035C116.946 24.1726 116.635 24.2071 116.301 24.2071ZM119.551 24V11.8156H121.536V14.9566L121.467 16.5962C121.824 16.2625 122.221 15.9691 122.658 15.716C123.095 15.4514 123.601 15.3191 124.177 15.3191C125.086 15.3191 125.747 15.6125 126.161 16.1992C126.576 16.786 126.783 17.6144 126.783 18.6844V24H124.798V18.9433C124.798 18.2415 124.694 17.7467 124.487 17.4591C124.28 17.1715 123.941 17.0276 123.469 17.0276C123.101 17.0276 122.773 17.1197 122.485 17.3038C122.209 17.4764 121.893 17.7352 121.536 18.0804V24H119.551ZM132.803 24V12.7131H134.805V17.252H139.378V12.7131H141.38V24H139.378V18.9951H134.805V24H132.803ZM146.594 24.2071C145.685 24.2071 145.023 23.9137 144.609 23.3269C144.195 22.7401 143.988 21.9117 143.988 20.8417V15.5262H145.972V20.5829C145.972 21.2847 146.076 21.7794 146.283 22.0671C146.49 22.3547 146.824 22.4985 147.284 22.4985C147.652 22.4985 147.974 22.4065 148.25 22.2224C148.538 22.0383 148.843 21.7392 149.165 21.325V15.5262H151.15V24H149.527L149.372 22.7574H149.32C148.952 23.1946 148.549 23.5455 148.112 23.8102C147.675 24.0748 147.169 24.2071 146.594 24.2071ZM156.615 27.7451C155.947 27.7451 155.343 27.6645 154.803 27.5034C154.273 27.3424 153.853 27.095 153.543 26.7613C153.244 26.4392 153.094 26.0307 153.094 25.536C153.094 24.8342 153.497 24.2301 154.302 23.7239V23.6548C154.084 23.5168 153.899 23.3327 153.75 23.1026C153.612 22.8725 153.543 22.5848 153.543 22.2397C153.543 21.906 153.635 21.6068 153.819 21.3422C154.015 21.0661 154.233 20.8417 154.475 20.6691V20.6001C154.187 20.3815 153.928 20.0766 153.698 19.6854C153.48 19.2942 153.37 18.8513 153.37 18.3565C153.37 17.7007 153.526 17.1484 153.836 16.6997C154.147 16.251 154.555 15.9116 155.062 15.6815C155.579 15.4399 156.132 15.3191 156.718 15.3191C156.948 15.3191 157.167 15.3421 157.374 15.3881C157.593 15.4226 157.788 15.4686 157.961 15.5262H160.998V16.9931H159.445C159.583 17.1542 159.698 17.3613 159.79 17.6144C159.882 17.856 159.928 18.1264 159.928 18.4256C159.928 19.0469 159.785 19.5761 159.497 20.0133C159.209 20.439 158.824 20.7612 158.341 20.9798C157.857 21.1984 157.317 21.3077 156.718 21.3077C156.534 21.3077 156.344 21.2904 156.149 21.2559C155.953 21.2214 155.758 21.1639 155.562 21.0833C155.435 21.1984 155.332 21.3135 155.251 21.4285C155.182 21.5436 155.148 21.6989 155.148 21.8945C155.148 22.1361 155.246 22.3259 155.441 22.464C155.648 22.6021 156.011 22.6711 156.529 22.6711H158.03C159.054 22.6711 159.825 22.8379 160.343 23.1716C160.872 23.4938 161.136 24.023 161.136 24.7594C161.136 25.3116 160.952 25.8121 160.584 26.2608C160.216 26.7211 159.693 27.0835 159.014 27.3481C158.335 27.6127 157.535 27.7451 156.615 27.7451ZM156.718 20.0651C157.121 20.0651 157.466 19.9155 157.754 19.6164C158.041 19.3172 158.185 18.8973 158.185 18.3565C158.185 17.8273 158.041 17.4188 157.754 17.1312C157.478 16.832 157.133 16.6825 156.718 16.6825C156.304 16.6825 155.953 16.8263 155.666 17.1139C155.378 17.4016 155.234 17.8158 155.234 18.3565C155.234 18.8973 155.378 19.3172 155.666 19.6164C155.953 19.9155 156.304 20.0651 156.718 20.0651ZM156.925 26.4507C157.604 26.4507 158.157 26.3126 158.582 26.0365C159.008 25.7603 159.221 25.4439 159.221 25.0873C159.221 24.7536 159.088 24.5293 158.824 24.4142C158.571 24.2991 158.203 24.2416 157.719 24.2416H156.563C156.103 24.2416 155.717 24.2013 155.407 24.1208C154.969 24.4545 154.751 24.8284 154.751 25.2426C154.751 25.6223 154.946 25.9157 155.338 26.1228C155.729 26.3414 156.258 26.4507 156.925 26.4507ZM165.581 27.7451C164.914 27.7451 164.31 27.6645 163.769 27.5034C163.24 27.3424 162.82 27.095 162.509 26.7613C162.21 26.4392 162.06 26.0307 162.06 25.536C162.06 24.8342 162.463 24.2301 163.268 23.7239V23.6548C163.05 23.5168 162.866 23.3327 162.716 23.1026C162.578 22.8725 162.509 22.5848 162.509 22.2397C162.509 21.906 162.601 21.6068 162.785 21.3422C162.981 21.0661 163.199 20.8417 163.441 20.6691V20.6001C163.153 20.3815 162.894 20.0766 162.664 19.6854C162.446 19.2942 162.336 18.8513 162.336 18.3565C162.336 17.7007 162.492 17.1484 162.802 16.6997C163.113 16.251 163.522 15.9116 164.028 15.6815C164.546 15.4399 165.098 15.3191 165.685 15.3191C165.915 15.3191 166.133 15.3421 166.34 15.3881C166.559 15.4226 166.755 15.4686 166.927 15.5262H169.965V16.9931H168.411C168.549 17.1542 168.665 17.3613 168.757 17.6144C168.849 17.856 168.895 18.1264 168.895 18.4256C168.895 19.0469 168.751 19.5761 168.463 20.0133C168.176 20.439 167.79 20.7612 167.307 20.9798C166.824 21.1984 166.283 21.3077 165.685 21.3077C165.5 21.3077 165.311 21.2904 165.115 21.2559C164.919 21.2214 164.724 21.1639 164.528 21.0833C164.402 21.1984 164.298 21.3135 164.218 21.4285C164.149 21.5436 164.114 21.6989 164.114 21.8945C164.114 22.1361 164.212 22.3259 164.407 22.464C164.615 22.6021 164.977 22.6711 165.495 22.6711H166.996C168.02 22.6711 168.791 22.8379 169.309 23.1716C169.838 23.4938 170.103 24.023 170.103 24.7594C170.103 25.3116 169.919 25.8121 169.55 26.2608C169.182 26.7211 168.659 27.0835 167.98 27.3481C167.301 27.6127 166.501 27.7451 165.581 27.7451ZM165.685 20.0651C166.087 20.0651 166.432 19.9155 166.72 19.6164C167.008 19.3172 167.152 18.8973 167.152 18.3565C167.152 17.8273 167.008 17.4188 166.72 17.1312C166.444 16.832 166.099 16.6825 165.685 16.6825C165.27 16.6825 164.919 16.8263 164.632 17.1139C164.344 17.4016 164.2 17.8158 164.2 18.3565C164.2 18.8973 164.344 19.3172 164.632 19.6164C164.919 19.9155 165.27 20.0651 165.685 20.0651ZM165.892 26.4507C166.571 26.4507 167.123 26.3126 167.548 26.0365C167.974 25.7603 168.187 25.4439 168.187 25.0873C168.187 24.7536 168.055 24.5293 167.79 24.4142C167.537 24.2991 167.169 24.2416 166.686 24.2416H165.529C165.069 24.2416 164.684 24.2013 164.373 24.1208C163.936 24.4545 163.717 24.8284 163.717 25.2426C163.717 25.6223 163.913 25.9157 164.304 26.1228C164.695 26.3414 165.224 26.4507 165.892 26.4507ZM171.596 24V15.5262H173.581V24H171.596ZM172.597 14.042C172.24 14.042 171.953 13.9384 171.734 13.7313C171.516 13.5242 171.406 13.2481 171.406 12.9029C171.406 12.5692 171.516 12.2989 171.734 12.0918C171.953 11.8847 172.24 11.7811 172.597 11.7811C172.954 11.7811 173.241 11.8847 173.46 12.0918C173.679 12.2989 173.788 12.5692 173.788 12.9029C173.788 13.2481 173.679 13.5242 173.46 13.7313C173.241 13.9384 172.954 14.042 172.597 14.042ZM176.113 24V15.5262H177.752L177.891 16.6652H177.96C178.339 16.297 178.753 15.9806 179.202 15.716C179.651 15.4514 180.163 15.3191 180.738 15.3191C181.647 15.3191 182.309 15.6125 182.723 16.1992C183.137 16.786 183.344 17.6144 183.344 18.6844V24H181.359V18.9433C181.359 18.2415 181.256 17.7467 181.049 17.4591C180.842 17.1715 180.502 17.0276 180.031 17.0276C179.662 17.0276 179.334 17.1197 179.047 17.3038C178.771 17.4764 178.454 17.7352 178.098 18.0804V24H176.113ZM188.721 27.7451C188.054 27.7451 187.45 27.6645 186.909 27.5034C186.38 27.3424 185.96 27.095 185.649 26.7613C185.35 26.4392 185.201 26.0307 185.201 25.536C185.201 24.8342 185.603 24.2301 186.409 23.7239V23.6548C186.19 23.5168 186.006 23.3327 185.856 23.1026C185.718 22.8725 185.649 22.5848 185.649 22.2397C185.649 21.906 185.741 21.6068 185.925 21.3422C186.121 21.0661 186.34 20.8417 186.581 20.6691V20.6001C186.294 20.3815 186.035 20.0766 185.805 19.6854C185.586 19.2942 185.477 18.8513 185.477 18.3565C185.477 17.7007 185.632 17.1484 185.943 16.6997C186.253 16.251 186.662 15.9116 187.168 15.6815C187.686 15.4399 188.238 15.3191 188.825 15.3191C189.055 15.3191 189.274 15.3421 189.481 15.3881C189.699 15.4226 189.895 15.4686 190.067 15.5262H193.105V16.9931H191.552C191.69 17.1542 191.805 17.3613 191.897 17.6144C191.989 17.856 192.035 18.1264 192.035 18.4256C192.035 19.0469 191.891 19.5761 191.603 20.0133C191.316 20.439 190.93 20.7612 190.447 20.9798C189.964 21.1984 189.423 21.3077 188.825 21.3077C188.641 21.3077 188.451 21.2904 188.255 21.2559C188.06 21.2214 187.864 21.1639 187.669 21.0833C187.542 21.1984 187.438 21.3135 187.358 21.4285C187.289 21.5436 187.254 21.6989 187.254 21.8945C187.254 22.1361 187.352 22.3259 187.548 22.464C187.755 22.6021 188.117 22.6711 188.635 22.6711H190.137C191.161 22.6711 191.931 22.8379 192.449 23.1716C192.978 23.4938 193.243 24.023 193.243 24.7594C193.243 25.3116 193.059 25.8121 192.691 26.2608C192.323 26.7211 191.799 27.0835 191.12 27.3481C190.441 27.6127 189.642 27.7451 188.721 27.7451ZM188.825 20.0651C189.228 20.0651 189.573 19.9155 189.86 19.6164C190.148 19.3172 190.292 18.8973 190.292 18.3565C190.292 17.8273 190.148 17.4188 189.86 17.1312C189.584 16.832 189.239 16.6825 188.825 16.6825C188.411 16.6825 188.06 16.8263 187.772 17.1139C187.484 17.4016 187.341 17.8158 187.341 18.3565C187.341 18.8973 187.484 19.3172 187.772 19.6164C188.06 19.9155 188.411 20.0651 188.825 20.0651ZM189.032 26.4507C189.711 26.4507 190.263 26.3126 190.689 26.0365C191.114 25.7603 191.327 25.4439 191.327 25.0873C191.327 24.7536 191.195 24.5293 190.93 24.4142C190.677 24.2991 190.309 24.2416 189.826 24.2416H188.67C188.209 24.2416 187.824 24.2013 187.513 24.1208C187.076 24.4545 186.857 24.8284 186.857 25.2426C186.857 25.6223 187.053 25.9157 187.444 26.1228C187.835 26.3414 188.365 26.4507 189.032 26.4507ZM198.364 24V12.7131H205.181V14.4044H200.366V17.5972H204.473V19.2885H200.366V24H198.364ZM208.419 24.2071C207.683 24.2071 207.079 23.977 206.607 23.5168C206.147 23.0565 205.917 22.4583 205.917 21.7219C205.917 20.813 206.314 20.1111 207.108 19.6164C207.902 19.1101 209.167 18.765 210.904 18.5809C210.893 18.1322 210.772 17.7467 210.542 17.4246C210.323 17.0909 209.926 16.9241 209.351 16.9241C208.937 16.9241 208.529 17.0046 208.126 17.1657C207.735 17.3268 207.349 17.5224 206.97 17.7525L206.245 16.4236C206.716 16.1245 207.246 15.8656 207.832 15.647C208.431 15.4284 209.064 15.3191 209.731 15.3191C210.789 15.3191 211.578 15.6355 212.095 16.2683C212.625 16.8896 212.889 17.7928 212.889 18.9778V24H211.25L211.112 23.0681H211.043C210.663 23.3902 210.254 23.6606 209.817 23.8792C209.391 24.0978 208.926 24.2071 208.419 24.2071ZM209.058 22.6539C209.403 22.6539 209.714 22.5733 209.99 22.4122C210.277 22.2397 210.582 22.0095 210.904 21.7219V19.8235C209.754 19.9731 208.954 20.1974 208.506 20.4966C208.057 20.7842 207.832 21.1409 207.832 21.5666C207.832 21.9463 207.948 22.2224 208.178 22.395C208.408 22.5676 208.701 22.6539 209.058 22.6539ZM218.802 24.2071C218.031 24.2071 217.335 24.0345 216.714 23.6894C216.104 23.3327 215.615 22.8264 215.247 22.1706C214.89 21.5033 214.712 20.7037 214.712 19.7717C214.712 18.8283 214.908 18.0286 215.299 17.3728C215.69 16.7055 216.208 16.1992 216.852 15.8541C217.508 15.4974 218.21 15.3191 218.958 15.3191C219.498 15.3191 219.97 15.4111 220.373 15.5952C220.775 15.7793 221.132 16.0036 221.443 16.2683L220.476 17.5626C220.258 17.3671 220.033 17.2175 219.803 17.1139C219.573 16.9989 219.326 16.9413 219.061 16.9413C218.382 16.9413 217.824 17.2002 217.387 17.718C216.961 18.2357 216.749 18.9203 216.749 19.7717C216.749 20.6116 216.956 21.2904 217.37 21.8082C217.796 22.3259 218.342 22.5848 219.009 22.5848C219.343 22.5848 219.654 22.5158 219.941 22.3777C220.24 22.2281 220.511 22.0556 220.752 21.86L221.564 23.1716C221.172 23.5168 220.735 23.7756 220.252 23.9482C219.769 24.1208 219.286 24.2071 218.802 24.2071ZM226.439 24.2071C225.657 24.2071 224.949 24.0345 224.316 23.6894C223.684 23.3327 223.183 22.8264 222.815 22.1706C222.447 21.5033 222.263 20.7037 222.263 19.7717C222.263 18.8513 222.447 18.0574 222.815 17.3901C223.195 16.7227 223.684 16.2107 224.282 15.8541C224.88 15.4974 225.507 15.3191 226.163 15.3191C226.934 15.3191 227.578 15.4917 228.096 15.8368C228.614 16.1705 229.005 16.6422 229.269 17.252C229.534 17.8503 229.666 18.5464 229.666 19.3403C229.666 19.7545 229.638 20.0766 229.58 20.3067H224.196C224.288 21.0546 224.558 21.6356 225.007 22.0498C225.455 22.464 226.019 22.6711 226.698 22.6711C227.066 22.6711 227.406 22.6193 227.716 22.5158C228.038 22.4007 228.355 22.2454 228.665 22.0498L229.338 23.2924C228.936 23.557 228.487 23.7756 227.992 23.9482C227.498 24.1208 226.98 24.2071 226.439 24.2071ZM224.178 18.9606H227.941C227.941 18.3048 227.797 17.7928 227.509 17.4246C227.221 17.0449 226.79 16.8551 226.215 16.8551C225.72 16.8551 225.277 17.0391 224.886 17.4073C224.506 17.764 224.27 18.2817 224.178 18.9606Z" fill="#E6EAF2"/>
<defs>
<filter id="filter0_d_202_232" x="12.8552" y="7.39308" width="24.1648" height="23.0056" filterUnits="userSpaceOnUse" color-interpolation-filters="sRGB">
<feFlood flood-opacity="0" result="BackgroundImageFix"/>
<feColorMatrix in="SourceAlpha" type="matrix" values="0 0 0 0 0 0 0 0 0 0 0 0 0 0 0 0 0 0 127 0" result="hardAlpha"/>
<feOffset dy="0.932432"/>
<feGaussianBlur stdDeviation="2.02027"/>
<feColorMatrix type="matrix" values="0 0 0 0 0 0 0 0 0 0 0 0 0 0 0 0 0 0 0.1 0"/>
<feBlend mode="normal" in2="BackgroundImageFix" result="effect1_dropShadow_202_232"/>
<feBlend mode="normal" in="SourceGraphic" in2="effect1_dropShadow_202_232" result="shape"/>
</filter>
<linearGradient id="paint0_linear_202_232" x1="-1.04249e-07" y1="18" x2="72.6739" y2="18" gradientUnits="userSpaceOnUse">
<stop stop-color="#F5F9FA"/>
<stop offset="1" stop-color="white"/>
</linearGradient>
<linearGradient id="paint1_linear_202_232" x1="-1.22546e-07" y1="18" x2="100.515" y2="18" gradientUnits="userSpaceOnUse">
<stop stop-color="#172033"/>
<stop offset="1" stop-color="#0B0F19"/>
</linearGradient>
</defs>
</svg>
