<svg width="608" height="115" viewBox="0 0 608 115" fill="none" xmlns="http://www.w3.org/2000/svg">
<path d="M43.94 89.5187C68.2074 89.5187 87.88 69.8461 87.88 45.5787C87.88 21.3113 68.2074 1.63867 43.94 1.63867C19.6726 1.63867 0 21.3113 0 45.5787C0 69.8461 19.6726 89.5187 43.94 89.5187Z" fill="url(#paint0_linear_620_12098)"/>
<path d="M168.13 89.4387C144.887 89.4122 122.603 80.165 106.171 63.7267C89.738 47.2884 80.4985 25.002 80.48 1.75867H111.05C111.069 16.8915 117.088 31.3993 127.789 42.0999C138.489 52.8004 152.997 58.8201 168.13 58.8387V89.4387Z" fill="#F8C0A7"/>
<path d="M246.18 1.56866H263.48L250.19 49.8187H277L263.48 1.56866H281.15L305.84 89.2987H288L281.23 65.2287H246.06L239.41 89.2987H222L246.18 1.56866Z" fill="black"/>
<path d="M315.49 25.2487H331.28V33.7787C333.661 30.576 336.762 27.9773 340.331 26.1917C343.9 24.4062 347.839 23.4838 351.83 23.4987V39.7887C338.55 37.2887 331.28 43.0487 331.28 53.6987V89.2987H315.49V25.2487Z" fill="black"/>
<path d="M361.73 93.5587H380C382.13 97.4387 387.52 100.079 394.29 100.079C404.44 100.079 411.21 93.8087 411.21 82.5287V81.6487C406.32 87.7887 398.92 91.0487 389.9 91.0487C374.49 91.0487 359.7 79.3987 359.7 57.3387C359.7 35.2787 374.49 23.4987 389.9 23.4987C398.9 23.4987 406.32 26.7587 411.21 33.0287V25.2487H427V82.5287C427 101.829 412.84 114.859 394.29 114.859C379 114.859 365.62 107.349 361.73 93.5587ZM393.73 76.2587C404.01 76.2587 411.28 69.3687 411.28 57.3387C411.28 45.3087 404.01 38.3387 393.73 38.3387C383.45 38.3387 376.19 45.2287 376.19 57.3387C376.19 69.4487 383.54 76.2587 393.69 76.2587H393.73Z" fill="black"/>
<path d="M452.85 0.438634C454.096 0.395362 455.338 0.608905 456.498 1.06599C457.658 1.52307 458.711 2.21391 459.593 3.09556C460.475 3.97721 461.166 5.03081 461.623 6.19084C462.08 7.35088 462.293 8.59255 462.25 9.83863C462.25 11.0731 462.007 12.2954 461.534 13.4359C461.062 14.5763 460.37 15.6126 459.497 16.4854C458.624 17.3583 457.588 18.0507 456.447 18.5231C455.307 18.9955 454.084 19.2386 452.85 19.2386C451.616 19.2386 450.393 18.9955 449.253 18.5231C448.112 18.0507 447.076 17.3583 446.203 16.4854C445.33 15.6126 444.638 14.5763 444.166 13.4359C443.693 12.2954 443.45 11.0731 443.45 9.83863C443.393 8.58909 443.597 7.3414 444.05 6.17519C444.502 5.00897 445.192 3.94984 446.077 3.06536C446.961 2.18088 448.02 1.49049 449.187 1.03822C450.353 0.585952 451.6 0.381747 452.85 0.438634ZM445 25.2486H460.79V89.2986H445V25.2486Z" fill="black"/>
<path d="M477.54 1.56866H493.33V89.2987H477.54V1.56866Z" fill="black"/>
<path d="M510.12 1.56866H525.91V89.2987H510.12V1.56866Z" fill="black"/>
<path d="M539.7 57.3387C539.7 35.1587 554.49 23.4987 569.9 23.4987C579.05 23.4987 586.45 26.7587 591.21 33.1487V25.2487H607V89.2987H591.21V81.5287C586.45 87.7887 579.05 91.0487 569.9 91.0487C554.49 91.0487 539.7 79.4387 539.7 57.3387ZM573.7 76.2587C583.98 76.2587 591.25 69.3687 591.25 57.3387C591.25 45.3087 583.98 38.3387 573.7 38.3387C563.42 38.3387 556.16 45.2287 556.16 57.3387C556.16 69.4487 563.51 76.2587 573.66 76.2587H573.7Z" fill="black"/>
<path d="M44.3 89.0893C68.5674 89.0893 88.24 69.4167 88.24 45.1494C88.24 20.882 68.5674 1.20935 44.3 1.20935C20.0326 1.20935 0.359985 20.882 0.359985 45.1494C0.359985 69.4167 20.0326 89.0893 44.3 89.0893Z" fill="url(#paint1_linear_620_12098)"/>
<path d="M168.48 89.0094C145.242 88.9829 122.963 79.7399 106.531 63.308C90.0996 46.8762 80.8565 24.5975 80.8301 1.35938H111.4C111.419 16.4922 117.438 31 128.139 41.7006C138.839 52.4011 153.347 58.4208 168.48 58.4394V89.0094Z" fill="#F9C1A8"/>
<path d="M246.53 1.13934H263.83L250.54 49.3893H277.36L263.83 1.13934H281.5L306.19 88.8693H288.39L281.63 64.7993H246.41L239.77 88.8693H222.35L246.53 1.13934Z" fill="white"/>
<path d="M315.84 24.8193H331.63V33.3493C334.013 30.1459 337.115 27.5468 340.686 25.7613C344.257 23.9757 348.197 23.0537 352.19 23.0693V39.3594C338.9 36.8594 331.63 42.6194 331.63 53.2694V88.8693H315.84V24.8193Z" fill="white"/>
<path d="M362.09 93.1293H380.38C382.51 97.0093 387.9 99.6494 394.67 99.6494C404.82 99.6494 411.59 93.3793 411.59 82.0993V81.2193C406.7 87.3593 399.31 90.6193 390.28 90.6193C374.87 90.6193 360.08 78.9693 360.08 56.9093C360.08 34.8493 374.87 23.0693 390.28 23.0693C399.28 23.0693 406.7 26.3293 411.59 32.5993V24.8193H427.38V82.0993C427.38 101.399 413.22 114.429 394.67 114.429C379.38 114.429 366 106.919 362.09 93.1293ZM394.09 75.8293C404.37 75.8293 411.64 68.9393 411.64 56.9093C411.64 44.8793 404.37 37.9093 394.09 37.9093C383.81 37.9093 376.55 44.7993 376.55 56.9093C376.55 69.0193 383.89 75.8293 394 75.8293H394.09Z" fill="white"/>
<path d="M453.2 0.0093827C455.059 0.0093827 456.877 0.560695 458.422 1.59358C459.968 2.62647 461.173 4.09452 461.885 5.81215C462.596 7.52977 462.782 9.41982 462.419 11.2432C462.057 13.0667 461.161 14.7416 459.847 16.0562C458.532 17.3708 456.857 18.2661 455.034 18.6288C453.21 18.9915 451.32 18.8053 449.603 18.0939C447.885 17.3824 446.417 16.1775 445.384 14.6317C444.351 13.0859 443.8 11.2685 443.8 9.40938C443.757 8.16329 443.97 6.92162 444.427 5.76158C444.884 4.60154 445.575 3.54795 446.457 2.6663C447.339 1.78466 448.392 1.09381 449.552 0.636733C450.712 0.179652 451.954 -0.0338899 453.2 0.0093827ZM445.3 24.8194H461.09V88.8694H445.3V24.8194Z" fill="white"/>
<path d="M477.89 1.13934H493.68V88.8693H477.89V1.13934Z" fill="white"/>
<path d="M510.47 1.13934H526.27V88.8693H510.47V1.13934Z" fill="white"/>
<path d="M540.05 56.9093C540.05 34.7293 554.84 23.0693 570.26 23.0693C579.4 23.0693 586.8 26.3293 591.56 32.7193V24.8193H607.35V88.8693H591.56V81.0993C586.8 87.3593 579.4 90.6193 570.26 90.6193C554.84 90.6193 540.05 79.0093 540.05 56.9093ZM574.05 75.8293C584.32 75.8293 591.59 68.9393 591.59 56.9093C591.59 44.8793 584.32 37.9093 574.05 37.9093C563.78 37.9093 556.5 44.7993 556.5 56.9093C556.5 69.0193 563.86 75.8293 574 75.8293H574.05Z" fill="white"/>
<defs>
<linearGradient id="paint0_linear_620_12098" x1="19.41" y1="22.5487" x2="74.11" y2="73.8987" gradientUnits="userSpaceOnUse">
<stop offset="0.02" stop-color="#FF675F"/>
<stop offset="1" stop-color="#F73D3D"/>
</linearGradient>
<linearGradient id="paint1_linear_620_12098" x1="19.76" y1="22.1193" x2="74.46" y2="73.4693" gradientUnits="userSpaceOnUse">
<stop offset="0.02" stop-color="#FF675F"/>
<stop offset="1" stop-color="#F83D3D"/>
</linearGradient>
</defs>
</svg>
