<svg version="1.1" xmlns="http://www.w3.org/2000/svg" xmlns:xlink="http://www.w3.org/1999/xlink"
	 viewBox="0 0 24 19">
<path fill="rgba(0, 0, 0, 0.03)" d="M22,0H2C0.9,0,0,0.9,0,2v15c0,1.1,0.9,2,2,2h20c1.1,0,2-0.9,2-2V2C24,0.9,23.1,0,22,0z M2,1.5h20
	c0.3,0,0.5,0.2,0.5,0.5v8.4l-3.8-3.8l-7.6,7.6L6,9.2l-4.5,4.5V2C1.5,1.7,1.7,1.5,2,1.5z M1.5,17v-1.3L6,11.3l4,4l-2.2,2.2H2
	C1.7,17.5,1.5,17.3,1.5,17z M22,17.5H9.9l8.8-8.8l3.8,3.8V17C22.5,17.3,22.3,17.5,22,17.5z M10.3,9.4c1.7,0,3.1-1.4,3.1-3.1
	S12,3.2,10.3,3.2S7.2,4.6,7.2,6.3S8.5,9.4,10.3,9.4z M10.3,4.7c0.9,0,1.6,0.7,1.6,1.6s-0.7,1.6-1.6,1.6S8.7,7.2,8.7,6.3
	S9.4,4.7,10.3,4.7z"/>
</svg>
