<svg  viewBox="0 0 40 34" fill="none" xmlns="http://www.w3.org/2000/svg">
<path fill-rule="evenodd" clip-rule="evenodd" d="M13.75 13.75C11.6789 13.75 10 15.4289 10 17.5C10 19.5711 11.6789 21.25 13.75 21.25C15.8211 21.25 17.5 19.5711 17.5 17.5C17.5 15.4289 15.8211 13.75 13.75 13.75ZM12.5 17.5C12.5 16.8096 13.0596 16.25 13.75 16.25C14.4404 16.25 15 16.8096 15 17.5C15 18.1904 14.4404 18.75 13.75 18.75C13.0596 18.75 12.5 18.1904 12.5 17.5Z" fill="black" fill-opacity="0.16"/>
<path fill-rule="evenodd" clip-rule="evenodd" d="M8.75 8.75C6.67893 8.75 5 10.4289 5 12.5V27.5C5 29.5711 6.67893 31.25 8.75 31.25H31.25C33.3211 31.25 35 29.5711 35 27.5V12.5C35 10.4289 33.3211 8.75 31.25 8.75H8.75ZM31.25 11.25H8.75C8.05964 11.25 7.5 11.8096 7.5 12.5V27.5C7.5 28.1904 8.05964 28.75 8.75 28.75H14.1422L22.7405 20.1517C24.2049 18.6872 26.5793 18.6872 28.0438 20.1517L32.5 24.6079V12.5C32.5 11.8096 31.9404 11.25 31.25 11.25ZM31.25 28.75H17.6777L24.5083 21.9195C24.9964 21.4313 25.7879 21.4313 26.276 21.9195L32.3837 28.0272C32.1849 28.4541 31.752 28.75 31.25 28.75Z" fill="black" fill-opacity="0.16"/>
</svg>
